<svg xmlns="http://www.w3.org/2000/svg" width="400" height="1400"><path d="M202,741L177,640L57,732Z" fill="#4e838d" stroke="#4e838d" stroke-width="1.51"/><path d="M177,640L48,682L57,732Z" fill="#49828c" stroke="#49828c" stroke-width="1.51"/><path d="M177,640L20,639L48,682Z" fill="#47818b" stroke="#47818b" stroke-width="1.51"/><path d="M48,682L-36,749L57,732Z" fill="#45818c" stroke="#45818c" stroke-width="1.51"/><path d="M57,732L159,874L202,741Z" fill="#50848f" stroke="#50848f" stroke-width="1.51"/><path d="M-36,749L53,852L57,732Z" fill="#46838d" stroke="#46838d" stroke-width="1.51"/><path d="M177,640L78,487L20,639Z" fill="#46818c" stroke="#46818c" stroke-width="1.51"/><path d="M329,613L221,561L177,640Z" fill="#52848f" stroke="#52848f" stroke-width="1.51"/><path d="M53,852L159,874L57,732Z" fill="#4d848f" stroke="#4d848f" stroke-width="1.51"/><path d="M20,639L-36,749L48,682Z" fill="#42818b" stroke="#42818b" stroke-width="1.51"/><path d="M202,741L329,613L177,640Z" fill="#538490" stroke="#538490" stroke-width="1.51"/><path d="M289,884L311,799L202,741Z" fill="#598894" stroke="#598894" stroke-width="1.51"/><path d="M311,799L329,613L202,741Z" fill="#588792" stroke="#588792" stroke-width="1.51"/><path d="M221,561L78,487L177,640Z" fill="#4b828c" stroke="#4b828c" stroke-width="1.51"/><path d="M20,639L-106,632L-36,749Z" fill="#3f7e87" stroke="#3f7e87" stroke-width="1.51"/><path d="M235,450L78,487L221,561Z" fill="#4a828c" stroke="#4a828c" stroke-width="1.51"/><path d="M78,487L-19,522L20,639Z" fill="#3f808a" stroke="#3f808a" stroke-width="1.51"/><path d="M159,874L289,884L202,741Z" fill="#578692" stroke="#578692" stroke-width="1.51"/><path d="M-19,522L-106,632L20,639Z" fill="#3d7d87" stroke="#3d7d87" stroke-width="1.51"/><path d="M53,852L95,1006L159,874Z" fill="#508691" stroke="#508691" stroke-width="1.51"/><path d="M159,874L188,1015L289,884Z" fill="#598893" stroke="#598893" stroke-width="1.51"/><path d="M-36,749L-63,871L53,852Z" fill="#45828c" stroke="#45828c" stroke-width="1.51"/><path d="M-138,841L-63,871L-36,749Z" fill="#427d86" stroke="#427d86" stroke-width="1.51"/><path d="M439,780L388,679L311,799Z" fill="#5f8c98" stroke="#5f8c98" stroke-width="1.51"/><path d="M311,799L388,679L329,613Z" fill="#5b8995" stroke="#5b8995" stroke-width="1.51"/><path d="M329,613L302,498L221,561Z" fill="#528691" stroke="#528691" stroke-width="1.51"/><path d="M335,412L302,498L390,436Z" fill="#538893" stroke="#538893" stroke-width="1.51"/><path d="M302,498L235,450L221,561Z" fill="#4f858f" stroke="#4f858f" stroke-width="1.51"/><path d="M289,884L396,847L311,799Z" fill="#5e8c97" stroke="#5e8c97" stroke-width="1.51"/><path d="M-176,732L-138,841L-36,749Z" fill="#3f7982" stroke="#3f7982" stroke-width="1.51"/><path d="M-27,1017L95,1006L53,852Z" fill="#4d8691" stroke="#4d8691" stroke-width="1.51"/><path d="M289,884L329,977L396,847Z" fill="#608d99" stroke="#608d99" stroke-width="1.51"/><path d="M-27,1017L53,852L-63,871Z" fill="#48848e" stroke="#48848e" stroke-width="1.51"/><path d="M-106,632L-176,732L-36,749Z" fill="#3e7882" stroke="#3e7882" stroke-width="1.51"/><path d="M95,1006L188,1015L159,874Z" fill="#558893" stroke="#558893" stroke-width="1.51"/><path d="M396,847L439,780L311,799Z" fill="#608d9a" stroke="#608d9a" stroke-width="1.51"/><path d="M443,519L302,498L329,613Z" fill="#568995" stroke="#568995" stroke-width="1.51"/><path d="M-52,390L-135,463L-19,522Z" fill="#367983" stroke="#367983" stroke-width="1.51"/><path d="M235,450L131,380L78,487Z" fill="#45818b" stroke="#45818b" stroke-width="1.51"/><path d="M188,1015L329,977L289,884Z" fill="#5d8b97" stroke="#5d8b97" stroke-width="1.51"/><path d="M511,862L534,728L439,780Z" fill="#68909c" stroke="#68909c" stroke-width="1.51"/><path d="M-139,969L-27,1017L-63,871Z" fill="#477f8a" stroke="#477f8a" stroke-width="1.51"/><path d="M95,1006L211,1075L188,1015Z" fill="#598995" stroke="#598995" stroke-width="1.51"/><path d="M-19,522L-157,502L-106,632Z" fill="#387882" stroke="#387882" stroke-width="1.51"/><path d="M-106,632L-157,502L-176,732Z" fill="#39757e" stroke="#39757e" stroke-width="1.51"/><path d="M-135,463L-157,502L-19,522Z" fill="#367780" stroke="#367780" stroke-width="1.51"/><path d="M219,296L130,289L131,380Z" fill="#42818b" stroke="#42818b" stroke-width="1.51"/><path d="M302,498L335,412L235,450Z" fill="#508691" stroke="#508691" stroke-width="1.51"/><path d="M443,519L329,613L388,679Z" fill="#5b8b97" stroke="#5b8b97" stroke-width="1.51"/><path d="M-52,390L-19,522L78,487Z" fill="#3a7f89" stroke="#3a7f89" stroke-width="1.51"/><path d="M528,528L443,519L388,679Z" fill="#5e8c98" stroke="#5e8c98" stroke-width="1.51"/><path d="M131,380L-52,390L78,487Z" fill="#3c8089" stroke="#3c8089" stroke-width="1.51"/><path d="M-27,1017L51,1062L95,1006Z" fill="#4f8893" stroke="#4f8893" stroke-width="1.51"/><path d="M188,1015L211,1075L329,977Z" fill="#5d8b97" stroke="#5d8b97" stroke-width="1.51"/><path d="M443,519L390,436L302,498Z" fill="#568a95" stroke="#568a95" stroke-width="1.51"/><path d="M-27,1017L-23,1095L51,1062Z" fill="#4d8792" stroke="#4d8792" stroke-width="1.51"/><path d="M-138,841L-139,969L-63,871Z" fill="#437c86" stroke="#437c86" stroke-width="1.51"/><path d="M-176,732L-139,969L-138,841Z" fill="#407882" stroke="#407882" stroke-width="1.51"/><path d="M51,1062L211,1075L95,1006Z" fill="#558994" stroke="#558994" stroke-width="1.51"/><path d="M439,780L534,728L388,679Z" fill="#638d9a" stroke="#638d9a" stroke-width="1.51"/><path d="M511,862L439,780L396,847Z" fill="#658f9c" stroke="#658f9c" stroke-width="1.51"/><path d="M432,1020L511,862L396,847Z" fill="#67919e" stroke="#67919e" stroke-width="1.51"/><path d="M432,1020L396,847L329,977Z" fill="#64909d" stroke="#64909d" stroke-width="1.51"/><path d="M131,380L-44,304L-52,390Z" fill="#367f88" stroke="#367f88" stroke-width="1.51"/><path d="M219,296L131,380L235,450Z" fill="#47818c" stroke="#47818c" stroke-width="1.51"/><path d="M219,296L235,450L335,412Z" fill="#4c858f" stroke="#4c858f" stroke-width="1.51"/><path d="M354,318L219,296L335,412Z" fill="#4d8690" stroke="#4d8690" stroke-width="1.51"/><path d="M-170,1070L-23,1095L-27,1017Z" fill="#49828c" stroke="#49828c" stroke-width="1.51"/><path d="M51,1062L163,1186L211,1075Z" fill="#598a96" stroke="#598a96" stroke-width="1.51"/><path d="M390,436L354,318L335,412Z" fill="#528994" stroke="#528994" stroke-width="1.51"/><path d="M443,519L518,437L390,436Z" fill="#5b8b98" stroke="#5b8b98" stroke-width="1.51"/><path d="M579,659L528,528L388,679Z" fill="#638d9a" stroke="#638d9a" stroke-width="1.51"/><path d="M299,1110L432,1020L329,977Z" fill="#64909d" stroke="#64909d" stroke-width="1.51"/><path d="M-52,390L-174,284L-135,463Z" fill="#30757f" stroke="#30757f" stroke-width="1.51"/><path d="M130,289L-44,304L131,380Z" fill="#3a8089" stroke="#3a8089" stroke-width="1.51"/><path d="M211,1075L299,1110L329,977Z" fill="#618d9a" stroke="#618d9a" stroke-width="1.51"/><path d="M306,1169L299,1110L211,1075Z" fill="#628f9b" stroke="#628f9b" stroke-width="1.51"/><path d="M412,264L354,318L494,285Z" fill="#528a95" stroke="#528a95" stroke-width="1.51"/><path d="M534,728L579,659L388,679Z" fill="#658e9a" stroke="#658e9a" stroke-width="1.51"/><path d="M553,955L579,659L534,728Z" fill="#6b909e" stroke="#6b909e" stroke-width="1.51"/><path d="M528,528L518,437L443,519Z" fill="#5f8d99" stroke="#5f8d99" stroke-width="1.51"/><path d="M579,659L518,437L528,528Z" fill="#638d9a" stroke="#638d9a" stroke-width="1.51"/><path d="M-176,732L-170,1070L-139,969Z" fill="#427982" stroke="#427982" stroke-width="1.51"/><path d="M-139,969L-170,1070L-27,1017Z" fill="#477e88" stroke="#477e88" stroke-width="1.51"/><path d="M14,1220L54,1175L-23,1095Z" fill="#518995" stroke="#518995" stroke-width="1.51"/><path d="M-23,1095L54,1175L51,1062Z" fill="#508994" stroke="#508994" stroke-width="1.51"/><path d="M54,1175L163,1186L51,1062Z" fill="#568a96" stroke="#568a96" stroke-width="1.51"/><path d="M511,862L553,955L534,728Z" fill="#6c919f" stroke="#6c919f" stroke-width="1.51"/><path d="M432,1020L553,955L511,862Z" fill="#6c93a0" stroke="#6c93a0" stroke-width="1.51"/><path d="M566,1052L553,955L432,1020Z" fill="#6f94a2" stroke="#6f94a2" stroke-width="1.51"/><path d="M299,1110L388,1131L432,1020Z" fill="#67939f" stroke="#67939f" stroke-width="1.51"/><path d="M163,1186L306,1169L211,1075Z" fill="#608d99" stroke="#608d99" stroke-width="1.51"/><path d="M306,1169L388,1131L299,1110Z" fill="#65929e" stroke="#65929e" stroke-width="1.51"/><path d="M130,289L-1,187L-44,304Z" fill="#337f88" stroke="#337f88" stroke-width="1.51"/><path d="M219,296L165,192L130,289Z" fill="#41808a" stroke="#41808a" stroke-width="1.51"/><path d="M351,176L165,192L219,296Z" fill="#45828c" stroke="#45828c" stroke-width="1.51"/><path d="M-44,304L-174,284L-52,390Z" fill="#307780" stroke="#307780" stroke-width="1.51"/><path d="M-135,463L-174,284L-157,502Z" fill="#30737c" stroke="#30737c" stroke-width="1.51"/><path d="M-157,502L-174,284L-176,732Z" fill="#34737b" stroke="#34737b" stroke-width="1.51"/><path d="M-170,183L-174,284L-44,304Z" fill="#2a747d" stroke="#2a747d" stroke-width="1.51"/><path d="M354,318L379,233L219,296Z" fill="#4b8691" stroke="#4b8691" stroke-width="1.51"/><path d="M494,285L354,318L390,436Z" fill="#548a96" stroke="#548a96" stroke-width="1.51"/><path d="M-170,1070L-121,1166L-23,1095Z" fill="#4a808b" stroke="#4a808b" stroke-width="1.51"/><path d="M54,1175L92,1336L163,1186Z" fill="#5a8b97" stroke="#5a8b97" stroke-width="1.51"/><path d="M291,1301L458,1219L306,1169Z" fill="#6a93a0" stroke="#6a93a0" stroke-width="1.51"/><path d="M-121,1166L14,1220L-23,1095Z" fill="#4e8691" stroke="#4e8691" stroke-width="1.51"/><path d="M412,264L379,233L354,318Z" fill="#4f8994" stroke="#4f8994" stroke-width="1.51"/><path d="M106,159L-1,187L130,289Z" fill="#377e87" stroke="#377e87" stroke-width="1.51"/><path d="M165,192L106,159L130,289Z" fill="#3c7f88" stroke="#3c7f88" stroke-width="1.51"/><path d="M102,111L106,159L184,104Z" fill="#3a7b85" stroke="#3a7b85" stroke-width="1.51"/><path d="M518,437L494,285L390,436Z" fill="#5a8c98" stroke="#5a8c98" stroke-width="1.51"/><path d="M547,196L391,114L379,233Z" fill="#518893" stroke="#518893" stroke-width="1.51"/><path d="M547,196L494,285L518,437Z" fill="#5b8c98" stroke="#5b8c98" stroke-width="1.51"/><path d="M553,955L566,1052L579,659Z" fill="#6f93a0" stroke="#6f93a0" stroke-width="1.51"/><path d="M388,1131L566,1052L432,1020Z" fill="#6d95a1" stroke="#6d95a1" stroke-width="1.51"/><path d="M558,1175L566,1052L388,1131Z" fill="#7197a4" stroke="#7197a4" stroke-width="1.51"/><path d="M379,233L351,176L219,296Z" fill="#4a8690" stroke="#4a8690" stroke-width="1.51"/><path d="M391,114L351,176L379,233Z" fill="#4c8691" stroke="#4c8691" stroke-width="1.51"/><path d="M106,159L102,111L-1,187Z" fill="#357c85" stroke="#357c85" stroke-width="1.51"/><path d="M-1,187L-170,183L-44,304Z" fill="#2c7780" stroke="#2c7780" stroke-width="1.51"/><path d="M184,104L106,159L165,192Z" fill="#3d7d87" stroke="#3d7d87" stroke-width="1.51"/><path d="M-17,71L-170,183L-1,187Z" fill="#2b757e" stroke="#2b757e" stroke-width="1.51"/><path d="M351,176L184,104L165,192Z" fill="#437f89" stroke="#437f89" stroke-width="1.51"/><path d="M306,1169L458,1219L388,1131Z" fill="#6b95a2" stroke="#6b95a2" stroke-width="1.51"/><path d="M291,1301L306,1169L163,1186Z" fill="#648f9b" stroke="#648f9b" stroke-width="1.51"/><path d="M157,1352L291,1301L163,1186Z" fill="#628d99" stroke="#628d99" stroke-width="1.51"/><path d="M14,1220L92,1336L54,1175Z" fill="#578b97" stroke="#578b97" stroke-width="1.51"/><path d="M-18,1320L92,1336L14,1220Z" fill="#568b97" stroke="#568b97" stroke-width="1.51"/><path d="M-121,1166L-18,1320L14,1220Z" fill="#508692" stroke="#508692" stroke-width="1.51"/><path d="M520,1299L558,1175L458,1219Z" fill="#7598a6" stroke="#7598a6" stroke-width="1.51"/><path d="M458,1219L558,1175L388,1131Z" fill="#7097a4" stroke="#7097a4" stroke-width="1.51"/><path d="M351,176L344,103L184,104Z" fill="#46808b" stroke="#46808b" stroke-width="1.51"/><path d="M391,114L344,103L351,176Z" fill="#4b848e" stroke="#4b848e" stroke-width="1.51"/><path d="M547,196L379,233L412,264Z" fill="#538a95" stroke="#538a95" stroke-width="1.51"/><path d="M81,1420L157,1352L92,1336Z" fill="#5f8d99" stroke="#5f8d99" stroke-width="1.51"/><path d="M92,1336L157,1352L163,1186Z" fill="#5e8c98" stroke="#5e8c98" stroke-width="1.51"/><path d="M76,-34L-17,71L102,111Z" fill="#317881" stroke="#317881" stroke-width="1.51"/><path d="M102,111L-17,71L-1,187Z" fill="#307a84" stroke="#307a84" stroke-width="1.51"/><path d="M76,-34L102,111L184,104Z" fill="#387983" stroke="#387983" stroke-width="1.51"/><path d="M-121,1166L-169,1288L-18,1320Z" fill="#4f838d" stroke="#4f838d" stroke-width="1.51"/><path d="M-170,1070L-169,1288L-121,1166Z" fill="#497e88" stroke="#497e88" stroke-width="1.51"/><path d="M-176,732L-169,1288L-170,1070Z" fill="#447a84" stroke="#447a84" stroke-width="1.51"/><path d="M579,659L547,196L518,437Z" fill="#618d9a" stroke="#618d9a" stroke-width="1.51"/><path d="M494,285L547,196L412,264Z" fill="#568b97" stroke="#568b97" stroke-width="1.51"/><path d="M291,1301L381,1357L458,1219Z" fill="#6e95a2" stroke="#6e95a2" stroke-width="1.51"/><path d="M269,1442L381,1357L291,1301Z" fill="#6c92a0" stroke="#6c92a0" stroke-width="1.51"/><path d="M381,1357L520,1299L458,1219Z" fill="#7397a5" stroke="#7397a5" stroke-width="1.51"/><path d="M-113,15L-148,51L-17,71Z" fill="#287078" stroke="#287078" stroke-width="1.51"/><path d="M-17,71L-148,51L-170,183Z" fill="#287079" stroke="#287079" stroke-width="1.51"/><path d="M344,103L224,-4L184,104Z" fill="#427d87" stroke="#427d87" stroke-width="1.51"/><path d="M273,-39L224,-4L344,103Z" fill="#437c86" stroke="#437c86" stroke-width="1.51"/><path d="M273,-39L344,103L457,-7Z" fill="#48808a" stroke="#48808a" stroke-width="1.51"/><path d="M157,1352L269,1442L291,1301Z" fill="#678f9c" stroke="#678f9c" stroke-width="1.51"/><path d="M-18,1320L81,1420L92,1336Z" fill="#5a8c98" stroke="#5a8c98" stroke-width="1.51"/><path d="M-60,1419L81,1420L-18,1320Z" fill="#588c97" stroke="#588c97" stroke-width="1.51"/><path d="M9,-59L-113,15L-17,71Z" fill="#29737b" stroke="#29737b" stroke-width="1.51"/><path d="M-169,1288L-118,1398L-18,1320Z" fill="#51838e" stroke="#51838e" stroke-width="1.51"/><path d="M-118,1398L-60,1419L-18,1320Z" fill="#548692" stroke="#548692" stroke-width="1.51"/><path d="M224,-4L76,-34L184,104Z" fill="#3b7882" stroke="#3b7882" stroke-width="1.51"/><path d="M579,659L548,85L547,196Z" fill="#5e8d99" stroke="#5e8d99" stroke-width="1.51"/><path d="M547,196L548,85L391,114Z" fill="#558793" stroke="#558793" stroke-width="1.51"/><path d="M381,1357L527,1391L520,1299Z" fill="#7698a6" stroke="#7698a6" stroke-width="1.51"/><path d="M205,1460L269,1442L157,1352Z" fill="#678e9b" stroke="#678e9b" stroke-width="1.51"/><path d="M205,1460L157,1352L81,1420Z" fill="#638d9a" stroke="#638d9a" stroke-width="1.51"/><path d="M457,-7L344,103L391,114Z" fill="#4c838e" stroke="#4c838e" stroke-width="1.51"/><path d="M224,-4L201,-97L76,-34Z" fill="#3a7680" stroke="#3a7680" stroke-width="1.51"/><path d="M161,1564L205,1460L81,1420Z" fill="#658e9a" stroke="#658e9a" stroke-width="1.51"/><path d="M76,-34L9,-59L-17,71Z" fill="#2d767f" stroke="#2d767f" stroke-width="1.51"/><path d="M73,-124L9,-59L76,-34Z" fill="#2f747d" stroke="#2f747d" stroke-width="1.51"/><path d="M548,85L457,-7L391,114Z" fill="#518590" stroke="#518590" stroke-width="1.51"/><path d="M452,1453L527,1391L381,1357Z" fill="#7698a6" stroke="#7698a6" stroke-width="1.51"/><path d="M520,1299L527,1391L558,1175Z" fill="#7899a7" stroke="#7899a7" stroke-width="1.51"/><path d="M452,1453L381,1357L391,1506Z" fill="#7498a5" stroke="#7498a5" stroke-width="1.51"/><path d="M319,-143L201,-97L273,-39Z" fill="#407882" stroke="#407882" stroke-width="1.51"/><path d="M273,-39L201,-97L224,-4Z" fill="#3f7881" stroke="#3f7881" stroke-width="1.51"/><path d="M391,1506L381,1357L269,1442Z" fill="#7095a2" stroke="#7095a2" stroke-width="1.51"/><path d="M457,-7L319,-143L273,-39Z" fill="#467d87" stroke="#467d87" stroke-width="1.51"/><path d="M548,85L511,-18L457,-7Z" fill="#53848f" stroke="#53848f" stroke-width="1.51"/><path d="M73,-124L-61,-101L9,-59Z" fill="#2a737b" stroke="#2a737b" stroke-width="1.51"/><path d="M9,-59L-61,-101L-113,15Z" fill="#287078" stroke="#287078" stroke-width="1.51"/><path d="M-113,15L-151,-101L-148,51Z" fill="#256b73" stroke="#256b73" stroke-width="1.51"/><path d="M201,-97L73,-124L76,-34Z" fill="#35757d" stroke="#35757d" stroke-width="1.51"/><path d="M274,1576L391,1506L269,1442Z" fill="#7094a1" stroke="#7094a1" stroke-width="1.51"/><path d="M-60,1419L1,1532L81,1420Z" fill="#5a8c98" stroke="#5a8c98" stroke-width="1.51"/><path d="M-103,1555L1,1532L-60,1419Z" fill="#598894" stroke="#598894" stroke-width="1.51"/><path d="M452,1453L558,1514L527,1391Z" fill="#7c9aa8" stroke="#7c9aa8" stroke-width="1.51"/><path d="M274,1576L269,1442L205,1460Z" fill="#6c909e" stroke="#6c909e" stroke-width="1.51"/><path d="M73,-124L-151,-101L-61,-101Z" fill="#276f77" stroke="#276f77" stroke-width="1.51"/><path d="M-61,-101L-151,-101L-113,15Z" fill="#256c73" stroke="#256c73" stroke-width="1.51"/><path d="M-148,51L-151,-101L-170,183Z" fill="#256c73" stroke="#256c73" stroke-width="1.51"/><path d="M1,1532L71,1560L81,1420Z" fill="#5f8d99" stroke="#5f8d99" stroke-width="1.51"/><path d="M71,1560L161,1564L81,1420Z" fill="#638e9a" stroke="#638e9a" stroke-width="1.51"/><path d="M461,-136L319,-143L457,-7Z" fill="#4a7f89" stroke="#4a7f89" stroke-width="1.51"/><path d="M201,-97L319,-143L73,-124Z" fill="#3c757d" stroke="#3c757d" stroke-width="1.51"/><path d="M71,1560L274,1576L161,1564Z" fill="#698f9c" stroke="#698f9c" stroke-width="1.51"/><path d="M1,1532L-103,1555L71,1560Z" fill="#5c8c98" stroke="#5c8c98" stroke-width="1.51"/><path d="M-118,1398L-103,1555L-60,1419Z" fill="#558590" stroke="#558590" stroke-width="1.51"/><path d="M-169,1288L-103,1555L-118,1398Z" fill="#52828d" stroke="#52828d" stroke-width="1.51"/><path d="M-103,1555L274,1576L71,1560Z" fill="#638e9a" stroke="#638e9a" stroke-width="1.51"/><path d="M161,1564L274,1576L205,1460Z" fill="#6b8f9d" stroke="#6b8f9d" stroke-width="1.51"/><path d="M511,-18L461,-136L457,-7Z" fill="#4f818c" stroke="#4f818c" stroke-width="1.51"/><path d="M274,1576L558,1514L391,1506Z" fill="#7798a7" stroke="#7798a7" stroke-width="1.51"/><path d="M391,1506L558,1514L452,1453Z" fill="#7a99a8" stroke="#7a99a8" stroke-width="1.51"/><path d="M527,1391L558,1514L558,1175Z" fill="#7b99a8" stroke="#7b99a8" stroke-width="1.51"/><path d="M558,1175L558,1514L566,1052Z" fill="#7999a7" stroke="#7999a7" stroke-width="1.51"/><path d="M566,1052L558,1514L579,659Z" fill="#7497a5" stroke="#7497a5" stroke-width="1.51"/><path d="M511,-18L494,-174L461,-136Z" fill="#4f7f8a" stroke="#4f7f8a" stroke-width="1.51"/><path d="M461,-136L494,-174L319,-143Z" fill="#4a7d86" stroke="#4a7d86" stroke-width="1.51"/><path d="M319,-143L494,-174L73,-124Z" fill="#417881" stroke="#417881" stroke-width="1.51"/><path d="M73,-124L494,-174L-151,-101Z" fill="#36737c" stroke="#36737c" stroke-width="1.51"/><path d="M548,85L494,-174L511,-18Z" fill="#53828d" stroke="#53828d" stroke-width="1.51"/></svg>