<svg xmlns="http://www.w3.org/2000/svg" width="1400" height="150"><path d="M624,145L458,140L482,314Z" fill="#568894" stroke="#568894" stroke-width="1.51"/><path d="M482,314L682,320L624,145Z" fill="#5d8c98" stroke="#5d8c98" stroke-width="1.51"/><path d="M682,320L780,215L624,145Z" fill="#5d8b97" stroke="#5d8b97" stroke-width="1.51"/><path d="M458,140L329,350L482,314Z" fill="#588b97" stroke="#588b97" stroke-width="1.51"/><path d="M482,314L329,350L682,320Z" fill="#608d99" stroke="#608d99" stroke-width="1.51"/><path d="M458,140L308,115L329,350Z" fill="#518893" stroke="#518893" stroke-width="1.51"/><path d="M498,-56L308,115L458,140Z" fill="#49828c" stroke="#49828c" stroke-width="1.51"/><path d="M682,320L786,332L780,215Z" fill="#638e9a" stroke="#638e9a" stroke-width="1.51"/><path d="M329,350L786,332L682,320Z" fill="#638d9a" stroke="#638d9a" stroke-width="1.51"/><path d="M624,145L574,-53L458,140Z" fill="#4e838d" stroke="#4e838d" stroke-width="1.51"/><path d="M726,-5L574,-53L624,145Z" fill="#4d828c" stroke="#4d828c" stroke-width="1.51"/><path d="M574,-53L498,-56L458,140Z" fill="#47818c" stroke="#47818c" stroke-width="1.51"/><path d="M780,215L726,-5L624,145Z" fill="#558590" stroke="#558590" stroke-width="1.51"/><path d="M586,-183L393,-118L498,-56Z" fill="#3a7e87" stroke="#3a7e87" stroke-width="1.51"/><path d="M498,-56L393,-118L308,115Z" fill="#40808a" stroke="#40808a" stroke-width="1.51"/><path d="M586,-183L498,-56L574,-53Z" fill="#3d8089" stroke="#3d8089" stroke-width="1.51"/><path d="M780,215L898,145L726,-5Z" fill="#578792" stroke="#578792" stroke-width="1.51"/><path d="M989,315L898,145L780,215Z" fill="#618e9a" stroke="#618e9a" stroke-width="1.51"/><path d="M766,-188L586,-183L726,-5Z" fill="#417e88" stroke="#417e88" stroke-width="1.51"/><path d="M726,-5L586,-183L574,-53Z" fill="#42808a" stroke="#42808a" stroke-width="1.51"/><path d="M308,115L108,143L329,350Z" fill="#4e8893" stroke="#4e8893" stroke-width="1.51"/><path d="M393,-118L231,-51L308,115Z" fill="#3d808a" stroke="#3d808a" stroke-width="1.51"/><path d="M231,-51L108,143L308,115Z" fill="#43818b" stroke="#43818b" stroke-width="1.51"/><path d="M786,332L989,315L780,215Z" fill="#658f9c" stroke="#658f9c" stroke-width="1.51"/><path d="M961,-3L726,-5L898,145Z" fill="#548590" stroke="#548590" stroke-width="1.51"/><path d="M961,-3L766,-188L726,-5Z" fill="#49838e" stroke="#49838e" stroke-width="1.51"/><path d="M1141,200L961,-3L898,145Z" fill="#5c8a96" stroke="#5c8a96" stroke-width="1.51"/><path d="M108,143L61,295L329,350Z" fill="#518994" stroke="#518994" stroke-width="1.51"/><path d="M108,143L-11,309L61,295Z" fill="#4d8590" stroke="#4d8590" stroke-width="1.51"/><path d="M231,-51L109,-50L108,143Z" fill="#3b7e88" stroke="#3b7e88" stroke-width="1.51"/><path d="M53,-213L109,-50L231,-51Z" fill="#2e7b85" stroke="#2e7b85" stroke-width="1.51"/><path d="M302,-233L231,-51L393,-118Z" fill="#337b84" stroke="#337b84" stroke-width="1.51"/><path d="M586,-183L302,-233L393,-118Z" fill="#357881" stroke="#357881" stroke-width="1.51"/><path d="M766,-188L302,-233L586,-183Z" fill="#38777f" stroke="#38777f" stroke-width="1.51"/><path d="M61,295L-11,309L329,350Z" fill="#558994" stroke="#558994" stroke-width="1.51"/><path d="M-87,114L-11,309L108,143Z" fill="#48818b" stroke="#48818b" stroke-width="1.51"/><path d="M1102,-18L1009,-153L961,-3Z" fill="#4e8792" stroke="#4e8792" stroke-width="1.51"/><path d="M961,-3L1009,-153L766,-188Z" fill="#47838d" stroke="#47838d" stroke-width="1.51"/><path d="M989,315L1141,200L898,145Z" fill="#64909c" stroke="#64909c" stroke-width="1.51"/><path d="M1141,200L1102,-18L961,-3Z" fill="#5a8995" stroke="#5a8995" stroke-width="1.51"/><path d="M989,315L1148,272L1141,200Z" fill="#6993a0" stroke="#6993a0" stroke-width="1.51"/><path d="M109,-50L-55,56L108,143Z" fill="#3e7c86" stroke="#3e7c86" stroke-width="1.51"/><path d="M-112,-213L-55,56L109,-50Z" fill="#307881" stroke="#307881" stroke-width="1.51"/><path d="M-55,56L-87,114L108,143Z" fill="#417c86" stroke="#417c86" stroke-width="1.51"/><path d="M-55,56L-190,56L-87,114Z" fill="#3e7881" stroke="#3e7881" stroke-width="1.51"/><path d="M302,-233L53,-213L231,-51Z" fill="#2c7881" stroke="#2c7881" stroke-width="1.51"/><path d="M1102,-18L1098,-152L1009,-153Z" fill="#4b8691" stroke="#4b8691" stroke-width="1.51"/><path d="M1009,-153L1351,-205L766,-188Z" fill="#477f89" stroke="#477f89" stroke-width="1.51"/><path d="M1353,-68L1098,-152L1102,-18Z" fill="#508994" stroke="#508994" stroke-width="1.51"/><path d="M1141,200L1273,92L1102,-18Z" fill="#5e8c98" stroke="#5e8c98" stroke-width="1.51"/><path d="M1148,272L1273,92L1141,200Z" fill="#66919e" stroke="#66919e" stroke-width="1.51"/><path d="M989,315L1229,384L1148,272Z" fill="#6f95a3" stroke="#6f95a3" stroke-width="1.51"/><path d="M786,332L1229,384L989,315Z" fill="#6d94a1" stroke="#6d94a1" stroke-width="1.51"/><path d="M329,350L1229,384L786,332Z" fill="#69909d" stroke="#69909d" stroke-width="1.51"/><path d="M1400,282L1273,92L1148,272Z" fill="#6a94a1" stroke="#6a94a1" stroke-width="1.51"/><path d="M-246,-119L-190,56L-55,56Z" fill="#35757e" stroke="#35757e" stroke-width="1.51"/><path d="M-87,114L-275,308L-11,309Z" fill="#4a808a" stroke="#4a808a" stroke-width="1.51"/><path d="M53,-213L-112,-213L109,-50Z" fill="#2a737b" stroke="#2a737b" stroke-width="1.51"/><path d="M302,-233L-112,-213L53,-213Z" fill="#277078" stroke="#277078" stroke-width="1.51"/><path d="M-246,-119L-242,110L-190,56Z" fill="#35737c" stroke="#35737c" stroke-width="1.51"/><path d="M-190,56L-242,110L-87,114Z" fill="#3e7780" stroke="#3e7780" stroke-width="1.51"/><path d="M-242,110L-275,308L-87,114Z" fill="#447b84" stroke="#447b84" stroke-width="1.51"/><path d="M-11,309L-275,308L329,350Z" fill="#548691" stroke="#548691" stroke-width="1.51"/><path d="M-242,110L-246,-119L-275,308Z" fill="#3d757e" stroke="#3d757e" stroke-width="1.51"/><path d="M-112,-213L-246,-119L-55,56Z" fill="#2a747d" stroke="#2a747d" stroke-width="1.51"/><path d="M1404,-33L1353,-68L1273,92Z" fill="#5c8c98" stroke="#5c8c98" stroke-width="1.51"/><path d="M1273,92L1353,-68L1102,-18Z" fill="#598b97" stroke="#598b97" stroke-width="1.51"/><path d="M1229,384L1400,282L1148,272Z" fill="#7197a4" stroke="#7197a4" stroke-width="1.51"/><path d="M1467,198L1404,-33L1273,92Z" fill="#648d9a" stroke="#648d9a" stroke-width="1.51"/><path d="M1098,-152L1351,-205L1009,-153Z" fill="#4a828c" stroke="#4a828c" stroke-width="1.51"/><path d="M766,-188L1409,-213L302,-233Z" fill="#407882" stroke="#407882" stroke-width="1.51"/><path d="M1353,-68L1351,-205L1098,-152Z" fill="#4f8691" stroke="#4f8691" stroke-width="1.51"/><path d="M1409,-213L1351,-205L1353,-68Z" fill="#518490" stroke="#518490" stroke-width="1.51"/><path d="M1400,282L1467,198L1273,92Z" fill="#6c93a0" stroke="#6c93a0" stroke-width="1.51"/><path d="M1351,-205L1409,-213L766,-188Z" fill="#49808a" stroke="#49808a" stroke-width="1.51"/><path d="M1404,-33L1409,-213L1353,-68Z" fill="#548a96" stroke="#548a96" stroke-width="1.51"/><path d="M1574,-220L1409,-213L1404,-33Z" fill="#548691" stroke="#548691" stroke-width="1.51"/><path d="M1467,198L1631,22L1404,-33Z" fill="#658e9b" stroke="#658e9b" stroke-width="1.51"/><path d="M1400,282L1599,358L1467,198Z" fill="#7598a6" stroke="#7598a6" stroke-width="1.51"/><path d="M1229,384L1599,358L1400,282Z" fill="#7899a7" stroke="#7899a7" stroke-width="1.51"/><path d="M1599,358L1614,148L1467,198Z" fill="#7397a5" stroke="#7397a5" stroke-width="1.51"/><path d="M1599,358L1631,22L1614,148Z" fill="#7095a2" stroke="#7095a2" stroke-width="1.51"/><path d="M1614,148L1631,22L1467,198Z" fill="#6c919e" stroke="#6c919e" stroke-width="1.51"/><path d="M1409,-213L1574,-220L302,-233Z" fill="#467c86" stroke="#467c86" stroke-width="1.51"/><path d="M1631,22L1574,-220L1404,-33Z" fill="#5b8c99" stroke="#5b8c99" stroke-width="1.51"/></svg>