<svg xmlns="http://www.w3.org/2000/svg" width="1400" height="200"><path d="M687,60L721,-28L686,-31Z" fill="#47818c" stroke="#47818c" stroke-width="1.51"/><path d="M687,60L763,126L721,-28Z" fill="#4e838d" stroke="#4e838d" stroke-width="1.51"/><path d="M686,-31L557,-20L687,60Z" fill="#45818b" stroke="#45818b" stroke-width="1.51"/><path d="M687,60L719,182L763,126Z" fill="#558590" stroke="#558590" stroke-width="1.51"/><path d="M721,-28L725,-148L686,-31Z" fill="#417e87" stroke="#417e87" stroke-width="1.51"/><path d="M686,-31L662,-161L557,-20Z" fill="#3e7d87" stroke="#3e7d87" stroke-width="1.51"/><path d="M872,-104L725,-148L721,-28Z" fill="#417c86" stroke="#417c86" stroke-width="1.51"/><path d="M763,126L861,-20L721,-28Z" fill="#4c838e" stroke="#4c838e" stroke-width="1.51"/><path d="M517,116L634,167L687,60Z" fill="#50848e" stroke="#50848e" stroke-width="1.51"/><path d="M634,167L719,182L687,60Z" fill="#558590" stroke="#558590" stroke-width="1.51"/><path d="M725,-148L662,-161L686,-31Z" fill="#3d7982" stroke="#3d7982" stroke-width="1.51"/><path d="M763,126L851,120L861,-20Z" fill="#538590" stroke="#538590" stroke-width="1.51"/><path d="M869,255L851,120L763,126Z" fill="#5c8a96" stroke="#5c8a96" stroke-width="1.51"/><path d="M861,-20L872,-104L721,-28Z" fill="#45828c" stroke="#45828c" stroke-width="1.51"/><path d="M945,-16L872,-104L861,-20Z" fill="#47848e" stroke="#47848e" stroke-width="1.51"/><path d="M557,-20L517,116L687,60Z" fill="#4a818c" stroke="#4a818c" stroke-width="1.51"/><path d="M851,120L945,-16L861,-20Z" fill="#4f8590" stroke="#4f8590" stroke-width="1.51"/><path d="M557,-20L417,25L517,116Z" fill="#45818b" stroke="#45818b" stroke-width="1.51"/><path d="M662,-161L496,-133L557,-20Z" fill="#397982" stroke="#397982" stroke-width="1.51"/><path d="M634,167L722,295L719,182Z" fill="#5c8a96" stroke="#5c8a96" stroke-width="1.51"/><path d="M517,116L520,206L634,167Z" fill="#538691" stroke="#538691" stroke-width="1.51"/><path d="M458,228L520,206L517,116Z" fill="#528792" stroke="#528792" stroke-width="1.51"/><path d="M719,182L869,255L763,126Z" fill="#5c8a96" stroke="#5c8a96" stroke-width="1.51"/><path d="M604,362L722,295L634,167Z" fill="#608c98" stroke="#608c98" stroke-width="1.51"/><path d="M496,-133L417,25L557,-20Z" fill="#3b7f89" stroke="#3b7f89" stroke-width="1.51"/><path d="M872,-104L964,-104L725,-148Z" fill="#427b85" stroke="#427b85" stroke-width="1.51"/><path d="M725,-148L1167,-142L662,-161Z" fill="#407882" stroke="#407882" stroke-width="1.51"/><path d="M945,-16L964,-104L872,-104Z" fill="#47818c" stroke="#47818c" stroke-width="1.51"/><path d="M417,25L421,103L517,116Z" fill="#48818c" stroke="#48818c" stroke-width="1.51"/><path d="M851,120L999,88L945,-16Z" fill="#548792" stroke="#548792" stroke-width="1.51"/><path d="M722,295L869,255L719,182Z" fill="#618d99" stroke="#618d99" stroke-width="1.51"/><path d="M1094,-27L1069,-128L964,-104Z" fill="#49838d" stroke="#49838d" stroke-width="1.51"/><path d="M1015,242L999,88L851,120Z" fill="#5e8b97" stroke="#5e8b97" stroke-width="1.51"/><path d="M520,206L604,362L634,167Z" fill="#5b8b97" stroke="#5b8b97" stroke-width="1.51"/><path d="M421,103L458,228L517,116Z" fill="#4e8590" stroke="#4e8590" stroke-width="1.51"/><path d="M496,-133L381,-121L417,25Z" fill="#367b85" stroke="#367b85" stroke-width="1.51"/><path d="M417,25L313,90L421,103Z" fill="#44818b" stroke="#44818b" stroke-width="1.51"/><path d="M288,-128L381,-121L496,-133Z" fill="#31767f" stroke="#31767f" stroke-width="1.51"/><path d="M546,351L604,362L520,206Z" fill="#608c99" stroke="#608c99" stroke-width="1.51"/><path d="M722,295L892,348L869,255Z" fill="#68909d" stroke="#68909d" stroke-width="1.51"/><path d="M1094,-27L964,-104L945,-16Z" fill="#4b8690" stroke="#4b8690" stroke-width="1.51"/><path d="M1015,242L1051,106L999,88Z" fill="#5f8c98" stroke="#5f8c98" stroke-width="1.51"/><path d="M458,228L546,351L520,206Z" fill="#5a8b97" stroke="#5a8b97" stroke-width="1.51"/><path d="M869,255L1015,242L851,120Z" fill="#608e9a" stroke="#608e9a" stroke-width="1.51"/><path d="M604,362L892,348L722,295Z" fill="#698f9c" stroke="#698f9c" stroke-width="1.51"/><path d="M892,348L1015,242L869,255Z" fill="#68919e" stroke="#68919e" stroke-width="1.51"/><path d="M421,103L352,207L458,228Z" fill="#508791" stroke="#508791" stroke-width="1.51"/><path d="M458,228L426,328L546,351Z" fill="#5e8c98" stroke="#5e8c98" stroke-width="1.51"/><path d="M280,-42L313,90L417,25Z" fill="#3d808a" stroke="#3d808a" stroke-width="1.51"/><path d="M964,-104L1069,-128L725,-148Z" fill="#447c86" stroke="#447c86" stroke-width="1.51"/><path d="M1094,-27L945,-16L999,88Z" fill="#528893" stroke="#528893" stroke-width="1.51"/><path d="M1051,106L1094,-27L999,88Z" fill="#578994" stroke="#578994" stroke-width="1.51"/><path d="M1161,24L1094,-27L1051,106Z" fill="#578a95" stroke="#578a95" stroke-width="1.51"/><path d="M313,90L352,207L421,103Z" fill="#4a838e" stroke="#4a838e" stroke-width="1.51"/><path d="M352,207L426,328L458,228Z" fill="#578b96" stroke="#578b96" stroke-width="1.51"/><path d="M381,-121L280,-42L417,25Z" fill="#357e88" stroke="#357e88" stroke-width="1.51"/><path d="M381,-121L288,-128L280,-42Z" fill="#307882" stroke="#307882" stroke-width="1.51"/><path d="M662,-161L288,-128L496,-133Z" fill="#34757e" stroke="#34757e" stroke-width="1.51"/><path d="M1015,242L1080,247L1051,106Z" fill="#64919d" stroke="#64919d" stroke-width="1.51"/><path d="M1103,307L1080,247L1015,242Z" fill="#6b94a1" stroke="#6b94a1" stroke-width="1.51"/><path d="M892,348L1001,353L1015,242Z" fill="#6d94a0" stroke="#6d94a0" stroke-width="1.51"/><path d="M604,362L1001,353L892,348Z" fill="#6d919f" stroke="#6d919f" stroke-width="1.51"/><path d="M1094,-27L1167,-142L1069,-128Z" fill="#4b828d" stroke="#4b828d" stroke-width="1.51"/><path d="M1209,132L1161,24L1051,106Z" fill="#5d8c97" stroke="#5d8c97" stroke-width="1.51"/><path d="M352,207L296,317L426,328Z" fill="#588b97" stroke="#588b97" stroke-width="1.51"/><path d="M313,90L203,199L352,207Z" fill="#4a858f" stroke="#4a858f" stroke-width="1.51"/><path d="M280,-42L229,69L313,90Z" fill="#3c8089" stroke="#3c8089" stroke-width="1.51"/><path d="M159,27L229,69L280,-42Z" fill="#387e88" stroke="#387e88" stroke-width="1.51"/><path d="M288,-128L229,-109L280,-42Z" fill="#2d7882" stroke="#2d7882" stroke-width="1.51"/><path d="M1069,-128L1167,-142L725,-148Z" fill="#447c86" stroke="#447c86" stroke-width="1.51"/><path d="M1161,24L1167,-142L1094,-27Z" fill="#4f8894" stroke="#4f8894" stroke-width="1.51"/><path d="M1080,247L1165,236L1051,106Z" fill="#65919e" stroke="#65919e" stroke-width="1.51"/><path d="M1001,353L1103,307L1015,242Z" fill="#6d95a1" stroke="#6d95a1" stroke-width="1.51"/><path d="M203,199L296,317L352,207Z" fill="#508995" stroke="#508995" stroke-width="1.51"/><path d="M426,328L296,317L546,351Z" fill="#5f8d99" stroke="#5f8d99" stroke-width="1.51"/><path d="M546,351L219,315L604,362Z" fill="#618d9a" stroke="#618d9a" stroke-width="1.51"/><path d="M1103,307L1165,236L1080,247Z" fill="#6c95a2" stroke="#6c95a2" stroke-width="1.51"/><path d="M1161,24L1277,-135L1167,-142Z" fill="#4e8590" stroke="#4e8590" stroke-width="1.51"/><path d="M1165,236L1209,132L1051,106Z" fill="#638f9c" stroke="#638f9c" stroke-width="1.51"/><path d="M229,69L203,199L313,90Z" fill="#44828c" stroke="#44828c" stroke-width="1.51"/><path d="M99,62L203,199L229,69Z" fill="#427f89" stroke="#427f89" stroke-width="1.51"/><path d="M229,-109L159,27L280,-42Z" fill="#2f7d87" stroke="#2f7d87" stroke-width="1.51"/><path d="M102,294L219,315L203,199Z" fill="#518793" stroke="#518793" stroke-width="1.51"/><path d="M203,199L219,315L296,317Z" fill="#538a96" stroke="#538a96" stroke-width="1.51"/><path d="M296,317L219,315L546,351Z" fill="#5c8c98" stroke="#5c8c98" stroke-width="1.51"/><path d="M1165,236L1358,222L1209,132Z" fill="#6a93a0" stroke="#6a93a0" stroke-width="1.51"/><path d="M1103,307L1211,321L1165,236Z" fill="#7096a3" stroke="#7096a3" stroke-width="1.51"/><path d="M1001,353L1211,321L1103,307Z" fill="#7296a4" stroke="#7296a4" stroke-width="1.51"/><path d="M1348,7L1277,-135L1161,24Z" fill="#548b96" stroke="#548b96" stroke-width="1.51"/><path d="M1348,7L1161,24L1209,132Z" fill="#5c8b98" stroke="#5c8b98" stroke-width="1.51"/><path d="M159,27L99,62L229,69Z" fill="#3b7d86" stroke="#3b7d86" stroke-width="1.51"/><path d="M50,-34L99,62L159,27Z" fill="#367a83" stroke="#367a83" stroke-width="1.51"/><path d="M229,-109L81,-135L159,27Z" fill="#2c7780" stroke="#2c7780" stroke-width="1.51"/><path d="M288,-128L81,-135L229,-109Z" fill="#2a747c" stroke="#2a747c" stroke-width="1.51"/><path d="M662,-161L81,-135L288,-128Z" fill="#2e747d" stroke="#2e747d" stroke-width="1.51"/><path d="M1355,80L1348,7L1209,132Z" fill="#608c99" stroke="#608c99" stroke-width="1.51"/><path d="M81,-135L50,-34L159,27Z" fill="#2c7881" stroke="#2c7881" stroke-width="1.51"/><path d="M51,184L102,294L203,199Z" fill="#4c848f" stroke="#4c848f" stroke-width="1.51"/><path d="M1358,222L1355,80L1209,132Z" fill="#67909d" stroke="#67909d" stroke-width="1.51"/><path d="M51,184L203,199L99,62Z" fill="#447f89" stroke="#447f89" stroke-width="1.51"/><path d="M2,88L51,184L99,62Z" fill="#407a84" stroke="#407a84" stroke-width="1.51"/><path d="M1211,321L1358,222L1165,236Z" fill="#6f96a3" stroke="#6f96a3" stroke-width="1.51"/><path d="M51,184L-30,297L102,294Z" fill="#4e838e" stroke="#4e838e" stroke-width="1.51"/><path d="M50,-34L2,88L99,62Z" fill="#377982" stroke="#377982" stroke-width="1.51"/><path d="M-49,-42L2,88L50,-34Z" fill="#317780" stroke="#317780" stroke-width="1.51"/><path d="M1211,321L1339,316L1358,222Z" fill="#7497a5" stroke="#7497a5" stroke-width="1.51"/><path d="M1445,321L1339,316L1502,360Z" fill="#7b99a8" stroke="#7b99a8" stroke-width="1.51"/><path d="M81,-135L-27,-81L50,-34Z" fill="#29727b" stroke="#29727b" stroke-width="1.51"/><path d="M1339,316L1405,228L1358,222Z" fill="#7297a5" stroke="#7297a5" stroke-width="1.51"/><path d="M1358,222L1427,143L1355,80Z" fill="#69919e" stroke="#69919e" stroke-width="1.51"/><path d="M1355,80L1445,-43L1348,7Z" fill="#5d8c98" stroke="#5d8c98" stroke-width="1.51"/><path d="M1405,228L1427,143L1358,222Z" fill="#6e95a2" stroke="#6e95a2" stroke-width="1.51"/><path d="M1348,7L1418,-158L1277,-135Z" fill="#538590" stroke="#538590" stroke-width="1.51"/><path d="M1445,-43L1418,-158L1348,7Z" fill="#578995" stroke="#578995" stroke-width="1.51"/><path d="M1277,-135L1418,-158L1167,-142Z" fill="#4e808a" stroke="#4e808a" stroke-width="1.51"/><path d="M1167,-142L1418,-158L662,-161Z" fill="#467c86" stroke="#467c86" stroke-width="1.51"/><path d="M1519,85L1445,-43L1355,80Z" fill="#628d99" stroke="#628d99" stroke-width="1.51"/><path d="M-27,-81L-49,-42L50,-34Z" fill="#2a747d" stroke="#2a747d" stroke-width="1.51"/><path d="M-68,188L-30,297L51,184Z" fill="#49808a" stroke="#49808a" stroke-width="1.51"/><path d="M102,294L-30,297L219,315Z" fill="#538691" stroke="#538691" stroke-width="1.51"/><path d="M219,315L-178,300L604,362Z" fill="#588b96" stroke="#588b96" stroke-width="1.51"/><path d="M-68,188L51,184L2,88Z" fill="#427c85" stroke="#427c85" stroke-width="1.51"/><path d="M-152,67L-68,188L2,88Z" fill="#3e7780" stroke="#3e7780" stroke-width="1.51"/><path d="M1497,226L1519,85L1427,143Z" fill="#6d929f" stroke="#6d929f" stroke-width="1.51"/><path d="M1427,143L1519,85L1355,80Z" fill="#678e9b" stroke="#678e9b" stroke-width="1.51"/><path d="M1339,316L1445,321L1405,228Z" fill="#7798a6" stroke="#7798a6" stroke-width="1.51"/><path d="M1502,360L1339,316L1211,321Z" fill="#7999a8" stroke="#7999a8" stroke-width="1.51"/><path d="M-155,-85L-117,31L-49,-42Z" fill="#2a727b" stroke="#2a727b" stroke-width="1.51"/><path d="M-49,-42L-117,31L2,88Z" fill="#34757e" stroke="#34757e" stroke-width="1.51"/><path d="M1497,226L1427,143L1405,228Z" fill="#7095a2" stroke="#7095a2" stroke-width="1.51"/><path d="M1445,-43L1527,-106L1418,-158Z" fill="#568591" stroke="#568591" stroke-width="1.51"/><path d="M1445,321L1497,226L1405,228Z" fill="#7598a6" stroke="#7598a6" stroke-width="1.51"/><path d="M1534,-47L1527,-106L1445,-43Z" fill="#5a8a96" stroke="#5a8a96" stroke-width="1.51"/><path d="M1519,85L1534,-47L1445,-43Z" fill="#5f8d9a" stroke="#5f8d9a" stroke-width="1.51"/><path d="M-117,31L-152,67L2,88Z" fill="#38757e" stroke="#38757e" stroke-width="1.51"/><path d="M-68,188L-178,300L-30,297Z" fill="#4b7f89" stroke="#4b7f89" stroke-width="1.51"/><path d="M-155,-85L-152,67L-117,31Z" fill="#2f727b" stroke="#2f727b" stroke-width="1.51"/><path d="M-27,-81L-155,-85L-49,-42Z" fill="#277078" stroke="#277078" stroke-width="1.51"/><path d="M81,-135L-155,-85L-27,-81Z" fill="#276f76" stroke="#276f76" stroke-width="1.51"/><path d="M1445,321L1502,360L1497,226Z" fill="#7a99a7" stroke="#7a99a7" stroke-width="1.51"/><path d="M1497,226L1502,360L1519,85Z" fill="#7497a5" stroke="#7497a5" stroke-width="1.51"/><path d="M1519,85L1502,360L1534,-47Z" fill="#6c919e" stroke="#6c919e" stroke-width="1.51"/><path d="M1001,353L1502,360L1211,321Z" fill="#7798a6" stroke="#7798a6" stroke-width="1.51"/><path d="M604,362L1502,360L1001,353Z" fill="#7396a3" stroke="#7396a3" stroke-width="1.51"/><path d="M-152,67L-174,199L-68,188Z" fill="#407881" stroke="#407881" stroke-width="1.51"/><path d="M-155,-85L-174,199L-152,67Z" fill="#36737b" stroke="#36737b" stroke-width="1.51"/><path d="M-174,199L-178,300L-68,188Z" fill="#477c86" stroke="#477c86" stroke-width="1.51"/><path d="M-30,297L-178,300L219,315Z" fill="#52838e" stroke="#52838e" stroke-width="1.51"/></svg>