<?xml version="1.0" encoding="UTF-8" standalone="no"?>
<svg
   xmlns:dc="http://purl.org/dc/elements/1.1/"
   xmlns:cc="http://creativecommons.org/ns#"
   xmlns:rdf="http://www.w3.org/1999/02/22-rdf-syntax-ns#"
   xmlns:svg="http://www.w3.org/2000/svg"
   xmlns="http://www.w3.org/2000/svg"
   xmlns:sodipodi="http://sodipodi.sourceforge.net/DTD/sodipodi-0.dtd"
   xmlns:inkscape="http://www.inkscape.org/namespaces/inkscape"
   width="425.197px"
   height="284.598px"
   viewBox="0 0 425.197 284.598"
   version="1.2"
   id="svg2"
   inkscape:version="0.91 r13725"
   sodipodi:docname="notes-layered.svg"
   inkscape:export-filename="/Users/jacob/git/mrjacobbloom.github.io/after_effects_stuff/music/notes_layers/notes-02b.png"
   inkscape:export-xdpi="338.66656"
   inkscape:export-ydpi="338.66656">
  <metadata
     id="metadata146">
    <rdf:RDF>
      <cc:Work
         rdf:about="">
        <dc:format>image/svg+xml</dc:format>
        <dc:type
           rdf:resource="http://purl.org/dc/dcmitype/StillImage" />
        <dc:title>MUSIC</dc:title>
      </cc:Work>
    </rdf:RDF>
  </metadata>
  <defs
     id="defs144" />
  <sodipodi:namedview
     pagecolor="#ffffff"
     bordercolor="#666666"
     borderopacity="1"
     objecttolerance="10"
     gridtolerance="10"
     guidetolerance="10"
     inkscape:pageopacity="0"
     inkscape:pageshadow="2"
     inkscape:window-width="1280"
     inkscape:window-height="644"
     id="namedview142"
     showgrid="false"
     inkscape:zoom="1.4581477"
     inkscape:cx="203.14523"
     inkscape:cy="147.00559"
     inkscape:window-x="0"
     inkscape:window-y="0"
     inkscape:window-maximized="0"
     inkscape:current-layer="layer2" />
  <title
     id="title4">MUSIC</title>
  <desc
     id="desc6">Generated by MuseScore 2.3.2</desc>
  <g
     inkscape:groupmode="layer"
     id="layer1"
     inkscape:label="Layer 1"
     style="display:none">
    <polyline
       style="fill:none;stroke:#1f6268;stroke-width:0.64999998;stroke-linecap:round;stroke-linejoin:bevel"
       class="Stem"
       points="66.7623,203.593 66.7623,188.11"
       id="polyline46" />
    <path
       style="fill:#1f6268"
       class="Note"
       d="m 66.4518,203.052 c 0,-0.221 -0.0847,-0.41 -0.2539,-0.566 -0.1693,-0.169 -0.3646,-0.254 -0.586,-0.254 -0.3906,0 -1.1784,0.391 -2.3633,1.172 -1.2239,0.794 -1.9726,1.361 -2.2461,1.699 -0.1432,0.182 -0.2148,0.371 -0.2148,0.567 0,0.221 0.0846,0.41 0.2539,0.566 0.1563,0.169 0.3516,0.254 0.5859,0.254 0.3776,0 1.1719,-0.391 2.3829,-1.172 1.1979,-0.781 1.9401,-1.348 2.2265,-1.699 0.1432,-0.17 0.2149,-0.358 0.2149,-0.567 m -1.0352,-1.445 c 1.1198,0 1.6797,0.482 1.6797,1.445 0,0.469 -0.1367,1.016 -0.4102,1.641 -0.2734,0.612 -0.638,1.081 -1.0937,1.406 -1.0026,0.677 -2.2591,1.016 -3.7695,1.016 -1.1198,0 -1.6797,-0.482 -1.6797,-1.445 0,-0.43 0.1367,-0.971 0.4101,-1.622 0.2604,-0.625 0.625,-1.1 1.0938,-1.425 1.0026,-0.677 2.2591,-1.016 3.7695,-1.016"
       id="path88"
       inkscape:connector-curvature="0" />
    <path
       style="fill:#1f6268"
       class="Rest"
       d="m 60.2065,140.295 c 0,-0.235 0.1302,-0.495 0.3906,-0.782 0.1953,-0.208 0.4818,-0.455 0.8594,-0.742 0.2864,-0.195 0.5664,-0.488 0.8398,-0.879 0.2604,-0.377 0.3906,-0.788 0.3906,-1.23 0,-0.521 -0.1692,-0.983 -0.5078,-1.387 l -0.7031,-0.84 c -0.0521,-0.052 -0.0781,-0.117 -0.0781,-0.195 0,-0.078 0.039,-0.15 0.1172,-0.215 0.0911,-0.065 0.1692,-0.098 0.2343,-0.098 0.0912,0 0.1628,0.039 0.2149,0.118 l 3.0273,3.593 c 0.1302,0.17 0.1953,0.339 0.1953,0.508 0,0.234 -0.1302,0.495 -0.3906,0.781 -0.1693,0.183 -0.4492,0.43 -0.8398,0.743 -0.2995,0.182 -0.586,0.475 -0.8594,0.878 -0.2604,0.378 -0.3906,0.788 -0.3906,1.231 0,0.547 0.1562,1.009 0.4687,1.387 l 1.6797,1.972 c 0.0391,0.039 0.0716,0.104 0.0977,0.196 0,0.091 -0.0326,0.169 -0.0977,0.234 -0.0912,0.065 -0.1693,0.098 -0.2344,0.098 -0.026,0 -0.1302,-0.072 -0.3125,-0.215 -0.1953,-0.156 -0.4557,-0.306 -0.7812,-0.449 -0.3646,-0.144 -0.7227,-0.215 -1.0742,-0.215 -0.3256,0 -0.5925,0.091 -0.8008,0.273 -0.1823,0.182 -0.2735,0.534 -0.2735,1.055 0,0.794 0.1888,1.419 0.5664,1.875 0.0391,0.052 0.0456,0.117 0.0196,0.195 -0.0261,0.052 -0.0716,0.078 -0.1367,0.078 -0.0912,0 -0.293,-0.234 -0.6055,-0.703 -0.3255,-0.495 -0.6315,-1.061 -0.918,-1.699 -0.2995,-0.677 -0.4492,-1.237 -0.4492,-1.68 0,-0.56 0.2669,-0.84 0.8008,-0.84 0.612,0 1.4062,0.209 2.3828,0.625 l -2.6367,-3.164 c -0.1302,-0.169 -0.1953,-0.338 -0.1953,-0.507"
       id="path98"
       inkscape:connector-curvature="0" />
    <path
       style="fill:#1f6268"
       class="Rest"
       d="m 60.2065,80.2907 c 0,-0.2343 0.1302,-0.4948 0.3906,-0.7812 0.1953,-0.2084 0.4818,-0.4558 0.8594,-0.7422 0.2864,-0.1953 0.5664,-0.4883 0.8398,-0.8789 0.2604,-0.3776 0.3906,-0.7878 0.3906,-1.2305 0,-0.5208 -0.1692,-0.9831 -0.5078,-1.3867 L 61.476,74.4314 c -0.0521,-0.0521 -0.0781,-0.1172 -0.0781,-0.1954 0,-0.0781 0.039,-0.1497 0.1172,-0.2148 0.0911,-0.0651 0.1692,-0.0977 0.2343,-0.0977 0.0912,0 0.1628,0.0391 0.2149,0.1172 l 3.0273,3.5938 c 0.1302,0.1692 0.1953,0.3385 0.1953,0.5078 0,0.2344 -0.1302,0.4948 -0.3906,0.7812 -0.1693,0.1823 -0.4492,0.4297 -0.8398,0.7422 -0.2995,0.1823 -0.586,0.4753 -0.8594,0.8789 -0.2604,0.3776 -0.3906,0.7878 -0.3906,1.2305 0,0.5469 0.1562,1.0091 0.4687,1.3867 l 1.6797,1.9727 c 0.0391,0.039 0.0716,0.1041 0.0977,0.1953 0,0.0911 -0.0326,0.1693 -0.0977,0.2344 -0.0912,0.0651 -0.1693,0.0976 -0.2344,0.0976 -0.026,0 -0.1302,-0.0716 -0.3125,-0.2148 -0.1953,-0.1563 -0.4557,-0.306 -0.7812,-0.4492 -0.3646,-0.1433 -0.7227,-0.2149 -1.0742,-0.2149 -0.3256,0 -0.5925,0.0912 -0.8008,0.2735 -0.1823,0.1822 -0.2735,0.5338 -0.2735,1.0546 0,0.7943 0.1888,1.4193 0.5664,1.875 0.0391,0.0521 0.0456,0.1172 0.0196,0.1954 -0.0261,0.052 -0.0716,0.0781 -0.1367,0.0781 -0.0912,0 -0.293,-0.2344 -0.6055,-0.7031 -0.3255,-0.4948 -0.6315,-1.0612 -0.918,-1.6993 -0.2995,-0.677 -0.4492,-1.2369 -0.4492,-1.6797 0,-0.5598 0.2669,-0.8398 0.8008,-0.8398 0.612,0 1.4062,0.2083 2.3828,0.625 L 60.4018,80.7985 C 60.2716,80.6293 60.2065,80.46 60.2065,80.2907"
       id="path100"
       inkscape:connector-curvature="0" />
    <path
       style="fill:#1f6268"
       class="Lyrics"
       d="m 55.7346,224.372 0,3.366 c 0.11,-0.272 0.308,-0.495 0.594,-0.671 0.286,-0.176 0.5977,-0.264 0.935,-0.264 0.55,0 1.0102,0.229 1.3805,0.687 0.3704,0.459 0.5555,1.025 0.5555,1.7 0,0.784 -0.2475,1.444 -0.7425,1.98 -0.495,0.535 -1.1055,0.803 -1.8315,0.803 -0.44,0 -0.8525,-0.075 -1.2375,-0.226 -0.385,-0.15 -0.5775,-0.31 -0.5775,-0.478 l 0,-5.709 c 0,-0.228 -0.0348,-0.378 -0.1045,-0.451 -0.0696,-0.074 -0.2145,-0.11 -0.4345,-0.11 -0.0806,0 -0.143,0.003 -0.187,0.011 l 0,-0.176 c 0.5647,-0.14 1.0964,-0.301 1.595,-0.484 l 0.055,0.022 m 0,3.949 0,2.772 c 0,0.139 0.1064,0.262 0.319,0.368 0.2127,0.107 0.462,0.16 0.748,0.16 0.4547,0 0.8067,-0.169 1.056,-0.506 0.2494,-0.338 0.374,-0.811 0.374,-1.419 0,-0.668 -0.1265,-1.201 -0.3795,-1.601 -0.253,-0.399 -0.5958,-0.599 -1.0285,-0.599 -0.286,0 -0.539,0.084 -0.759,0.253 -0.22,0.168 -0.33,0.359 -0.33,0.572 m 4.807,0.495 c 0.0147,0.462 0.077,0.86 0.187,1.193 0.11,0.334 0.253,0.583 0.429,0.748 0.176,0.165 0.3539,0.283 0.5335,0.352 0.1797,0.07 0.3685,0.105 0.5665,0.105 0.352,0 0.6582,-0.088 0.9185,-0.264 0.2604,-0.176 0.5225,-0.473 0.7865,-0.891 l 0.176,0.077 c -0.2273,0.594 -0.5426,1.048 -0.946,1.364 -0.4033,0.315 -0.8653,0.473 -1.386,0.473 -0.6306,0 -1.1311,-0.222 -1.5015,-0.666 -0.3703,-0.443 -0.5555,-1.043 -0.5555,-1.798 0,-0.814 0.2145,-1.469 0.6435,-1.964 0.429,-0.495 0.9809,-0.742 1.6555,-0.742 0.5574,0 0.99,0.167 1.298,0.5 0.308,0.334 0.5024,0.838 0.583,1.513 l -3.388,0 m 0.022,-0.352 2.244,0 c -0.0733,-0.477 -0.187,-0.807 -0.341,-0.99 -0.154,-0.184 -0.3996,-0.275 -0.737,-0.275 -0.66,0 -1.0486,0.421 -1.166,1.265 m 4.853,0.352 c 0.0147,0.462 0.077,0.86 0.187,1.193 0.11,0.334 0.253,0.583 0.429,0.748 0.176,0.165 0.3539,0.283 0.5335,0.352 0.1797,0.07 0.3685,0.105 0.5665,0.105 0.352,0 0.6582,-0.088 0.9185,-0.264 0.2604,-0.176 0.5225,-0.473 0.7865,-0.891 l 0.176,0.077 c -0.2273,0.594 -0.5426,1.048 -0.946,1.364 -0.4033,0.315 -0.8653,0.473 -1.386,0.473 -0.6306,0 -1.1311,-0.222 -1.5015,-0.666 -0.3703,-0.443 -0.5555,-1.043 -0.5555,-1.798 0,-0.814 0.2145,-1.469 0.6435,-1.964 0.429,-0.495 0.9809,-0.742 1.6555,-0.742 0.5574,0 0.99,0.167 1.298,0.5 0.308,0.334 0.5024,0.838 0.583,1.513 l -3.388,0 m 0.022,-0.352 2.244,0 c -0.0733,-0.477 -0.187,-0.807 -0.341,-0.99 -0.154,-0.184 -0.3996,-0.275 -0.737,-0.275 -0.66,0 -1.0486,0.421 -1.166,1.265 m 6.734,-1.441 c 0.0074,0 0.066,-0.037 0.176,-0.11 l 0.121,0 0.044,1.496 -0.165,0 c -0.1246,-0.492 -0.2786,-0.84 -0.462,-1.045 -0.1833,-0.206 -0.4326,-0.308 -0.748,-0.308 -0.2493,0 -0.4528,0.069 -0.6105,0.209 -0.1576,0.139 -0.2365,0.319 -0.2365,0.539 0,0.315 0.1577,0.564 0.473,0.748 l 1.188,0.704 c 0.33,0.198 0.5665,0.398 0.7095,0.599 0.143,0.202 0.2145,0.438 0.2145,0.71 0,0.381 -0.1521,0.711 -0.4565,0.99 -0.3043,0.278 -0.6691,0.418 -1.0945,0.418 -0.1833,0 -0.429,-0.033 -0.737,-0.099 -0.308,-0.066 -0.4986,-0.099 -0.572,-0.099 -0.11,0 -0.1943,0.044 -0.253,0.132 l -0.143,0 0,-1.716 0.176,0 c 0.1174,0.513 0.2567,0.876 0.418,1.089 0.2347,0.3 0.561,0.451 0.979,0.451 0.2787,0 0.5005,-0.072 0.6655,-0.215 0.165,-0.143 0.2475,-0.335 0.2475,-0.577 0,-0.33 -0.1906,-0.605 -0.572,-0.825 l -0.638,-0.363 c -0.4693,-0.264 -0.8011,-0.517 -0.9955,-0.759 -0.1943,-0.242 -0.2915,-0.517 -0.2915,-0.825 0,-0.396 0.1412,-0.721 0.4235,-0.974 0.2824,-0.253 0.6399,-0.379 1.0725,-0.379 0.242,0 0.4694,0.035 0.682,0.104 0.2127,0.07 0.341,0.105 0.385,0.105"
       id="path140"
       inkscape:connector-curvature="0" />
  </g>
  <g
     inkscape:groupmode="layer"
     id="layer2"
     inkscape:label="Layer 2"
     style="display:none">
    <polyline
       style="fill:none;stroke:#1f6268;stroke-width:0.64999998;stroke-linecap:round;stroke-linejoin:bevel"
       class="Stem"
       points="105.694,150.919 105.694,129.981"
       id="polyline42" />
    <polyline
       style="fill:none;stroke:#1f6268;stroke-width:0.64999998;stroke-linecap:round;stroke-linejoin:bevel"
       class="Stem"
       points="99.7604,75.2919 99.7604,88.1036"
       id="polyline44" />
    <path
       style="fill:#1f6268"
       class="Note"
       d="m 103.83,144.103 c 0.625,0 1.152,0.163 1.582,0.489 0.404,0.351 0.605,0.794 0.605,1.328 0,0.898 -0.462,1.738 -1.386,2.519 -0.938,0.782 -1.94,1.172 -3.008,1.172 -0.625,0 -1.153,-0.163 -1.582,-0.488 -0.4038,-0.352 -0.6057,-0.794 -0.6057,-1.328 0,-0.899 0.4688,-1.738 1.4067,-2.52 0.911,-0.781 1.907,-1.172 2.988,-1.172"
       id="path82"
       inkscape:connector-curvature="0" />
    <path
       style="fill:#1f6268"
       class="Note"
       d="m 103.83,149.104 c 0.625,0 1.152,0.162 1.582,0.488 0.404,0.352 0.605,0.794 0.605,1.328 0,0.899 -0.462,1.738 -1.386,2.52 -0.938,0.781 -1.94,1.172 -3.008,1.172 -0.625,0 -1.153,-0.163 -1.582,-0.489 -0.4038,-0.351 -0.6057,-0.794 -0.6057,-1.328 0,-0.898 0.4688,-1.738 1.4067,-2.519 0.911,-0.782 1.907,-1.172 2.988,-1.172"
       id="path84"
       inkscape:connector-curvature="0" />
    <path
       style="fill:#1f6268"
       class="Note"
       d="m 103.83,71.5988 c 0.625,0 1.152,0.1628 1.582,0.4883 0.404,0.3516 0.605,0.7943 0.605,1.3282 0,0.8984 -0.462,1.7382 -1.386,2.5195 -0.938,0.7812 -1.94,1.1719 -3.008,1.1719 -0.625,0 -1.153,-0.1628 -1.582,-0.4883 -0.4038,-0.3516 -0.6057,-0.7943 -0.6057,-1.3281 0,-0.8985 0.4688,-1.7383 1.4067,-2.5196 0.911,-0.7812 1.907,-1.1719 2.988,-1.1719"
       id="path86"
       inkscape:connector-curvature="0" />
    <path
       style="fill:#1f6268"
       class="Lyrics"
       d="m 94.8463,164.368 0,3.366 c 0.11,-0.271 0.308,-0.495 0.594,-0.671 0.286,-0.176 0.5977,-0.264 0.935,-0.264 0.55,0 1.0102,0.229 1.3805,0.687 0.3704,0.459 0.5555,1.025 0.5555,1.7 0,0.785 -0.2475,1.445 -0.7425,1.98 -0.495,0.535 -1.1055,0.803 -1.8315,0.803 -0.44,0 -0.8525,-0.075 -1.2375,-0.226 -0.385,-0.15 -0.5775,-0.309 -0.5775,-0.478 l 0,-5.709 c 0,-0.227 -0.0348,-0.378 -0.1045,-0.451 -0.0696,-0.073 -0.2145,-0.11 -0.4345,-0.11 -0.0806,0 -0.143,0.004 -0.187,0.011 l 0,-0.176 c 0.5647,-0.139 1.0964,-0.301 1.595,-0.484 l 0.055,0.022 m 0,3.949 0,2.772 c 0,0.139 0.1064,0.262 0.319,0.368 0.2127,0.107 0.462,0.16 0.748,0.16 0.4547,0 0.8067,-0.169 1.056,-0.506 0.2494,-0.337 0.374,-0.81 0.374,-1.419 0,-0.667 -0.1265,-1.201 -0.3795,-1.601 -0.253,-0.399 -0.5958,-0.599 -1.0285,-0.599 -0.286,0 -0.539,0.084 -0.759,0.253 -0.22,0.169 -0.33,0.359 -0.33,0.572 m 4.807,0.495 c 0.0147,0.462 0.077,0.86 0.187,1.193 0.11,0.334 0.2527,0.583 0.4287,0.748 0.176,0.165 0.354,0.283 0.534,0.352 0.179,0.07 0.368,0.105 0.566,0.105 0.352,0 0.658,-0.088 0.919,-0.264 0.26,-0.176 0.522,-0.473 0.786,-0.891 l 0.176,0.077 c -0.227,0.594 -0.542,1.049 -0.946,1.364 -0.403,0.315 -0.865,0.473 -1.386,0.473 -0.63,0 -1.1308,-0.222 -1.5012,-0.666 -0.3703,-0.443 -0.5555,-1.043 -0.5555,-1.798 0,-0.814 0.2145,-1.469 0.6435,-1.964 0.429,-0.495 0.9812,-0.742 1.6552,-0.742 0.558,0 0.99,0.167 1.298,0.5 0.308,0.334 0.503,0.838 0.583,1.513 l -3.3877,0 m 0.022,-0.352 2.2437,0 c -0.073,-0.477 -0.187,-0.807 -0.341,-0.99 -0.154,-0.183 -0.399,-0.275 -0.737,-0.275 -0.66,0 -1.0483,0.422 -1.1657,1.265 m 4.8527,0.352 c 0.015,0.462 0.077,0.86 0.187,1.193 0.11,0.334 0.253,0.583 0.429,0.748 0.176,0.165 0.354,0.283 0.534,0.352 0.179,0.07 0.368,0.105 0.566,0.105 0.352,0 0.658,-0.088 0.919,-0.264 0.26,-0.176 0.522,-0.473 0.786,-0.891 l 0.176,0.077 c -0.227,0.594 -0.542,1.049 -0.946,1.364 -0.403,0.315 -0.865,0.473 -1.386,0.473 -0.63,0 -1.131,-0.222 -1.501,-0.666 -0.371,-0.443 -0.556,-1.043 -0.556,-1.798 0,-0.814 0.215,-1.469 0.644,-1.964 0.429,-0.495 0.981,-0.742 1.655,-0.742 0.558,0 0.99,0.167 1.298,0.5 0.308,0.334 0.503,0.838 0.583,1.513 l -3.388,0 m 0.022,-0.352 2.244,0 c -0.073,-0.477 -0.187,-0.807 -0.341,-0.99 -0.154,-0.183 -0.399,-0.275 -0.737,-0.275 -0.66,0 -1.048,0.422 -1.166,1.265 m 6.734,-1.441 c 0.008,0 0.066,-0.037 0.176,-0.11 l 0.121,0 0.044,1.496 -0.165,0 c -0.124,-0.491 -0.278,-0.84 -0.462,-1.045 -0.183,-0.205 -0.432,-0.308 -0.748,-0.308 -0.249,0 -0.453,0.07 -0.61,0.209 -0.158,0.139 -0.237,0.319 -0.237,0.539 0,0.315 0.158,0.565 0.473,0.748 l 1.188,0.704 c 0.33,0.198 0.567,0.398 0.71,0.599 0.143,0.202 0.214,0.439 0.214,0.71 0,0.381 -0.152,0.711 -0.456,0.99 -0.305,0.279 -0.669,0.418 -1.095,0.418 -0.183,0 -0.429,-0.033 -0.737,-0.099 -0.308,-0.066 -0.498,-0.099 -0.572,-0.099 -0.11,0 -0.194,0.044 -0.253,0.132 l -0.143,0 0,-1.716 0.176,0 c 0.118,0.513 0.257,0.876 0.418,1.089 0.235,0.301 0.561,0.451 0.979,0.451 0.279,0 0.501,-0.072 0.666,-0.215 0.165,-0.143 0.247,-0.335 0.247,-0.577 0,-0.33 -0.19,-0.605 -0.572,-0.825 l -0.638,-0.363 c -0.469,-0.264 -0.801,-0.517 -0.995,-0.759 -0.195,-0.242 -0.292,-0.517 -0.292,-0.825 0,-0.396 0.141,-0.721 0.424,-0.974 0.282,-0.253 0.64,-0.379 1.072,-0.379 0.242,0 0.47,0.035 0.682,0.104 0.213,0.07 0.341,0.105 0.385,0.105"
       id="path136"
       inkscape:connector-curvature="0" />
    <path
       style="fill:#1f6268"
       class="Lyrics"
       d="m 94.8463,104.364 0,3.366 c 0.11,-0.271 0.308,-0.495 0.594,-0.671 0.286,-0.176 0.5977,-0.264 0.935,-0.264 0.55,0 1.0102,0.229 1.3805,0.688 0.3704,0.458 0.5555,1.024 0.5555,1.699 0,0.785 -0.2475,1.445 -0.7425,1.98 -0.495,0.535 -1.1055,0.803 -1.8315,0.803 -0.44,0 -0.8525,-0.075 -1.2375,-0.225 -0.385,-0.151 -0.5775,-0.31 -0.5775,-0.479 l 0,-5.709 c 0,-0.227 -0.0348,-0.378 -0.1045,-0.451 -0.0696,-0.073 -0.2145,-0.11 -0.4345,-0.11 -0.0806,0 -0.143,0.004 -0.187,0.011 l 0,-0.176 c 0.5647,-0.139 1.0964,-0.301 1.595,-0.484 l 0.055,0.022 m 0,3.949 0,2.772 c 0,0.139 0.1064,0.262 0.319,0.369 0.2127,0.106 0.462,0.159 0.748,0.159 0.4547,0 0.8067,-0.169 1.056,-0.506 0.2494,-0.337 0.374,-0.81 0.374,-1.419 0,-0.667 -0.1265,-1.201 -0.3795,-1.6 -0.253,-0.4 -0.5958,-0.6 -1.0285,-0.6 -0.286,0 -0.539,0.084 -0.759,0.253 -0.22,0.169 -0.33,0.359 -0.33,0.572 m 4.807,0.495 c 0.0147,0.462 0.077,0.86 0.187,1.194 0.11,0.333 0.2527,0.583 0.4287,0.748 0.176,0.165 0.354,0.282 0.534,0.352 0.179,0.069 0.368,0.104 0.566,0.104 0.352,0 0.658,-0.088 0.919,-0.264 0.26,-0.176 0.522,-0.473 0.786,-0.891 l 0.176,0.077 c -0.227,0.594 -0.542,1.049 -0.946,1.364 -0.403,0.315 -0.865,0.473 -1.386,0.473 -0.63,0 -1.1308,-0.222 -1.5012,-0.665 -0.3703,-0.444 -0.5555,-1.044 -0.5555,-1.799 0,-0.814 0.2145,-1.468 0.6435,-1.963 0.429,-0.495 0.9812,-0.743 1.6552,-0.743 0.558,0 0.99,0.167 1.298,0.501 0.308,0.333 0.503,0.837 0.583,1.512 l -3.3877,0 m 0.022,-0.352 2.2437,0 c -0.073,-0.477 -0.187,-0.807 -0.341,-0.99 -0.154,-0.183 -0.399,-0.275 -0.737,-0.275 -0.66,0 -1.0483,0.422 -1.1657,1.265 m 4.8527,0.352 c 0.015,0.462 0.077,0.86 0.187,1.194 0.11,0.333 0.253,0.583 0.429,0.748 0.176,0.165 0.354,0.282 0.534,0.352 0.179,0.069 0.368,0.104 0.566,0.104 0.352,0 0.658,-0.088 0.919,-0.264 0.26,-0.176 0.522,-0.473 0.786,-0.891 l 0.176,0.077 c -0.227,0.594 -0.542,1.049 -0.946,1.364 -0.403,0.315 -0.865,0.473 -1.386,0.473 -0.63,0 -1.131,-0.222 -1.501,-0.665 -0.371,-0.444 -0.556,-1.044 -0.556,-1.799 0,-0.814 0.215,-1.468 0.644,-1.963 0.429,-0.495 0.981,-0.743 1.655,-0.743 0.558,0 0.99,0.167 1.298,0.501 0.308,0.333 0.503,0.837 0.583,1.512 l -3.388,0 m 0.022,-0.352 2.244,0 c -0.073,-0.477 -0.187,-0.807 -0.341,-0.99 -0.154,-0.183 -0.399,-0.275 -0.737,-0.275 -0.66,0 -1.048,0.422 -1.166,1.265 m 6.734,-1.441 c 0.008,0 0.066,-0.037 0.176,-0.11 l 0.121,0 0.044,1.496 -0.165,0 c -0.124,-0.491 -0.278,-0.84 -0.462,-1.045 -0.183,-0.205 -0.432,-0.308 -0.748,-0.308 -0.249,0 -0.453,0.07 -0.61,0.209 -0.158,0.139 -0.237,0.319 -0.237,0.539 0,0.315 0.158,0.565 0.473,0.748 l 1.188,0.704 c 0.33,0.198 0.567,0.398 0.71,0.6 0.143,0.201 0.214,0.438 0.214,0.709 0,0.381 -0.152,0.711 -0.456,0.99 -0.305,0.279 -0.669,0.418 -1.095,0.418 -0.183,0 -0.429,-0.033 -0.737,-0.099 -0.308,-0.066 -0.498,-0.099 -0.572,-0.099 -0.11,0 -0.194,0.044 -0.253,0.132 l -0.143,0 0,-1.716 0.176,0 c 0.118,0.513 0.257,0.876 0.418,1.089 0.235,0.301 0.561,0.451 0.979,0.451 0.279,0 0.501,-0.071 0.666,-0.214 0.165,-0.143 0.247,-0.336 0.247,-0.578 0,-0.33 -0.19,-0.605 -0.572,-0.825 l -0.638,-0.363 c -0.469,-0.264 -0.801,-0.517 -0.995,-0.759 -0.195,-0.242 -0.292,-0.517 -0.292,-0.825 0,-0.396 0.141,-0.72 0.424,-0.973 0.282,-0.253 0.64,-0.38 1.072,-0.38 0.242,0 0.47,0.035 0.682,0.105 0.213,0.069 0.341,0.104 0.385,0.104"
       id="path138"
       inkscape:connector-curvature="0" />
  </g>
  <g
     inkscape:groupmode="layer"
     id="layer13"
     inkscape:label="Layer 2b"
     style="display:inline">
    <path
       style="display:inline;fill:#1f6268;fill-rule:evenodd"
       class="Beam"
       d="m 99.4353,86.8535 25.0947,-2.5666 0,2.5002 -25.0947,2.5666 0,-2.5002"
       id="path104"
       inkscape:connector-curvature="0" />
  </g>
  <g
     inkscape:groupmode="layer"
     id="layer3"
     inkscape:label="Layer 3"
     style="display:none">
    <polyline
       style="display:inline;fill:none;stroke:#1f6268;stroke-width:0.64999998;stroke-linecap:round;stroke-linejoin:bevel"
       class="Stem"
       points="124.205,70.2916 124.205,85.6035"
       id="polyline40" />
    <path
       style="display:inline;fill:#1f6268"
       class="Note"
       d="m 128.275,66.5985 c 0.625,0 1.152,0.1628 1.582,0.4883 0.403,0.3516 0.605,0.7943 0.605,1.3281 0,0.8985 -0.462,1.7383 -1.387,2.5196 -0.937,0.7812 -1.94,1.1718 -3.007,1.1718 -0.625,0 -1.153,-0.1627 -1.582,-0.4882 -0.404,-0.3516 -0.606,-0.7943 -0.606,-1.3282 0,-0.8984 0.469,-1.7382 1.406,-2.5195 0.912,-0.7812 1.908,-1.1719 2.989,-1.1719"
       id="path80"
       inkscape:connector-curvature="0" />
    <path
       style="display:inline;fill:#1f6268"
       class="Lyrics"
       d="m 119.291,104.364 0,3.366 c 0.11,-0.271 0.308,-0.495 0.594,-0.671 0.286,-0.176 0.598,-0.264 0.935,-0.264 0.55,0 1.01,0.229 1.381,0.688 0.37,0.458 0.555,1.024 0.555,1.699 0,0.785 -0.247,1.445 -0.742,1.98 -0.495,0.535 -1.106,0.803 -1.832,0.803 -0.44,0 -0.852,-0.075 -1.237,-0.225 -0.385,-0.151 -0.578,-0.31 -0.578,-0.479 l 0,-5.709 c 0,-0.227 -0.035,-0.378 -0.104,-0.451 -0.07,-0.073 -0.215,-0.11 -0.435,-0.11 -0.081,0 -0.143,0.004 -0.187,0.011 l 0,-0.176 c 0.565,-0.139 1.096,-0.301 1.595,-0.484 l 0.055,0.022 m 0,3.949 0,2.772 c 0,0.139 0.106,0.262 0.319,0.369 0.213,0.106 0.462,0.159 0.748,0.159 0.455,0 0.807,-0.169 1.056,-0.506 0.249,-0.337 0.374,-0.81 0.374,-1.419 0,-0.667 -0.126,-1.201 -0.379,-1.6 -0.253,-0.4 -0.596,-0.6 -1.029,-0.6 -0.286,0 -0.539,0.084 -0.759,0.253 -0.22,0.169 -0.33,0.359 -0.33,0.572 m 4.807,0.495 c 0.015,0.462 0.077,0.86 0.187,1.194 0.11,0.333 0.253,0.583 0.429,0.748 0.176,0.165 0.354,0.282 0.534,0.352 0.179,0.069 0.368,0.104 0.566,0.104 0.352,0 0.658,-0.088 0.919,-0.264 0.26,-0.176 0.522,-0.473 0.786,-0.891 l 0.176,0.077 c -0.227,0.594 -0.543,1.049 -0.946,1.364 -0.403,0.315 -0.865,0.473 -1.386,0.473 -0.631,0 -1.131,-0.222 -1.501,-0.665 -0.371,-0.444 -0.556,-1.044 -0.556,-1.799 0,-0.814 0.215,-1.468 0.644,-1.963 0.429,-0.495 0.98,-0.743 1.655,-0.743 0.557,0 0.99,0.167 1.298,0.501 0.308,0.333 0.502,0.837 0.583,1.512 l -3.388,0 m 0.022,-0.352 2.244,0 c -0.073,-0.477 -0.187,-0.807 -0.341,-0.99 -0.154,-0.183 -0.4,-0.275 -0.737,-0.275 -0.66,0 -1.049,0.422 -1.166,1.265 m 4.853,0.352 c 0.015,0.462 0.077,0.86 0.187,1.194 0.11,0.333 0.253,0.583 0.429,0.748 0.176,0.165 0.354,0.282 0.534,0.352 0.179,0.069 0.368,0.104 0.566,0.104 0.352,0 0.658,-0.088 0.919,-0.264 0.26,-0.176 0.522,-0.473 0.786,-0.891 l 0.176,0.077 c -0.227,0.594 -0.543,1.049 -0.946,1.364 -0.403,0.315 -0.865,0.473 -1.386,0.473 -0.631,0 -1.131,-0.222 -1.501,-0.665 -0.371,-0.444 -0.556,-1.044 -0.556,-1.799 0,-0.814 0.215,-1.468 0.644,-1.963 0.429,-0.495 0.98,-0.743 1.655,-0.743 0.557,0 0.99,0.167 1.298,0.501 0.308,0.333 0.502,0.837 0.583,1.512 l -3.388,0 m 0.022,-0.352 2.244,0 c -0.073,-0.477 -0.187,-0.807 -0.341,-0.99 -0.154,-0.183 -0.4,-0.275 -0.737,-0.275 -0.66,0 -1.049,0.422 -1.166,1.265 m 6.734,-1.441 c 0.007,0 0.066,-0.037 0.176,-0.11 l 0.121,0 0.044,1.496 -0.165,0 c -0.125,-0.491 -0.279,-0.84 -0.462,-1.045 -0.183,-0.205 -0.433,-0.308 -0.748,-0.308 -0.249,0 -0.453,0.07 -0.61,0.209 -0.158,0.139 -0.237,0.319 -0.237,0.539 0,0.315 0.158,0.565 0.473,0.748 l 1.188,0.704 c 0.33,0.198 0.567,0.398 0.71,0.6 0.143,0.201 0.214,0.438 0.214,0.709 0,0.381 -0.152,0.711 -0.456,0.99 -0.305,0.279 -0.67,0.418 -1.095,0.418 -0.183,0 -0.429,-0.033 -0.737,-0.099 -0.308,-0.066 -0.499,-0.099 -0.572,-0.099 -0.11,0 -0.194,0.044 -0.253,0.132 l -0.143,0 0,-1.716 0.176,0 c 0.117,0.513 0.257,0.876 0.418,1.089 0.235,0.301 0.561,0.451 0.979,0.451 0.279,0 0.501,-0.071 0.666,-0.214 0.165,-0.143 0.247,-0.336 0.247,-0.578 0,-0.33 -0.191,-0.605 -0.572,-0.825 l -0.638,-0.363 c -0.469,-0.264 -0.801,-0.517 -0.995,-0.759 -0.195,-0.242 -0.292,-0.517 -0.292,-0.825 0,-0.396 0.141,-0.72 0.424,-0.973 0.282,-0.253 0.639,-0.38 1.072,-0.38 0.242,0 0.469,0.035 0.682,0.105 0.213,0.069 0.341,0.104 0.385,0.104"
       id="path134"
       inkscape:connector-curvature="0" />
  </g>
  <g
     inkscape:groupmode="layer"
     id="layer4"
     inkscape:label="Layer 4"
     style="display:none">
    <polyline
       style="display:inline;fill:none;stroke:#1f6268;stroke-width:0.64999998;stroke-linecap:round;stroke-linejoin:bevel"
       class="Stem"
       points="154.764,203.593 154.764,188.11"
       id="polyline36" />
    <polyline
       style="display:inline;fill:none;stroke:#1f6268;stroke-width:0.64999998;stroke-linecap:round;stroke-linejoin:bevel"
       class="Stem"
       points="148.65,75.2919 148.65,93.1039"
       id="polyline38" />
    <path
       style="display:inline;fill:#1f6268"
       class="Note"
       d="m 154.453,203.052 c 0,-0.221 -0.085,-0.41 -0.254,-0.566 -0.169,-0.169 -0.364,-0.254 -0.586,-0.254 -0.39,0 -1.178,0.391 -2.363,1.172 -1.224,0.794 -1.973,1.361 -2.246,1.699 -0.143,0.182 -0.215,0.371 -0.215,0.567 0,0.221 0.085,0.41 0.254,0.566 0.156,0.169 0.351,0.254 0.586,0.254 0.377,0 1.172,-0.391 2.383,-1.172 1.198,-0.781 1.94,-1.348 2.226,-1.699 0.143,-0.17 0.215,-0.358 0.215,-0.567 m -1.035,-1.445 c 1.12,0 1.68,0.482 1.68,1.445 0,0.469 -0.137,1.016 -0.411,1.641 -0.273,0.612 -0.638,1.081 -1.093,1.406 -1.003,0.677 -2.259,1.016 -3.77,1.016 -1.12,0 -1.68,-0.482 -1.68,-1.445 0,-0.43 0.137,-0.971 0.411,-1.622 0.26,-0.625 0.625,-1.1 1.093,-1.425 1.003,-0.677 2.259,-1.016 3.77,-1.016"
       id="path76"
       inkscape:connector-curvature="0" />
    <path
       style="display:inline;fill:#1f6268"
       class="Note"
       d="m 152.719,71.5988 c 0.625,0 1.153,0.1628 1.583,0.4883 0.403,0.3516 0.605,0.7943 0.605,1.3282 0,0.8984 -0.462,1.7382 -1.387,2.5195 -0.937,0.7812 -1.94,1.1719 -3.008,1.1719 -0.625,0 -1.152,-0.1628 -1.582,-0.4883 -0.403,-0.3516 -0.605,-0.7943 -0.605,-1.3281 0,-0.8985 0.469,-1.7383 1.406,-2.5196 0.912,-0.7812 1.908,-1.1719 2.988,-1.1719"
       id="path78"
       inkscape:connector-curvature="0" />
    <path
       style="display:inline;fill:#1f6268"
       class="Rest"
       d="m 148.208,140.295 c 0,-0.235 0.13,-0.495 0.39,-0.782 0.196,-0.208 0.482,-0.455 0.86,-0.742 0.286,-0.195 0.566,-0.488 0.84,-0.879 0.26,-0.377 0.39,-0.788 0.39,-1.23 0,-0.521 -0.169,-0.983 -0.508,-1.387 l -0.703,-0.84 c -0.052,-0.052 -0.078,-0.117 -0.078,-0.195 0,-0.078 0.039,-0.15 0.117,-0.215 0.092,-0.065 0.17,-0.098 0.235,-0.098 0.091,0 0.162,0.039 0.215,0.118 l 3.027,3.593 c 0.13,0.17 0.195,0.339 0.195,0.508 0,0.234 -0.13,0.495 -0.39,0.781 -0.17,0.183 -0.45,0.43 -0.84,0.743 -0.3,0.182 -0.586,0.475 -0.86,0.878 -0.26,0.378 -0.39,0.788 -0.39,1.231 0,0.547 0.156,1.009 0.469,1.387 l 1.679,1.972 c 0.039,0.039 0.072,0.104 0.098,0.196 0,0.091 -0.033,0.169 -0.098,0.234 -0.091,0.065 -0.169,0.098 -0.234,0.098 -0.026,0 -0.13,-0.072 -0.313,-0.215 -0.195,-0.156 -0.455,-0.306 -0.781,-0.449 -0.365,-0.144 -0.723,-0.215 -1.074,-0.215 -0.326,0 -0.593,0.091 -0.801,0.273 -0.182,0.182 -0.273,0.534 -0.273,1.055 0,0.794 0.188,1.419 0.566,1.875 0.039,0.052 0.046,0.117 0.02,0.195 -0.026,0.052 -0.072,0.078 -0.137,0.078 -0.091,0 -0.293,-0.234 -0.606,-0.703 -0.325,-0.495 -0.631,-1.061 -0.918,-1.699 -0.299,-0.677 -0.449,-1.237 -0.449,-1.68 0,-0.56 0.267,-0.84 0.801,-0.84 0.612,0 1.406,0.209 2.383,0.625 l -2.637,-3.164 c -0.13,-0.169 -0.195,-0.338 -0.195,-0.507"
       id="path96"
       inkscape:connector-curvature="0" />
    <path
       style="display:inline;fill:#1f6268"
       class="Lyrics"
       d="m 143.736,224.372 0,3.366 c 0.11,-0.272 0.308,-0.495 0.594,-0.671 0.286,-0.176 0.598,-0.264 0.935,-0.264 0.55,0 1.01,0.229 1.38,0.687 0.371,0.459 0.556,1.025 0.556,1.7 0,0.784 -0.248,1.444 -0.743,1.98 -0.495,0.535 -1.105,0.803 -1.831,0.803 -0.44,0 -0.853,-0.075 -1.238,-0.226 -0.385,-0.15 -0.577,-0.31 -0.577,-0.478 l 0,-5.709 c 0,-0.228 -0.035,-0.378 -0.105,-0.451 -0.069,-0.074 -0.214,-0.11 -0.434,-0.11 -0.081,0 -0.143,0.003 -0.187,0.011 l 0,-0.176 c 0.565,-0.14 1.096,-0.301 1.595,-0.484 l 0.055,0.022 m 0,3.949 0,2.772 c 0,0.139 0.106,0.262 0.319,0.368 0.213,0.107 0.462,0.16 0.748,0.16 0.455,0 0.807,-0.169 1.056,-0.506 0.249,-0.338 0.374,-0.811 0.374,-1.419 0,-0.668 -0.127,-1.201 -0.38,-1.601 -0.253,-0.399 -0.595,-0.599 -1.028,-0.599 -0.286,0 -0.539,0.084 -0.759,0.253 -0.22,0.168 -0.33,0.359 -0.33,0.572 m 4.807,0.495 c 0.015,0.462 0.077,0.86 0.187,1.193 0.11,0.334 0.253,0.583 0.429,0.748 0.176,0.165 0.354,0.283 0.533,0.352 0.18,0.07 0.369,0.105 0.567,0.105 0.352,0 0.658,-0.088 0.918,-0.264 0.261,-0.176 0.523,-0.473 0.787,-0.891 l 0.176,0.077 c -0.227,0.594 -0.543,1.048 -0.946,1.364 -0.403,0.315 -0.865,0.473 -1.386,0.473 -0.631,0 -1.131,-0.222 -1.502,-0.666 -0.37,-0.443 -0.555,-1.043 -0.555,-1.798 0,-0.814 0.214,-1.469 0.643,-1.964 0.429,-0.495 0.981,-0.742 1.656,-0.742 0.557,0 0.99,0.167 1.298,0.5 0.308,0.334 0.502,0.838 0.583,1.513 l -3.388,0 m 0.022,-0.352 2.244,0 c -0.073,-0.477 -0.187,-0.807 -0.341,-0.99 -0.154,-0.184 -0.4,-0.275 -0.737,-0.275 -0.66,0 -1.049,0.421 -1.166,1.265 m 4.853,0.352 c 0.015,0.462 0.077,0.86 0.187,1.193 0.11,0.334 0.253,0.583 0.429,0.748 0.176,0.165 0.354,0.283 0.533,0.352 0.18,0.07 0.369,0.105 0.567,0.105 0.352,0 0.658,-0.088 0.918,-0.264 0.261,-0.176 0.523,-0.473 0.787,-0.891 l 0.176,0.077 c -0.227,0.594 -0.543,1.048 -0.946,1.364 -0.403,0.315 -0.865,0.473 -1.386,0.473 -0.631,0 -1.131,-0.222 -1.502,-0.666 -0.37,-0.443 -0.555,-1.043 -0.555,-1.798 0,-0.814 0.214,-1.469 0.643,-1.964 0.429,-0.495 0.981,-0.742 1.656,-0.742 0.557,0 0.99,0.167 1.298,0.5 0.308,0.334 0.502,0.838 0.583,1.513 l -3.388,0 m 0.022,-0.352 2.244,0 c -0.073,-0.477 -0.187,-0.807 -0.341,-0.99 -0.154,-0.184 -0.4,-0.275 -0.737,-0.275 -0.66,0 -1.049,0.421 -1.166,1.265 m 6.734,-1.441 c 0.007,0 0.066,-0.037 0.176,-0.11 l 0.121,0 0.044,1.496 -0.165,0 c -0.125,-0.492 -0.279,-0.84 -0.462,-1.045 -0.183,-0.206 -0.433,-0.308 -0.748,-0.308 -0.249,0 -0.453,0.069 -0.611,0.209 -0.157,0.139 -0.236,0.319 -0.236,0.539 0,0.315 0.158,0.564 0.473,0.748 l 1.188,0.704 c 0.33,0.198 0.566,0.398 0.709,0.599 0.143,0.202 0.215,0.438 0.215,0.71 0,0.381 -0.152,0.711 -0.457,0.99 -0.304,0.278 -0.669,0.418 -1.094,0.418 -0.183,0 -0.429,-0.033 -0.737,-0.099 -0.308,-0.066 -0.499,-0.099 -0.572,-0.099 -0.11,0 -0.194,0.044 -0.253,0.132 l -0.143,0 0,-1.716 0.176,0 c 0.117,0.513 0.257,0.876 0.418,1.089 0.235,0.3 0.561,0.451 0.979,0.451 0.279,0 0.5,-0.072 0.665,-0.215 0.165,-0.143 0.248,-0.335 0.248,-0.577 0,-0.33 -0.191,-0.605 -0.572,-0.825 l -0.638,-0.363 c -0.469,-0.264 -0.801,-0.517 -0.996,-0.759 -0.194,-0.242 -0.291,-0.517 -0.291,-0.825 0,-0.396 0.141,-0.721 0.423,-0.974 0.283,-0.253 0.64,-0.379 1.073,-0.379 0.242,0 0.469,0.035 0.682,0.104 0.213,0.07 0.341,0.105 0.385,0.105"
       id="path130"
       inkscape:connector-curvature="0" />
    <path
       style="display:inline;fill:#1f6268"
       class="Lyrics"
       d="m 143.736,104.364 0,3.366 c 0.11,-0.271 0.308,-0.495 0.594,-0.671 0.286,-0.176 0.598,-0.264 0.935,-0.264 0.55,0 1.01,0.229 1.38,0.688 0.371,0.458 0.556,1.024 0.556,1.699 0,0.785 -0.248,1.445 -0.743,1.98 -0.495,0.535 -1.105,0.803 -1.831,0.803 -0.44,0 -0.853,-0.075 -1.238,-0.225 -0.385,-0.151 -0.577,-0.31 -0.577,-0.479 l 0,-5.709 c 0,-0.227 -0.035,-0.378 -0.105,-0.451 -0.069,-0.073 -0.214,-0.11 -0.434,-0.11 -0.081,0 -0.143,0.004 -0.187,0.011 l 0,-0.176 c 0.565,-0.139 1.096,-0.301 1.595,-0.484 l 0.055,0.022 m 0,3.949 0,2.772 c 0,0.139 0.106,0.262 0.319,0.369 0.213,0.106 0.462,0.159 0.748,0.159 0.455,0 0.807,-0.169 1.056,-0.506 0.249,-0.337 0.374,-0.81 0.374,-1.419 0,-0.667 -0.127,-1.201 -0.38,-1.6 -0.253,-0.4 -0.595,-0.6 -1.028,-0.6 -0.286,0 -0.539,0.084 -0.759,0.253 -0.22,0.169 -0.33,0.359 -0.33,0.572 m 4.807,0.495 c 0.015,0.462 0.077,0.86 0.187,1.194 0.11,0.333 0.253,0.583 0.429,0.748 0.176,0.165 0.354,0.282 0.533,0.352 0.18,0.069 0.369,0.104 0.567,0.104 0.352,0 0.658,-0.088 0.918,-0.264 0.261,-0.176 0.523,-0.473 0.787,-0.891 l 0.176,0.077 c -0.227,0.594 -0.543,1.049 -0.946,1.364 -0.403,0.315 -0.865,0.473 -1.386,0.473 -0.631,0 -1.131,-0.222 -1.502,-0.665 -0.37,-0.444 -0.555,-1.044 -0.555,-1.799 0,-0.814 0.214,-1.468 0.643,-1.963 0.429,-0.495 0.981,-0.743 1.656,-0.743 0.557,0 0.99,0.167 1.298,0.501 0.308,0.333 0.502,0.837 0.583,1.512 l -3.388,0 m 0.022,-0.352 2.244,0 c -0.073,-0.477 -0.187,-0.807 -0.341,-0.99 -0.154,-0.183 -0.4,-0.275 -0.737,-0.275 -0.66,0 -1.049,0.422 -1.166,1.265 m 4.853,0.352 c 0.015,0.462 0.077,0.86 0.187,1.194 0.11,0.333 0.253,0.583 0.429,0.748 0.176,0.165 0.354,0.282 0.533,0.352 0.18,0.069 0.369,0.104 0.567,0.104 0.352,0 0.658,-0.088 0.918,-0.264 0.261,-0.176 0.523,-0.473 0.787,-0.891 l 0.176,0.077 c -0.227,0.594 -0.543,1.049 -0.946,1.364 -0.403,0.315 -0.865,0.473 -1.386,0.473 -0.631,0 -1.131,-0.222 -1.502,-0.665 -0.37,-0.444 -0.555,-1.044 -0.555,-1.799 0,-0.814 0.214,-1.468 0.643,-1.963 0.429,-0.495 0.981,-0.743 1.656,-0.743 0.557,0 0.99,0.167 1.298,0.501 0.308,0.333 0.502,0.837 0.583,1.512 l -3.388,0 m 0.022,-0.352 2.244,0 c -0.073,-0.477 -0.187,-0.807 -0.341,-0.99 -0.154,-0.183 -0.4,-0.275 -0.737,-0.275 -0.66,0 -1.049,0.422 -1.166,1.265 m 6.734,-1.441 c 0.007,0 0.066,-0.037 0.176,-0.11 l 0.121,0 0.044,1.496 -0.165,0 c -0.125,-0.491 -0.279,-0.84 -0.462,-1.045 -0.183,-0.205 -0.433,-0.308 -0.748,-0.308 -0.249,0 -0.453,0.07 -0.611,0.209 -0.157,0.139 -0.236,0.319 -0.236,0.539 0,0.315 0.158,0.565 0.473,0.748 l 1.188,0.704 c 0.33,0.198 0.566,0.398 0.709,0.6 0.143,0.201 0.215,0.438 0.215,0.709 0,0.381 -0.152,0.711 -0.457,0.99 -0.304,0.279 -0.669,0.418 -1.094,0.418 -0.183,0 -0.429,-0.033 -0.737,-0.099 -0.308,-0.066 -0.499,-0.099 -0.572,-0.099 -0.11,0 -0.194,0.044 -0.253,0.132 l -0.143,0 0,-1.716 0.176,0 c 0.117,0.513 0.257,0.876 0.418,1.089 0.235,0.301 0.561,0.451 0.979,0.451 0.279,0 0.5,-0.071 0.665,-0.214 0.165,-0.143 0.248,-0.336 0.248,-0.578 0,-0.33 -0.191,-0.605 -0.572,-0.825 l -0.638,-0.363 c -0.469,-0.264 -0.801,-0.517 -0.996,-0.759 -0.194,-0.242 -0.291,-0.517 -0.291,-0.825 0,-0.396 0.141,-0.72 0.423,-0.973 0.283,-0.253 0.64,-0.38 1.073,-0.38 0.242,0 0.469,0.035 0.682,0.105 0.213,0.069 0.341,0.104 0.385,0.104"
       id="path132"
       inkscape:connector-curvature="0" />
  </g>
  <g
     inkscape:groupmode="layer"
     id="layer12"
     inkscape:label="Layer 4b"
     style="display:none">
    <path
       style="display:inline;fill:#1f6268;fill-rule:evenodd"
       class="Beam"
       d="m 148.325,91.8539 73.984,0 0,2.5001 -73.984,0 0,-2.5001"
       id="path102"
       inkscape:connector-curvature="0" />
  </g>
  <g
     inkscape:groupmode="layer"
     id="layer5"
     inkscape:label="Layer 5"
     style="display:none">
    <polyline
       style="display:inline;fill:none;stroke:#1f6268;stroke-width:0.64999998;stroke-linecap:round;stroke-linejoin:bevel"
       class="Stem"
       points="173.095,77.792 173.095,93.1039"
       id="polyline34" />
    <path
       style="display:inline;fill:#1f6268"
       class="Note"
       d="m 177.164,74.099 c 0.625,0 1.153,0.1628 1.582,0.4883 0.404,0.3516 0.606,0.7943 0.606,1.3281 0,0.8985 -0.462,1.7383 -1.387,2.5195 -0.937,0.7813 -1.94,1.1719 -3.008,1.1719 -0.625,0 -1.152,-0.1627 -1.582,-0.4883 -0.403,-0.3515 -0.605,-0.7942 -0.605,-1.3281 0,-0.8984 0.469,-1.7383 1.406,-2.5195 0.911,-0.7813 1.908,-1.1719 2.988,-1.1719"
       id="path74"
       inkscape:connector-curvature="0" />
    <path
       style="display:inline;fill:#1f6268"
       class="Lyrics"
       d="m 168.181,104.364 0,3.366 c 0.11,-0.271 0.308,-0.495 0.594,-0.671 0.286,-0.176 0.597,-0.264 0.935,-0.264 0.55,0 1.01,0.229 1.38,0.688 0.371,0.458 0.556,1.024 0.556,1.699 0,0.785 -0.248,1.445 -0.743,1.98 -0.495,0.535 -1.105,0.803 -1.831,0.803 -0.44,0 -0.853,-0.075 -1.238,-0.225 -0.385,-0.151 -0.577,-0.31 -0.577,-0.479 l 0,-5.709 c 0,-0.227 -0.035,-0.378 -0.105,-0.451 -0.069,-0.073 -0.214,-0.11 -0.434,-0.11 -0.081,0 -0.143,0.004 -0.187,0.011 l 0,-0.176 c 0.564,-0.139 1.096,-0.301 1.595,-0.484 l 0.055,0.022 m 0,3.949 0,2.772 c 0,0.139 0.106,0.262 0.319,0.369 0.212,0.106 0.462,0.159 0.748,0.159 0.454,0 0.806,-0.169 1.056,-0.506 0.249,-0.337 0.374,-0.81 0.374,-1.419 0,-0.667 -0.127,-1.201 -0.38,-1.6 -0.253,-0.4 -0.596,-0.6 -1.028,-0.6 -0.286,0 -0.539,0.084 -0.759,0.253 -0.22,0.169 -0.33,0.359 -0.33,0.572 m 4.807,0.495 c 0.014,0.462 0.077,0.86 0.187,1.194 0.11,0.333 0.253,0.583 0.429,0.748 0.176,0.165 0.354,0.282 0.533,0.352 0.18,0.069 0.369,0.104 0.567,0.104 0.352,0 0.658,-0.088 0.918,-0.264 0.261,-0.176 0.523,-0.473 0.787,-0.891 l 0.176,0.077 c -0.228,0.594 -0.543,1.049 -0.946,1.364 -0.404,0.315 -0.866,0.473 -1.386,0.473 -0.631,0 -1.131,-0.222 -1.502,-0.665 -0.37,-0.444 -0.555,-1.044 -0.555,-1.799 0,-0.814 0.214,-1.468 0.643,-1.963 0.429,-0.495 0.981,-0.743 1.656,-0.743 0.557,0 0.99,0.167 1.298,0.501 0.308,0.333 0.502,0.837 0.583,1.512 l -3.388,0 m 0.022,-0.352 2.244,0 c -0.074,-0.477 -0.187,-0.807 -0.341,-0.99 -0.154,-0.183 -0.4,-0.275 -0.737,-0.275 -0.66,0 -1.049,0.422 -1.166,1.265 m 4.853,0.352 c 0.014,0.462 0.077,0.86 0.187,1.194 0.11,0.333 0.253,0.583 0.429,0.748 0.176,0.165 0.354,0.282 0.533,0.352 0.18,0.069 0.369,0.104 0.567,0.104 0.352,0 0.658,-0.088 0.918,-0.264 0.261,-0.176 0.523,-0.473 0.787,-0.891 l 0.176,0.077 c -0.228,0.594 -0.543,1.049 -0.946,1.364 -0.404,0.315 -0.866,0.473 -1.386,0.473 -0.631,0 -1.131,-0.222 -1.502,-0.665 -0.37,-0.444 -0.555,-1.044 -0.555,-1.799 0,-0.814 0.214,-1.468 0.643,-1.963 0.429,-0.495 0.981,-0.743 1.656,-0.743 0.557,0 0.99,0.167 1.298,0.501 0.308,0.333 0.502,0.837 0.583,1.512 l -3.388,0 m 0.022,-0.352 2.244,0 c -0.074,-0.477 -0.187,-0.807 -0.341,-0.99 -0.154,-0.183 -0.4,-0.275 -0.737,-0.275 -0.66,0 -1.049,0.422 -1.166,1.265 m 6.734,-1.441 c 0.007,0 0.066,-0.037 0.176,-0.11 l 0.121,0 0.044,1.496 -0.165,0 c -0.125,-0.491 -0.279,-0.84 -0.462,-1.045 -0.184,-0.205 -0.433,-0.308 -0.748,-0.308 -0.25,0 -0.453,0.07 -0.611,0.209 -0.157,0.139 -0.236,0.319 -0.236,0.539 0,0.315 0.157,0.565 0.473,0.748 l 1.188,0.704 c 0.33,0.198 0.566,0.398 0.709,0.6 0.143,0.201 0.215,0.438 0.215,0.709 0,0.381 -0.152,0.711 -0.457,0.99 -0.304,0.279 -0.669,0.418 -1.094,0.418 -0.184,0 -0.429,-0.033 -0.737,-0.099 -0.308,-0.066 -0.499,-0.099 -0.572,-0.099 -0.11,0 -0.195,0.044 -0.253,0.132 l -0.143,0 0,-1.716 0.176,0 c 0.117,0.513 0.256,0.876 0.418,1.089 0.234,0.301 0.561,0.451 0.979,0.451 0.278,0 0.5,-0.071 0.665,-0.214 0.165,-0.143 0.248,-0.336 0.248,-0.578 0,-0.33 -0.191,-0.605 -0.572,-0.825 l -0.638,-0.363 c -0.47,-0.264 -0.801,-0.517 -0.996,-0.759 -0.194,-0.242 -0.291,-0.517 -0.291,-0.825 0,-0.396 0.141,-0.72 0.423,-0.973 0.283,-0.253 0.64,-0.38 1.073,-0.38 0.242,0 0.469,0.035 0.682,0.105 0.212,0.069 0.341,0.104 0.385,0.104"
       id="path128"
       inkscape:connector-curvature="0" />
  </g>
  <g
     inkscape:groupmode="layer"
     id="layer6"
     inkscape:label="Layer 6"
     style="display:none">
    <polyline
       style="display:inline;fill:none;stroke:#1f6268;stroke-width:0.64999998;stroke-linecap:round;stroke-linejoin:bevel"
       class="Stem"
       points="203.473,150.919 203.473,129.981"
       id="polyline30" />
    <polyline
       style="display:inline;fill:none;stroke:#1f6268;stroke-width:0.64999998;stroke-linecap:round;stroke-linejoin:bevel"
       class="Stem"
       points="197.54,80.2922 197.54,93.1039"
       id="polyline32" />
    <path
       style="display:inline;fill:#1f6268"
       class="Note"
       d="m 201.609,144.103 c 0.625,0 1.152,0.163 1.582,0.489 0.404,0.351 0.606,0.794 0.606,1.328 0,0.898 -0.463,1.738 -1.387,2.519 -0.938,0.782 -1.94,1.172 -3.008,1.172 -0.625,0 -1.152,-0.163 -1.582,-0.488 -0.404,-0.352 -0.605,-0.794 -0.605,-1.328 0,-0.899 0.468,-1.738 1.406,-2.52 0.911,-0.781 1.907,-1.172 2.988,-1.172"
       id="path68"
       inkscape:connector-curvature="0" />
    <path
       style="display:inline;fill:#1f6268"
       class="Note"
       d="m 201.609,149.104 c 0.625,0 1.152,0.162 1.582,0.488 0.404,0.352 0.606,0.794 0.606,1.328 0,0.899 -0.463,1.738 -1.387,2.52 -0.938,0.781 -1.94,1.172 -3.008,1.172 -0.625,0 -1.152,-0.163 -1.582,-0.489 -0.404,-0.351 -0.605,-0.794 -0.605,-1.328 0,-0.898 0.468,-1.738 1.406,-2.519 0.911,-0.782 1.907,-1.172 2.988,-1.172"
       id="path70"
       inkscape:connector-curvature="0" />
    <path
       style="display:inline;fill:#1f6268"
       class="Note"
       d="m 201.609,76.5992 c 0.625,0 1.152,0.1627 1.582,0.4882 0.404,0.3516 0.606,0.7943 0.606,1.3282 0,0.8984 -0.463,1.7383 -1.387,2.5195 -0.938,0.7813 -1.94,1.1719 -3.008,1.1719 -0.625,0 -1.152,-0.1628 -1.582,-0.4883 -0.404,-0.3516 -0.605,-0.7943 -0.605,-1.3281 0,-0.8985 0.468,-1.7383 1.406,-2.5196 0.911,-0.7812 1.907,-1.1718 2.988,-1.1718"
       id="path72"
       inkscape:connector-curvature="0" />
    <path
       style="display:inline;fill:#1f6268"
       class="Lyrics"
       d="m 192.626,164.368 0,3.366 c 0.11,-0.271 0.308,-0.495 0.594,-0.671 0.286,-0.176 0.597,-0.264 0.935,-0.264 0.55,0 1.01,0.229 1.38,0.687 0.37,0.459 0.556,1.025 0.556,1.7 0,0.785 -0.248,1.445 -0.743,1.98 -0.495,0.535 -1.105,0.803 -1.831,0.803 -0.44,0 -0.853,-0.075 -1.238,-0.226 -0.385,-0.15 -0.577,-0.309 -0.577,-0.478 l 0,-5.709 c 0,-0.227 -0.035,-0.378 -0.105,-0.451 -0.07,-0.073 -0.214,-0.11 -0.434,-0.11 -0.081,0 -0.143,0.004 -0.187,0.011 l 0,-0.176 c 0.564,-0.139 1.096,-0.301 1.595,-0.484 l 0.055,0.022 m 0,3.949 0,2.772 c 0,0.139 0.106,0.262 0.319,0.368 0.212,0.107 0.462,0.16 0.748,0.16 0.454,0 0.806,-0.169 1.056,-0.506 0.249,-0.337 0.374,-0.81 0.374,-1.419 0,-0.667 -0.127,-1.201 -0.38,-1.601 -0.253,-0.399 -0.596,-0.599 -1.028,-0.599 -0.286,0 -0.539,0.084 -0.759,0.253 -0.22,0.169 -0.33,0.359 -0.33,0.572 m 4.807,0.495 c 0.014,0.462 0.077,0.86 0.187,1.193 0.11,0.334 0.253,0.583 0.429,0.748 0.176,0.165 0.353,0.283 0.533,0.352 0.18,0.07 0.369,0.105 0.567,0.105 0.352,0 0.658,-0.088 0.918,-0.264 0.26,-0.176 0.523,-0.473 0.787,-0.891 l 0.176,0.077 c -0.228,0.594 -0.543,1.049 -0.946,1.364 -0.404,0.315 -0.866,0.473 -1.386,0.473 -0.631,0 -1.132,-0.222 -1.502,-0.666 -0.37,-0.443 -0.555,-1.043 -0.555,-1.798 0,-0.814 0.214,-1.469 0.643,-1.964 0.429,-0.495 0.981,-0.742 1.656,-0.742 0.557,0 0.99,0.167 1.298,0.5 0.308,0.334 0.502,0.838 0.583,1.513 l -3.388,0 m 0.022,-0.352 2.244,0 c -0.074,-0.477 -0.187,-0.807 -0.341,-0.99 -0.154,-0.183 -0.4,-0.275 -0.737,-0.275 -0.66,0 -1.049,0.422 -1.166,1.265 m 4.853,0.352 c 0.014,0.462 0.077,0.86 0.187,1.193 0.11,0.334 0.253,0.583 0.429,0.748 0.176,0.165 0.353,0.283 0.533,0.352 0.18,0.07 0.369,0.105 0.567,0.105 0.352,0 0.658,-0.088 0.918,-0.264 0.26,-0.176 0.523,-0.473 0.787,-0.891 l 0.176,0.077 c -0.228,0.594 -0.543,1.049 -0.946,1.364 -0.404,0.315 -0.866,0.473 -1.386,0.473 -0.631,0 -1.132,-0.222 -1.502,-0.666 -0.37,-0.443 -0.555,-1.043 -0.555,-1.798 0,-0.814 0.214,-1.469 0.643,-1.964 0.429,-0.495 0.981,-0.742 1.656,-0.742 0.557,0 0.99,0.167 1.298,0.5 0.308,0.334 0.502,0.838 0.583,1.513 l -3.388,0 m 0.022,-0.352 2.244,0 c -0.074,-0.477 -0.187,-0.807 -0.341,-0.99 -0.154,-0.183 -0.4,-0.275 -0.737,-0.275 -0.66,0 -1.049,0.422 -1.166,1.265 m 6.734,-1.441 c 0.007,0 0.066,-0.037 0.176,-0.11 l 0.121,0 0.044,1.496 -0.165,0 c -0.125,-0.491 -0.279,-0.84 -0.462,-1.045 -0.184,-0.205 -0.433,-0.308 -0.748,-0.308 -0.25,0 -0.453,0.07 -0.611,0.209 -0.158,0.139 -0.236,0.319 -0.236,0.539 0,0.315 0.157,0.565 0.473,0.748 l 1.188,0.704 c 0.33,0.198 0.566,0.398 0.709,0.599 0.143,0.202 0.215,0.439 0.215,0.71 0,0.381 -0.153,0.711 -0.457,0.99 -0.304,0.279 -0.669,0.418 -1.094,0.418 -0.184,0 -0.429,-0.033 -0.737,-0.099 -0.308,-0.066 -0.499,-0.099 -0.572,-0.099 -0.11,0 -0.195,0.044 -0.253,0.132 l -0.143,0 0,-1.716 0.176,0 c 0.117,0.513 0.256,0.876 0.418,1.089 0.234,0.301 0.561,0.451 0.979,0.451 0.278,0 0.5,-0.072 0.665,-0.215 0.165,-0.143 0.248,-0.335 0.248,-0.577 0,-0.33 -0.191,-0.605 -0.572,-0.825 l -0.638,-0.363 c -0.47,-0.264 -0.802,-0.517 -0.996,-0.759 -0.194,-0.242 -0.291,-0.517 -0.291,-0.825 0,-0.396 0.141,-0.721 0.423,-0.974 0.282,-0.253 0.64,-0.379 1.073,-0.379 0.242,0 0.469,0.035 0.682,0.104 0.212,0.07 0.341,0.105 0.385,0.105"
       id="path124"
       inkscape:connector-curvature="0" />
    <path
       style="display:inline;fill:#1f6268"
       class="Lyrics"
       d="m 192.626,104.364 0,3.366 c 0.11,-0.271 0.308,-0.495 0.594,-0.671 0.286,-0.176 0.597,-0.264 0.935,-0.264 0.55,0 1.01,0.229 1.38,0.688 0.37,0.458 0.556,1.024 0.556,1.699 0,0.785 -0.248,1.445 -0.743,1.98 -0.495,0.535 -1.105,0.803 -1.831,0.803 -0.44,0 -0.853,-0.075 -1.238,-0.225 -0.385,-0.151 -0.577,-0.31 -0.577,-0.479 l 0,-5.709 c 0,-0.227 -0.035,-0.378 -0.105,-0.451 -0.07,-0.073 -0.214,-0.11 -0.434,-0.11 -0.081,0 -0.143,0.004 -0.187,0.011 l 0,-0.176 c 0.564,-0.139 1.096,-0.301 1.595,-0.484 l 0.055,0.022 m 0,3.949 0,2.772 c 0,0.139 0.106,0.262 0.319,0.369 0.212,0.106 0.462,0.159 0.748,0.159 0.454,0 0.806,-0.169 1.056,-0.506 0.249,-0.337 0.374,-0.81 0.374,-1.419 0,-0.667 -0.127,-1.201 -0.38,-1.6 -0.253,-0.4 -0.596,-0.6 -1.028,-0.6 -0.286,0 -0.539,0.084 -0.759,0.253 -0.22,0.169 -0.33,0.359 -0.33,0.572 m 4.807,0.495 c 0.014,0.462 0.077,0.86 0.187,1.194 0.11,0.333 0.253,0.583 0.429,0.748 0.176,0.165 0.353,0.282 0.533,0.352 0.18,0.069 0.369,0.104 0.567,0.104 0.352,0 0.658,-0.088 0.918,-0.264 0.26,-0.176 0.523,-0.473 0.787,-0.891 l 0.176,0.077 c -0.228,0.594 -0.543,1.049 -0.946,1.364 -0.404,0.315 -0.866,0.473 -1.386,0.473 -0.631,0 -1.132,-0.222 -1.502,-0.665 -0.37,-0.444 -0.555,-1.044 -0.555,-1.799 0,-0.814 0.214,-1.468 0.643,-1.963 0.429,-0.495 0.981,-0.743 1.656,-0.743 0.557,0 0.99,0.167 1.298,0.501 0.308,0.333 0.502,0.837 0.583,1.512 l -3.388,0 m 0.022,-0.352 2.244,0 c -0.074,-0.477 -0.187,-0.807 -0.341,-0.99 -0.154,-0.183 -0.4,-0.275 -0.737,-0.275 -0.66,0 -1.049,0.422 -1.166,1.265 m 4.853,0.352 c 0.014,0.462 0.077,0.86 0.187,1.194 0.11,0.333 0.253,0.583 0.429,0.748 0.176,0.165 0.353,0.282 0.533,0.352 0.18,0.069 0.369,0.104 0.567,0.104 0.352,0 0.658,-0.088 0.918,-0.264 0.26,-0.176 0.523,-0.473 0.787,-0.891 l 0.176,0.077 c -0.228,0.594 -0.543,1.049 -0.946,1.364 -0.404,0.315 -0.866,0.473 -1.386,0.473 -0.631,0 -1.132,-0.222 -1.502,-0.665 -0.37,-0.444 -0.555,-1.044 -0.555,-1.799 0,-0.814 0.214,-1.468 0.643,-1.963 0.429,-0.495 0.981,-0.743 1.656,-0.743 0.557,0 0.99,0.167 1.298,0.501 0.308,0.333 0.502,0.837 0.583,1.512 l -3.388,0 m 0.022,-0.352 2.244,0 c -0.074,-0.477 -0.187,-0.807 -0.341,-0.99 -0.154,-0.183 -0.4,-0.275 -0.737,-0.275 -0.66,0 -1.049,0.422 -1.166,1.265 m 6.734,-1.441 c 0.007,0 0.066,-0.037 0.176,-0.11 l 0.121,0 0.044,1.496 -0.165,0 c -0.125,-0.491 -0.279,-0.84 -0.462,-1.045 -0.184,-0.205 -0.433,-0.308 -0.748,-0.308 -0.25,0 -0.453,0.07 -0.611,0.209 -0.158,0.139 -0.236,0.319 -0.236,0.539 0,0.315 0.157,0.565 0.473,0.748 l 1.188,0.704 c 0.33,0.198 0.566,0.398 0.709,0.6 0.143,0.201 0.215,0.438 0.215,0.709 0,0.381 -0.153,0.711 -0.457,0.99 -0.304,0.279 -0.669,0.418 -1.094,0.418 -0.184,0 -0.429,-0.033 -0.737,-0.099 -0.308,-0.066 -0.499,-0.099 -0.572,-0.099 -0.11,0 -0.195,0.044 -0.253,0.132 l -0.143,0 0,-1.716 0.176,0 c 0.117,0.513 0.256,0.876 0.418,1.089 0.234,0.301 0.561,0.451 0.979,0.451 0.278,0 0.5,-0.071 0.665,-0.214 0.165,-0.143 0.248,-0.336 0.248,-0.578 0,-0.33 -0.191,-0.605 -0.572,-0.825 l -0.638,-0.363 c -0.47,-0.264 -0.802,-0.517 -0.996,-0.759 -0.194,-0.242 -0.291,-0.517 -0.291,-0.825 0,-0.396 0.141,-0.72 0.423,-0.973 0.282,-0.253 0.64,-0.38 1.073,-0.38 0.242,0 0.469,0.035 0.682,0.105 0.212,0.069 0.341,0.104 0.385,0.104"
       id="path126"
       inkscape:connector-curvature="0" />
  </g>
  <g
     inkscape:groupmode="layer"
     id="layer7"
     inkscape:label="Layer 7"
     style="display:none">
    <polyline
       style="display:inline;fill:none;stroke:#1f6268;stroke-width:0.64999998;stroke-linecap:round;stroke-linejoin:bevel"
       class="Stem"
       points="221.984,77.792 221.984,93.1039"
       id="polyline28" />
    <path
       style="display:inline;fill:#1f6268"
       class="Note"
       d="m 226.054,74.099 c 0.625,0 1.152,0.1628 1.582,0.4883 0.404,0.3516 0.605,0.7943 0.605,1.3281 0,0.8985 -0.462,1.7383 -1.386,2.5195 -0.938,0.7813 -1.94,1.1719 -3.008,1.1719 -0.625,0 -1.152,-0.1627 -1.582,-0.4883 -0.404,-0.3515 -0.606,-0.7942 -0.606,-1.3281 0,-0.8984 0.469,-1.7383 1.407,-2.5195 0.911,-0.7813 1.907,-1.1719 2.988,-1.1719"
       id="path66"
       inkscape:connector-curvature="0" />
    <path
       style="display:inline;fill:#1f6268"
       class="Lyrics"
       d="m 217.07,104.364 0,3.366 c 0.11,-0.271 0.308,-0.495 0.594,-0.671 0.286,-0.176 0.598,-0.264 0.935,-0.264 0.55,0 1.011,0.229 1.381,0.688 0.37,0.458 0.555,1.024 0.555,1.699 0,0.785 -0.247,1.445 -0.742,1.98 -0.495,0.535 -1.106,0.803 -1.832,0.803 -0.44,0 -0.852,-0.075 -1.237,-0.225 -0.385,-0.151 -0.578,-0.31 -0.578,-0.479 l 0,-5.709 c 0,-0.227 -0.034,-0.378 -0.104,-0.451 -0.07,-0.073 -0.215,-0.11 -0.435,-0.11 -0.08,0 -0.143,0.004 -0.187,0.011 l 0,-0.176 c 0.565,-0.139 1.097,-0.301 1.595,-0.484 l 0.055,0.022 m 0,3.949 0,2.772 c 0,0.139 0.107,0.262 0.319,0.369 0.213,0.106 0.462,0.159 0.748,0.159 0.455,0 0.807,-0.169 1.056,-0.506 0.25,-0.337 0.374,-0.81 0.374,-1.419 0,-0.667 -0.126,-1.201 -0.379,-1.6 -0.253,-0.4 -0.596,-0.6 -1.029,-0.6 -0.286,0 -0.539,0.084 -0.759,0.253 -0.22,0.169 -0.33,0.359 -0.33,0.572 m 4.807,0.495 c 0.015,0.462 0.077,0.86 0.187,1.194 0.11,0.333 0.253,0.583 0.429,0.748 0.176,0.165 0.354,0.282 0.534,0.352 0.18,0.069 0.368,0.104 0.566,0.104 0.352,0 0.659,-0.088 0.919,-0.264 0.26,-0.176 0.522,-0.473 0.786,-0.891 l 0.176,0.077 c -0.227,0.594 -0.542,1.049 -0.946,1.364 -0.403,0.315 -0.865,0.473 -1.386,0.473 -0.63,0 -1.131,-0.222 -1.501,-0.665 -0.37,-0.444 -0.556,-1.044 -0.556,-1.799 0,-0.814 0.215,-1.468 0.644,-1.963 0.429,-0.495 0.981,-0.743 1.655,-0.743 0.558,0 0.99,0.167 1.298,0.501 0.308,0.333 0.503,0.837 0.583,1.512 l -3.388,0 m 0.022,-0.352 2.244,0 c -0.073,-0.477 -0.187,-0.807 -0.341,-0.99 -0.154,-0.183 -0.399,-0.275 -0.737,-0.275 -0.66,0 -1.048,0.422 -1.166,1.265 m 4.853,0.352 c 0.015,0.462 0.077,0.86 0.187,1.194 0.11,0.333 0.253,0.583 0.429,0.748 0.176,0.165 0.354,0.282 0.534,0.352 0.18,0.069 0.368,0.104 0.566,0.104 0.352,0 0.659,-0.088 0.919,-0.264 0.26,-0.176 0.522,-0.473 0.786,-0.891 l 0.176,0.077 c -0.227,0.594 -0.542,1.049 -0.946,1.364 -0.403,0.315 -0.865,0.473 -1.386,0.473 -0.63,0 -1.131,-0.222 -1.501,-0.665 -0.37,-0.444 -0.556,-1.044 -0.556,-1.799 0,-0.814 0.215,-1.468 0.644,-1.963 0.429,-0.495 0.981,-0.743 1.655,-0.743 0.558,0 0.99,0.167 1.298,0.501 0.308,0.333 0.503,0.837 0.583,1.512 l -3.388,0 m 0.022,-0.352 2.244,0 c -0.073,-0.477 -0.187,-0.807 -0.341,-0.99 -0.154,-0.183 -0.399,-0.275 -0.737,-0.275 -0.66,0 -1.048,0.422 -1.166,1.265 m 6.734,-1.441 c 0.008,0 0.066,-0.037 0.176,-0.11 l 0.121,0 0.044,1.496 -0.165,0 c -0.124,-0.491 -0.278,-0.84 -0.462,-1.045 -0.183,-0.205 -0.432,-0.308 -0.748,-0.308 -0.249,0 -0.452,0.07 -0.61,0.209 -0.158,0.139 -0.237,0.319 -0.237,0.539 0,0.315 0.158,0.565 0.473,0.748 l 1.188,0.704 c 0.33,0.198 0.567,0.398 0.71,0.6 0.143,0.201 0.214,0.438 0.214,0.709 0,0.381 -0.152,0.711 -0.456,0.99 -0.304,0.279 -0.669,0.418 -1.095,0.418 -0.183,0 -0.429,-0.033 -0.737,-0.099 -0.308,-0.066 -0.498,-0.099 -0.572,-0.099 -0.11,0 -0.194,0.044 -0.253,0.132 l -0.143,0 0,-1.716 0.176,0 c 0.118,0.513 0.257,0.876 0.418,1.089 0.235,0.301 0.561,0.451 0.979,0.451 0.279,0 0.501,-0.071 0.666,-0.214 0.165,-0.143 0.247,-0.336 0.247,-0.578 0,-0.33 -0.19,-0.605 -0.572,-0.825 l -0.638,-0.363 c -0.469,-0.264 -0.801,-0.517 -0.995,-0.759 -0.194,-0.242 -0.292,-0.517 -0.292,-0.825 0,-0.396 0.142,-0.72 0.424,-0.973 0.282,-0.253 0.64,-0.38 1.072,-0.38 0.242,0 0.47,0.035 0.682,0.105 0.213,0.069 0.341,0.104 0.385,0.104"
       id="path122"
       inkscape:connector-curvature="0" />
  </g>
  <g
     inkscape:groupmode="layer"
     id="layer8"
     inkscape:label="Layer 8"
     style="display:none">
    <polyline
       style="display:inline;fill:none;stroke:#1f6268;stroke-width:0.64999998;stroke-linecap:round;stroke-linejoin:bevel"
       class="Stem"
       points="265.692,203.593 265.692,188.11"
       id="polyline24" />
    <polyline
       style="display:inline;fill:none;stroke:#1f6268;stroke-width:0.64999998;stroke-linecap:round;stroke-linejoin:bevel"
       class="Stem"
       points="259.579,75.2919 259.579,91.8539"
       id="polyline26" />
    <path
       style="display:inline;fill:#1f6268"
       class="Note"
       d="m 265.382,203.052 c 0,-0.221 -0.085,-0.41 -0.254,-0.566 -0.169,-0.169 -0.365,-0.254 -0.586,-0.254 -0.391,0 -1.178,0.391 -2.363,1.172 -1.224,0.794 -1.973,1.361 -2.246,1.699 -0.144,0.182 -0.215,0.371 -0.215,0.567 0,0.221 0.084,0.41 0.254,0.566 0.156,0.169 0.351,0.254 0.586,0.254 0.377,0 1.171,-0.391 2.382,-1.172 1.198,-0.781 1.94,-1.348 2.227,-1.699 0.143,-0.17 0.215,-0.358 0.215,-0.567 m -1.035,-1.445 c 1.119,0 1.679,0.482 1.679,1.445 0,0.469 -0.136,1.016 -0.41,1.641 -0.273,0.612 -0.638,1.081 -1.094,1.406 -1.002,0.677 -2.259,1.016 -3.769,1.016 -1.12,0 -1.68,-0.482 -1.68,-1.445 0,-0.43 0.137,-0.971 0.41,-1.622 0.261,-0.625 0.625,-1.1 1.094,-1.425 1.003,-0.677 2.259,-1.016 3.77,-1.016"
       id="path62"
       inkscape:connector-curvature="0" />
    <path
       style="display:inline;fill:#1f6268"
       class="Note"
       d="m 263.648,71.5988 c 0.625,0 1.152,0.1628 1.582,0.4883 0.404,0.3516 0.606,0.7943 0.606,1.3282 0,0.8984 -0.463,1.7382 -1.387,2.5195 -0.938,0.7812 -1.94,1.1719 -3.008,1.1719 -0.625,0 -1.152,-0.1628 -1.582,-0.4883 -0.404,-0.3516 -0.605,-0.7943 -0.605,-1.3281 0,-0.8985 0.468,-1.7383 1.406,-2.5196 0.911,-0.7812 1.907,-1.1719 2.988,-1.1719"
       id="path64"
       inkscape:connector-curvature="0" />
    <path
       style="display:inline;fill:#1f6268"
       class="Rest"
       d="m 259.136,140.295 c 0,-0.235 0.131,-0.495 0.391,-0.782 0.195,-0.208 0.482,-0.455 0.859,-0.742 0.287,-0.195 0.567,-0.488 0.84,-0.879 0.261,-0.377 0.391,-0.788 0.391,-1.23 0,-0.521 -0.169,-0.983 -0.508,-1.387 l -0.703,-0.84 c -0.052,-0.052 -0.078,-0.117 -0.078,-0.195 0,-0.078 0.039,-0.15 0.117,-0.215 0.091,-0.065 0.169,-0.098 0.234,-0.098 0.092,0 0.163,0.039 0.215,0.118 l 3.028,3.593 c 0.13,0.17 0.195,0.339 0.195,0.508 0,0.234 -0.13,0.495 -0.391,0.781 -0.169,0.183 -0.449,0.43 -0.84,0.743 -0.299,0.182 -0.586,0.475 -0.859,0.878 -0.26,0.378 -0.391,0.788 -0.391,1.231 0,0.547 0.157,1.009 0.469,1.387 l 1.68,1.972 c 0.039,0.039 0.071,0.104 0.098,0.196 0,0.091 -0.033,0.169 -0.098,0.234 -0.091,0.065 -0.169,0.098 -0.235,0.098 -0.026,0 -0.13,-0.072 -0.312,-0.215 -0.195,-0.156 -0.456,-0.306 -0.781,-0.449 -0.365,-0.144 -0.723,-0.215 -1.074,-0.215 -0.326,0 -0.593,0.091 -0.801,0.273 -0.183,0.182 -0.274,0.534 -0.274,1.055 0,0.794 0.189,1.419 0.567,1.875 0.039,0.052 0.045,0.117 0.019,0.195 -0.026,0.052 -0.071,0.078 -0.136,0.078 -0.092,0 -0.293,-0.234 -0.606,-0.703 -0.325,-0.495 -0.631,-1.061 -0.918,-1.699 -0.299,-0.677 -0.449,-1.237 -0.449,-1.68 0,-0.56 0.267,-0.84 0.801,-0.84 0.612,0 1.406,0.209 2.382,0.625 l -2.636,-3.164 c -0.13,-0.169 -0.196,-0.338 -0.196,-0.507"
       id="path94"
       inkscape:connector-curvature="0" />
    <path
       style="display:inline;fill:#1f6268"
       class="Lyrics"
       d="m 254.665,224.372 0,3.366 c 0.11,-0.272 0.308,-0.495 0.594,-0.671 0.286,-0.176 0.597,-0.264 0.935,-0.264 0.55,0 1.01,0.229 1.38,0.687 0.37,0.459 0.556,1.025 0.556,1.7 0,0.784 -0.248,1.444 -0.743,1.98 -0.495,0.535 -1.105,0.803 -1.831,0.803 -0.44,0 -0.853,-0.075 -1.238,-0.226 -0.385,-0.15 -0.577,-0.31 -0.577,-0.478 l 0,-5.709 c 0,-0.228 -0.035,-0.378 -0.105,-0.451 -0.07,-0.074 -0.214,-0.11 -0.434,-0.11 -0.081,0 -0.143,0.003 -0.187,0.011 l 0,-0.176 c 0.564,-0.14 1.096,-0.301 1.595,-0.484 l 0.055,0.022 m 0,3.949 0,2.772 c 0,0.139 0.106,0.262 0.319,0.368 0.212,0.107 0.462,0.16 0.748,0.16 0.454,0 0.806,-0.169 1.056,-0.506 0.249,-0.338 0.374,-0.811 0.374,-1.419 0,-0.668 -0.127,-1.201 -0.38,-1.601 -0.253,-0.399 -0.596,-0.599 -1.028,-0.599 -0.286,0 -0.539,0.084 -0.759,0.253 -0.22,0.168 -0.33,0.359 -0.33,0.572 m 4.807,0.495 c 0.014,0.462 0.077,0.86 0.187,1.193 0.11,0.334 0.253,0.583 0.429,0.748 0.176,0.165 0.353,0.283 0.533,0.352 0.18,0.07 0.369,0.105 0.567,0.105 0.352,0 0.658,-0.088 0.918,-0.264 0.26,-0.176 0.523,-0.473 0.787,-0.891 l 0.176,0.077 c -0.228,0.594 -0.543,1.048 -0.946,1.364 -0.404,0.315 -0.866,0.473 -1.386,0.473 -0.631,0 -1.132,-0.222 -1.502,-0.666 -0.37,-0.443 -0.555,-1.043 -0.555,-1.798 0,-0.814 0.214,-1.469 0.643,-1.964 0.429,-0.495 0.981,-0.742 1.656,-0.742 0.557,0 0.99,0.167 1.298,0.5 0.308,0.334 0.502,0.838 0.583,1.513 l -3.388,0 m 0.022,-0.352 2.244,0 c -0.074,-0.477 -0.187,-0.807 -0.341,-0.99 -0.154,-0.184 -0.4,-0.275 -0.737,-0.275 -0.66,0 -1.049,0.421 -1.166,1.265 m 4.853,0.352 c 0.014,0.462 0.077,0.86 0.187,1.193 0.11,0.334 0.253,0.583 0.429,0.748 0.176,0.165 0.353,0.283 0.533,0.352 0.18,0.07 0.369,0.105 0.567,0.105 0.352,0 0.658,-0.088 0.918,-0.264 0.26,-0.176 0.523,-0.473 0.787,-0.891 l 0.176,0.077 c -0.228,0.594 -0.543,1.048 -0.946,1.364 -0.404,0.315 -0.866,0.473 -1.386,0.473 -0.631,0 -1.132,-0.222 -1.502,-0.666 -0.37,-0.443 -0.555,-1.043 -0.555,-1.798 0,-0.814 0.214,-1.469 0.643,-1.964 0.429,-0.495 0.981,-0.742 1.656,-0.742 0.557,0 0.99,0.167 1.298,0.5 0.308,0.334 0.502,0.838 0.583,1.513 l -3.388,0 m 0.022,-0.352 2.244,0 c -0.074,-0.477 -0.187,-0.807 -0.341,-0.99 -0.154,-0.184 -0.4,-0.275 -0.737,-0.275 -0.66,0 -1.049,0.421 -1.166,1.265 m 6.734,-1.441 c 0.007,0 0.066,-0.037 0.176,-0.11 l 0.121,0 0.044,1.496 -0.165,0 c -0.125,-0.492 -0.279,-0.84 -0.462,-1.045 -0.184,-0.206 -0.433,-0.308 -0.748,-0.308 -0.25,0 -0.453,0.069 -0.611,0.209 -0.158,0.139 -0.236,0.319 -0.236,0.539 0,0.315 0.157,0.564 0.473,0.748 l 1.188,0.704 c 0.33,0.198 0.566,0.398 0.709,0.599 0.143,0.202 0.215,0.438 0.215,0.71 0,0.381 -0.153,0.711 -0.457,0.99 -0.304,0.278 -0.669,0.418 -1.094,0.418 -0.184,0 -0.429,-0.033 -0.737,-0.099 -0.308,-0.066 -0.499,-0.099 -0.572,-0.099 -0.11,0 -0.195,0.044 -0.253,0.132 l -0.143,0 0,-1.716 0.176,0 c 0.117,0.513 0.256,0.876 0.418,1.089 0.234,0.3 0.561,0.451 0.979,0.451 0.278,0 0.5,-0.072 0.665,-0.215 0.165,-0.143 0.248,-0.335 0.248,-0.577 0,-0.33 -0.191,-0.605 -0.572,-0.825 l -0.638,-0.363 c -0.47,-0.264 -0.802,-0.517 -0.996,-0.759 -0.194,-0.242 -0.291,-0.517 -0.291,-0.825 0,-0.396 0.141,-0.721 0.423,-0.974 0.282,-0.253 0.64,-0.379 1.073,-0.379 0.242,0 0.469,0.035 0.682,0.104 0.212,0.07 0.341,0.105 0.385,0.105"
       id="path118"
       inkscape:connector-curvature="0" />
    <path
       style="display:inline;fill:#1f6268"
       class="Lyrics"
       d="m 254.665,104.364 0,3.366 c 0.11,-0.271 0.308,-0.495 0.594,-0.671 0.286,-0.176 0.597,-0.264 0.935,-0.264 0.55,0 1.01,0.229 1.38,0.688 0.37,0.458 0.556,1.024 0.556,1.699 0,0.785 -0.248,1.445 -0.743,1.98 -0.495,0.535 -1.105,0.803 -1.831,0.803 -0.44,0 -0.853,-0.075 -1.238,-0.225 -0.385,-0.151 -0.577,-0.31 -0.577,-0.479 l 0,-5.709 c 0,-0.227 -0.035,-0.378 -0.105,-0.451 -0.07,-0.073 -0.214,-0.11 -0.434,-0.11 -0.081,0 -0.143,0.004 -0.187,0.011 l 0,-0.176 c 0.564,-0.139 1.096,-0.301 1.595,-0.484 l 0.055,0.022 m 0,3.949 0,2.772 c 0,0.139 0.106,0.262 0.319,0.369 0.212,0.106 0.462,0.159 0.748,0.159 0.454,0 0.806,-0.169 1.056,-0.506 0.249,-0.337 0.374,-0.81 0.374,-1.419 0,-0.667 -0.127,-1.201 -0.38,-1.6 -0.253,-0.4 -0.596,-0.6 -1.028,-0.6 -0.286,0 -0.539,0.084 -0.759,0.253 -0.22,0.169 -0.33,0.359 -0.33,0.572 m 4.807,0.495 c 0.014,0.462 0.077,0.86 0.187,1.194 0.11,0.333 0.253,0.583 0.429,0.748 0.176,0.165 0.353,0.282 0.533,0.352 0.18,0.069 0.369,0.104 0.567,0.104 0.352,0 0.658,-0.088 0.918,-0.264 0.26,-0.176 0.523,-0.473 0.787,-0.891 l 0.176,0.077 c -0.228,0.594 -0.543,1.049 -0.946,1.364 -0.404,0.315 -0.866,0.473 -1.386,0.473 -0.631,0 -1.132,-0.222 -1.502,-0.665 -0.37,-0.444 -0.555,-1.044 -0.555,-1.799 0,-0.814 0.214,-1.468 0.643,-1.963 0.429,-0.495 0.981,-0.743 1.656,-0.743 0.557,0 0.99,0.167 1.298,0.501 0.308,0.333 0.502,0.837 0.583,1.512 l -3.388,0 m 0.022,-0.352 2.244,0 c -0.074,-0.477 -0.187,-0.807 -0.341,-0.99 -0.154,-0.183 -0.4,-0.275 -0.737,-0.275 -0.66,0 -1.049,0.422 -1.166,1.265 m 4.853,0.352 c 0.014,0.462 0.077,0.86 0.187,1.194 0.11,0.333 0.253,0.583 0.429,0.748 0.176,0.165 0.353,0.282 0.533,0.352 0.18,0.069 0.369,0.104 0.567,0.104 0.352,0 0.658,-0.088 0.918,-0.264 0.26,-0.176 0.523,-0.473 0.787,-0.891 l 0.176,0.077 c -0.228,0.594 -0.543,1.049 -0.946,1.364 -0.404,0.315 -0.866,0.473 -1.386,0.473 -0.631,0 -1.132,-0.222 -1.502,-0.665 -0.37,-0.444 -0.555,-1.044 -0.555,-1.799 0,-0.814 0.214,-1.468 0.643,-1.963 0.429,-0.495 0.981,-0.743 1.656,-0.743 0.557,0 0.99,0.167 1.298,0.501 0.308,0.333 0.502,0.837 0.583,1.512 l -3.388,0 m 0.022,-0.352 2.244,0 c -0.074,-0.477 -0.187,-0.807 -0.341,-0.99 -0.154,-0.183 -0.4,-0.275 -0.737,-0.275 -0.66,0 -1.049,0.422 -1.166,1.265 m 6.734,-1.441 c 0.007,0 0.066,-0.037 0.176,-0.11 l 0.121,0 0.044,1.496 -0.165,0 c -0.125,-0.491 -0.279,-0.84 -0.462,-1.045 -0.184,-0.205 -0.433,-0.308 -0.748,-0.308 -0.25,0 -0.453,0.07 -0.611,0.209 -0.158,0.139 -0.236,0.319 -0.236,0.539 0,0.315 0.157,0.565 0.473,0.748 l 1.188,0.704 c 0.33,0.198 0.566,0.398 0.709,0.6 0.143,0.201 0.215,0.438 0.215,0.709 0,0.381 -0.153,0.711 -0.457,0.99 -0.304,0.279 -0.669,0.418 -1.094,0.418 -0.184,0 -0.429,-0.033 -0.737,-0.099 -0.308,-0.066 -0.499,-0.099 -0.572,-0.099 -0.11,0 -0.195,0.044 -0.253,0.132 l -0.143,0 0,-1.716 0.176,0 c 0.117,0.513 0.256,0.876 0.418,1.089 0.234,0.301 0.561,0.451 0.979,0.451 0.278,0 0.5,-0.071 0.665,-0.214 0.165,-0.143 0.248,-0.336 0.248,-0.578 0,-0.33 -0.191,-0.605 -0.572,-0.825 l -0.638,-0.363 c -0.47,-0.264 -0.802,-0.517 -0.996,-0.759 -0.194,-0.242 -0.291,-0.517 -0.291,-0.825 0,-0.396 0.141,-0.72 0.423,-0.973 0.282,-0.253 0.64,-0.38 1.073,-0.38 0.242,0 0.469,0.035 0.682,0.105 0.212,0.069 0.341,0.104 0.385,0.104"
       id="path120"
       inkscape:connector-curvature="0" />
  </g>
  <g
     inkscape:groupmode="layer"
     id="layer9"
     inkscape:label="Layer 9"
     style="display:none">
    <polyline
       style="display:inline;fill:none;stroke:#1f6268;stroke-width:0.64999998;stroke-linecap:round;stroke-linejoin:bevel"
       class="Stem"
       points="296.64,150.919 296.64,129.981"
       id="polyline20" />
    <polyline
       style="display:inline;fill:none;stroke:#1f6268;stroke-width:0.64999998;stroke-linecap:round;stroke-linejoin:bevel"
       class="Stem"
       points="290.707,70.2916 290.707,86.8535"
       id="polyline22" />
    <path
       style="display:inline;fill:#1f6268"
       class="Note"
       d="m 294.777,144.103 c 0.625,0 1.152,0.163 1.582,0.489 0.403,0.351 0.605,0.794 0.605,1.328 0,0.898 -0.462,1.738 -1.386,2.519 -0.938,0.782 -1.941,1.172 -3.008,1.172 -0.625,0 -1.153,-0.163 -1.582,-0.488 -0.404,-0.352 -0.606,-0.794 -0.606,-1.328 0,-0.899 0.469,-1.738 1.406,-2.52 0.912,-0.781 1.908,-1.172 2.989,-1.172"
       id="path56"
       inkscape:connector-curvature="0" />
    <path
       style="display:inline;fill:#1f6268"
       class="Note"
       d="m 294.777,149.104 c 0.625,0 1.152,0.162 1.582,0.488 0.403,0.352 0.605,0.794 0.605,1.328 0,0.899 -0.462,1.738 -1.386,2.52 -0.938,0.781 -1.941,1.172 -3.008,1.172 -0.625,0 -1.153,-0.163 -1.582,-0.489 -0.404,-0.351 -0.606,-0.794 -0.606,-1.328 0,-0.898 0.469,-1.738 1.406,-2.519 0.912,-0.782 1.908,-1.172 2.989,-1.172"
       id="path58"
       inkscape:connector-curvature="0" />
    <path
       style="display:inline;fill:#1f6268"
       class="Note"
       d="m 294.777,66.5985 c 0.625,0 1.152,0.1628 1.582,0.4883 0.403,0.3516 0.605,0.7943 0.605,1.3281 0,0.8985 -0.462,1.7383 -1.386,2.5196 -0.938,0.7812 -1.941,1.1718 -3.008,1.1718 -0.625,0 -1.153,-0.1627 -1.582,-0.4882 -0.404,-0.3516 -0.606,-0.7943 -0.606,-1.3282 0,-0.8984 0.469,-1.7382 1.406,-2.5195 0.912,-0.7812 1.908,-1.1719 2.989,-1.1719"
       id="path60"
       inkscape:connector-curvature="0" />
    <path
       style="display:inline;fill:#1f6268"
       class="Rest"
       d="m 311.244,77.7517 c 0.377,0 0.664,0.1041 0.859,0.3125 0.195,0.2343 0.3,0.4557 0.313,0.664 0.026,0.1953 0.091,0.4167 0.195,0.6641 0.117,0.2083 0.267,0.3125 0.449,0.3125 0.143,0 0.358,-0.1628 0.645,-0.4883 0.26,-0.2864 0.449,-0.5404 0.566,-0.7617 0.065,-0.1302 0.156,-0.1953 0.274,-0.1953 l 0.019,0 c 0.13,0.013 0.221,0.0781 0.274,0.1953 l -2.461,8.3984 c -0.131,0.1302 -0.313,0.1953 -0.547,0.1953 -0.235,0 -0.417,-0.0651 -0.547,-0.1953 l 2.344,-6.5234 c -0.834,0.2995 -1.537,0.4492 -2.11,0.4492 -0.469,0 -0.872,-0.1497 -1.211,-0.4492 -0.351,-0.2865 -0.527,-0.6641 -0.527,-1.1328 0,-0.4037 0.143,-0.7422 0.43,-1.0156 0.286,-0.2865 0.631,-0.4297 1.035,-0.4297"
       id="path92"
       inkscape:connector-curvature="0" />
    <path
       style="display:inline;fill:#1f6268"
       class="Hook"
       d="m 294.933,72.3809 c 0.299,0 0.618,0.4883 0.957,1.4648 0.326,0.9636 0.488,1.8815 0.488,2.7539 0,0.7422 -0.182,1.4779 -0.547,2.2071 -0.377,0.7812 -0.826,1.4583 -1.347,2.0312 l -1.602,1.7969 c -0.495,0.5729 -0.937,1.237 -1.328,1.9922 -0.365,0.7291 -0.547,1.4713 -0.547,2.2265 l -0.625,0 0,-5 0.625,0 c 0.352,-0.2213 0.873,-0.5729 1.563,-1.0546 0.312,-0.2344 0.781,-0.625 1.406,-1.1719 0.508,-0.4688 0.892,-0.9505 1.152,-1.4453 0.274,-0.5209 0.41,-1.0482 0.41,-1.5821 0,-1.2369 -0.358,-2.4674 -1.074,-3.6914 0,0 0,-0.026 0,-0.0781 0,-0.1172 0.039,-0.2148 0.117,-0.293 0.105,-0.1041 0.222,-0.1562 0.352,-0.1562"
       id="path106"
       inkscape:connector-curvature="0" />
    <path
       style="display:inline;fill:#1f6268"
       class="Lyrics"
       d="m 285.793,164.368 0,3.366 c 0.11,-0.271 0.308,-0.495 0.594,-0.671 0.286,-0.176 0.598,-0.264 0.935,-0.264 0.55,0 1.01,0.229 1.381,0.687 0.37,0.459 0.555,1.025 0.555,1.7 0,0.785 -0.247,1.445 -0.742,1.98 -0.495,0.535 -1.106,0.803 -1.832,0.803 -0.44,0 -0.852,-0.075 -1.237,-0.226 -0.385,-0.15 -0.578,-0.309 -0.578,-0.478 l 0,-5.709 c 0,-0.227 -0.035,-0.378 -0.104,-0.451 -0.07,-0.073 -0.215,-0.11 -0.435,-0.11 -0.08,0 -0.143,0.004 -0.187,0.011 l 0,-0.176 c 0.565,-0.139 1.097,-0.301 1.595,-0.484 l 0.055,0.022 m 0,3.949 0,2.772 c 0,0.139 0.107,0.262 0.319,0.368 0.213,0.107 0.462,0.16 0.748,0.16 0.455,0 0.807,-0.169 1.056,-0.506 0.25,-0.337 0.374,-0.81 0.374,-1.419 0,-0.667 -0.126,-1.201 -0.379,-1.601 -0.253,-0.399 -0.596,-0.599 -1.029,-0.599 -0.286,0 -0.539,0.084 -0.759,0.253 -0.22,0.169 -0.33,0.359 -0.33,0.572 m 4.807,0.495 c 0.015,0.462 0.077,0.86 0.187,1.193 0.11,0.334 0.253,0.583 0.429,0.748 0.176,0.165 0.354,0.283 0.534,0.352 0.179,0.07 0.368,0.105 0.566,0.105 0.352,0 0.658,-0.088 0.919,-0.264 0.26,-0.176 0.522,-0.473 0.786,-0.891 l 0.176,0.077 c -0.227,0.594 -0.542,1.049 -0.946,1.364 -0.403,0.315 -0.865,0.473 -1.386,0.473 -0.63,0 -1.131,-0.222 -1.501,-0.666 -0.371,-0.443 -0.556,-1.043 -0.556,-1.798 0,-0.814 0.215,-1.469 0.644,-1.964 0.429,-0.495 0.981,-0.742 1.655,-0.742 0.558,0 0.99,0.167 1.298,0.5 0.308,0.334 0.503,0.838 0.583,1.513 l -3.388,0 m 0.022,-0.352 2.244,0 c -0.073,-0.477 -0.187,-0.807 -0.341,-0.99 -0.154,-0.183 -0.399,-0.275 -0.737,-0.275 -0.66,0 -1.048,0.422 -1.166,1.265 m 4.853,0.352 c 0.015,0.462 0.077,0.86 0.187,1.193 0.11,0.334 0.253,0.583 0.429,0.748 0.176,0.165 0.354,0.283 0.534,0.352 0.179,0.07 0.368,0.105 0.566,0.105 0.352,0 0.658,-0.088 0.919,-0.264 0.26,-0.176 0.522,-0.473 0.786,-0.891 l 0.176,0.077 c -0.227,0.594 -0.542,1.049 -0.946,1.364 -0.403,0.315 -0.865,0.473 -1.386,0.473 -0.63,0 -1.131,-0.222 -1.501,-0.666 -0.371,-0.443 -0.556,-1.043 -0.556,-1.798 0,-0.814 0.215,-1.469 0.644,-1.964 0.429,-0.495 0.981,-0.742 1.655,-0.742 0.558,0 0.99,0.167 1.298,0.5 0.308,0.334 0.503,0.838 0.583,1.513 l -3.388,0 m 0.022,-0.352 2.244,0 c -0.073,-0.477 -0.187,-0.807 -0.341,-0.99 -0.154,-0.183 -0.399,-0.275 -0.737,-0.275 -0.66,0 -1.048,0.422 -1.166,1.265 m 6.734,-1.441 c 0.008,0 0.066,-0.037 0.176,-0.11 l 0.121,0 0.044,1.496 -0.165,0 c -0.124,-0.491 -0.278,-0.84 -0.462,-1.045 -0.183,-0.205 -0.432,-0.308 -0.748,-0.308 -0.249,0 -0.453,0.07 -0.61,0.209 -0.158,0.139 -0.237,0.319 -0.237,0.539 0,0.315 0.158,0.565 0.473,0.748 l 1.188,0.704 c 0.33,0.198 0.567,0.398 0.71,0.599 0.143,0.202 0.214,0.439 0.214,0.71 0,0.381 -0.152,0.711 -0.456,0.99 -0.305,0.279 -0.669,0.418 -1.095,0.418 -0.183,0 -0.429,-0.033 -0.737,-0.099 -0.308,-0.066 -0.498,-0.099 -0.572,-0.099 -0.11,0 -0.194,0.044 -0.253,0.132 l -0.143,0 0,-1.716 0.176,0 c 0.118,0.513 0.257,0.876 0.418,1.089 0.235,0.301 0.561,0.451 0.979,0.451 0.279,0 0.501,-0.072 0.666,-0.215 0.165,-0.143 0.247,-0.335 0.247,-0.577 0,-0.33 -0.19,-0.605 -0.572,-0.825 l -0.638,-0.363 c -0.469,-0.264 -0.801,-0.517 -0.995,-0.759 -0.195,-0.242 -0.292,-0.517 -0.292,-0.825 0,-0.396 0.141,-0.721 0.424,-0.974 0.282,-0.253 0.64,-0.379 1.072,-0.379 0.242,0 0.47,0.035 0.682,0.104 0.213,0.07 0.341,0.105 0.385,0.105"
       id="path114"
       inkscape:connector-curvature="0" />
    <path
       style="display:inline;fill:#1f6268"
       class="Lyrics"
       d="m 285.793,104.364 0,3.366 c 0.11,-0.271 0.308,-0.495 0.594,-0.671 0.286,-0.176 0.598,-0.264 0.935,-0.264 0.55,0 1.01,0.229 1.381,0.688 0.37,0.458 0.555,1.024 0.555,1.699 0,0.785 -0.247,1.445 -0.742,1.98 -0.495,0.535 -1.106,0.803 -1.832,0.803 -0.44,0 -0.852,-0.075 -1.237,-0.225 -0.385,-0.151 -0.578,-0.31 -0.578,-0.479 l 0,-5.709 c 0,-0.227 -0.035,-0.378 -0.104,-0.451 -0.07,-0.073 -0.215,-0.11 -0.435,-0.11 -0.08,0 -0.143,0.004 -0.187,0.011 l 0,-0.176 c 0.565,-0.139 1.097,-0.301 1.595,-0.484 l 0.055,0.022 m 0,3.949 0,2.772 c 0,0.139 0.107,0.262 0.319,0.369 0.213,0.106 0.462,0.159 0.748,0.159 0.455,0 0.807,-0.169 1.056,-0.506 0.25,-0.337 0.374,-0.81 0.374,-1.419 0,-0.667 -0.126,-1.201 -0.379,-1.6 -0.253,-0.4 -0.596,-0.6 -1.029,-0.6 -0.286,0 -0.539,0.084 -0.759,0.253 -0.22,0.169 -0.33,0.359 -0.33,0.572 m 4.807,0.495 c 0.015,0.462 0.077,0.86 0.187,1.194 0.11,0.333 0.253,0.583 0.429,0.748 0.176,0.165 0.354,0.282 0.534,0.352 0.179,0.069 0.368,0.104 0.566,0.104 0.352,0 0.658,-0.088 0.919,-0.264 0.26,-0.176 0.522,-0.473 0.786,-0.891 l 0.176,0.077 c -0.227,0.594 -0.542,1.049 -0.946,1.364 -0.403,0.315 -0.865,0.473 -1.386,0.473 -0.63,0 -1.131,-0.222 -1.501,-0.665 -0.371,-0.444 -0.556,-1.044 -0.556,-1.799 0,-0.814 0.215,-1.468 0.644,-1.963 0.429,-0.495 0.981,-0.743 1.655,-0.743 0.558,0 0.99,0.167 1.298,0.501 0.308,0.333 0.503,0.837 0.583,1.512 l -3.388,0 m 0.022,-0.352 2.244,0 c -0.073,-0.477 -0.187,-0.807 -0.341,-0.99 -0.154,-0.183 -0.399,-0.275 -0.737,-0.275 -0.66,0 -1.048,0.422 -1.166,1.265 m 4.853,0.352 c 0.015,0.462 0.077,0.86 0.187,1.194 0.11,0.333 0.253,0.583 0.429,0.748 0.176,0.165 0.354,0.282 0.534,0.352 0.179,0.069 0.368,0.104 0.566,0.104 0.352,0 0.658,-0.088 0.919,-0.264 0.26,-0.176 0.522,-0.473 0.786,-0.891 l 0.176,0.077 c -0.227,0.594 -0.542,1.049 -0.946,1.364 -0.403,0.315 -0.865,0.473 -1.386,0.473 -0.63,0 -1.131,-0.222 -1.501,-0.665 -0.371,-0.444 -0.556,-1.044 -0.556,-1.799 0,-0.814 0.215,-1.468 0.644,-1.963 0.429,-0.495 0.981,-0.743 1.655,-0.743 0.558,0 0.99,0.167 1.298,0.501 0.308,0.333 0.503,0.837 0.583,1.512 l -3.388,0 m 0.022,-0.352 2.244,0 c -0.073,-0.477 -0.187,-0.807 -0.341,-0.99 -0.154,-0.183 -0.399,-0.275 -0.737,-0.275 -0.66,0 -1.048,0.422 -1.166,1.265 m 6.734,-1.441 c 0.008,0 0.066,-0.037 0.176,-0.11 l 0.121,0 0.044,1.496 -0.165,0 c -0.124,-0.491 -0.278,-0.84 -0.462,-1.045 -0.183,-0.205 -0.432,-0.308 -0.748,-0.308 -0.249,0 -0.453,0.07 -0.61,0.209 -0.158,0.139 -0.237,0.319 -0.237,0.539 0,0.315 0.158,0.565 0.473,0.748 l 1.188,0.704 c 0.33,0.198 0.567,0.398 0.71,0.6 0.143,0.201 0.214,0.438 0.214,0.709 0,0.381 -0.152,0.711 -0.456,0.99 -0.305,0.279 -0.669,0.418 -1.095,0.418 -0.183,0 -0.429,-0.033 -0.737,-0.099 -0.308,-0.066 -0.498,-0.099 -0.572,-0.099 -0.11,0 -0.194,0.044 -0.253,0.132 l -0.143,0 0,-1.716 0.176,0 c 0.118,0.513 0.257,0.876 0.418,1.089 0.235,0.301 0.561,0.451 0.979,0.451 0.279,0 0.501,-0.071 0.666,-0.214 0.165,-0.143 0.247,-0.336 0.247,-0.578 0,-0.33 -0.19,-0.605 -0.572,-0.825 l -0.638,-0.363 c -0.469,-0.264 -0.801,-0.517 -0.995,-0.759 -0.195,-0.242 -0.292,-0.517 -0.292,-0.825 0,-0.396 0.141,-0.72 0.424,-0.973 0.282,-0.253 0.64,-0.38 1.072,-0.38 0.242,0 0.47,0.035 0.682,0.105 0.213,0.069 0.341,0.104 0.385,0.104"
       id="path116"
       inkscape:connector-curvature="0" />
  </g>
  <g
     inkscape:groupmode="layer"
     id="layer10"
     inkscape:label="Layer 10"
     style="display:none">
    <polyline
       style="display:inline;fill:none;stroke:#1f6268;stroke-width:0.64999998;stroke-linecap:round;stroke-linejoin:bevel"
       class="Stem"
       points="335.732,203.593 335.732,188.11"
       id="polyline16" />
    <polyline
       style="display:inline;fill:none;stroke:#1f6268;stroke-width:0.64999998;stroke-linecap:round;stroke-linejoin:bevel"
       class="Stem"
       points="329.437,70.1365 329.437,86.8535"
       id="polyline18" />
    <path
       style="display:inline;fill:#1f6268"
       class="Note"
       d="m 335.421,203.052 c 0,-0.221 -0.085,-0.41 -0.254,-0.566 -0.169,-0.169 -0.364,-0.254 -0.586,-0.254 -0.39,0 -1.178,0.391 -2.363,1.172 -1.224,0.794 -1.973,1.361 -2.246,1.699 -0.143,0.182 -0.215,0.371 -0.215,0.567 0,0.221 0.085,0.41 0.254,0.566 0.156,0.169 0.351,0.254 0.586,0.254 0.377,0 1.172,-0.391 2.383,-1.172 1.198,-0.781 1.94,-1.348 2.226,-1.699 0.143,-0.17 0.215,-0.358 0.215,-0.567 m -1.035,-1.445 c 1.12,0 1.68,0.482 1.68,1.445 0,0.469 -0.137,1.016 -0.411,1.641 -0.273,0.612 -0.638,1.081 -1.093,1.406 -1.003,0.677 -2.259,1.016 -3.77,1.016 -1.12,0 -1.68,-0.482 -1.68,-1.445 0,-0.43 0.137,-0.971 0.411,-1.622 0.26,-0.625 0.625,-1.1 1.093,-1.425 1.003,-0.677 2.259,-1.016 3.77,-1.016"
       id="path52"
       inkscape:connector-curvature="0" />
    <path
       style="display:inline;fill:#1f6268"
       class="Note"
       d="m 335.421,68.0438 c 0,-0.2213 -0.085,-0.4101 -0.254,-0.5664 -0.169,-0.1692 -0.364,-0.2539 -0.586,-0.2539 -0.39,0 -1.178,0.3907 -2.363,1.1719 -1.224,0.7943 -1.973,1.3607 -2.246,1.6992 -0.143,0.1823 -0.215,0.3711 -0.215,0.5664 0,0.2214 0.085,0.4102 0.254,0.5664 0.156,0.1693 0.351,0.2539 0.586,0.2539 0.377,0 1.172,-0.3906 2.383,-1.1718 1.198,-0.7813 1.94,-1.3477 2.226,-1.6992 0.143,-0.1693 0.215,-0.3581 0.215,-0.5665 m -1.035,-1.4453 c 1.12,0 1.68,0.4818 1.68,1.4453 0,0.4688 -0.137,1.0157 -0.411,1.6407 -0.273,0.612 -0.638,1.0807 -1.093,1.4062 -1.003,0.6771 -2.259,1.0156 -3.77,1.0156 -1.12,0 -1.68,-0.4817 -1.68,-1.4453 0,-0.4297 0.137,-0.97 0.411,-1.6211 0.26,-0.625 0.625,-1.1002 1.093,-1.4257 1.003,-0.6771 2.259,-1.0157 3.77,-1.0157"
       id="path54"
       inkscape:connector-curvature="0" />
    <path
       style="display:inline;fill:#1f6268"
       class="Rest"
       d="m 329.176,140.295 c 0,-0.235 0.13,-0.495 0.39,-0.782 0.196,-0.208 0.482,-0.455 0.86,-0.742 0.286,-0.195 0.566,-0.488 0.84,-0.879 0.26,-0.377 0.39,-0.788 0.39,-1.23 0,-0.521 -0.169,-0.983 -0.508,-1.387 l -0.703,-0.84 c -0.052,-0.052 -0.078,-0.117 -0.078,-0.195 0,-0.078 0.039,-0.15 0.117,-0.215 0.091,-0.065 0.17,-0.098 0.235,-0.098 0.091,0 0.162,0.039 0.215,0.118 l 3.027,3.593 c 0.13,0.17 0.195,0.339 0.195,0.508 0,0.234 -0.13,0.495 -0.39,0.781 -0.17,0.183 -0.45,0.43 -0.84,0.743 -0.3,0.182 -0.586,0.475 -0.86,0.878 -0.26,0.378 -0.39,0.788 -0.39,1.231 0,0.547 0.156,1.009 0.468,1.387 l 1.68,1.972 c 0.039,0.039 0.072,0.104 0.098,0.196 0,0.091 -0.033,0.169 -0.098,0.234 -0.091,0.065 -0.169,0.098 -0.234,0.098 -0.026,0 -0.13,-0.072 -0.313,-0.215 -0.195,-0.156 -0.455,-0.306 -0.781,-0.449 -0.365,-0.144 -0.723,-0.215 -1.074,-0.215 -0.326,0 -0.593,0.091 -0.801,0.273 -0.182,0.182 -0.273,0.534 -0.273,1.055 0,0.794 0.188,1.419 0.566,1.875 0.039,0.052 0.046,0.117 0.02,0.195 -0.027,0.052 -0.072,0.078 -0.137,0.078 -0.091,0 -0.293,-0.234 -0.606,-0.703 -0.325,-0.495 -0.631,-1.061 -0.918,-1.699 -0.299,-0.677 -0.449,-1.237 -0.449,-1.68 0,-0.56 0.267,-0.84 0.801,-0.84 0.612,0 1.406,0.209 2.383,0.625 l -2.637,-3.164 c -0.13,-0.169 -0.195,-0.338 -0.195,-0.507"
       id="path90"
       inkscape:connector-curvature="0" />
    <path
       style="display:inline;fill:#1f6268"
       class="Lyrics"
       d="m 324.704,224.372 0,3.366 c 0.11,-0.272 0.308,-0.495 0.594,-0.671 0.286,-0.176 0.598,-0.264 0.935,-0.264 0.55,0 1.01,0.229 1.38,0.687 0.371,0.459 0.556,1.025 0.556,1.7 0,0.784 -0.248,1.444 -0.743,1.98 -0.495,0.535 -1.105,0.803 -1.831,0.803 -0.44,0 -0.853,-0.075 -1.238,-0.226 -0.385,-0.15 -0.577,-0.31 -0.577,-0.478 l 0,-5.709 c 0,-0.228 -0.035,-0.378 -0.105,-0.451 -0.069,-0.074 -0.214,-0.11 -0.434,-0.11 -0.081,0 -0.143,0.003 -0.187,0.011 l 0,-0.176 c 0.565,-0.14 1.096,-0.301 1.595,-0.484 l 0.055,0.022 m 0,3.949 0,2.772 c 0,0.139 0.106,0.262 0.319,0.368 0.213,0.107 0.462,0.16 0.748,0.16 0.455,0 0.807,-0.169 1.056,-0.506 0.249,-0.338 0.374,-0.811 0.374,-1.419 0,-0.668 -0.127,-1.201 -0.38,-1.601 -0.253,-0.399 -0.595,-0.599 -1.028,-0.599 -0.286,0 -0.539,0.084 -0.759,0.253 -0.22,0.168 -0.33,0.359 -0.33,0.572 m 4.807,0.495 c 0.015,0.462 0.077,0.86 0.187,1.193 0.11,0.334 0.253,0.583 0.429,0.748 0.176,0.165 0.354,0.283 0.533,0.352 0.18,0.07 0.369,0.105 0.567,0.105 0.352,0 0.658,-0.088 0.918,-0.264 0.261,-0.176 0.523,-0.473 0.787,-0.891 l 0.176,0.077 c -0.227,0.594 -0.543,1.048 -0.946,1.364 -0.403,0.315 -0.865,0.473 -1.386,0.473 -0.631,0 -1.131,-0.222 -1.502,-0.666 -0.37,-0.443 -0.555,-1.043 -0.555,-1.798 0,-0.814 0.214,-1.469 0.643,-1.964 0.429,-0.495 0.981,-0.742 1.656,-0.742 0.557,0 0.99,0.167 1.298,0.5 0.308,0.334 0.502,0.838 0.583,1.513 l -3.388,0 m 0.022,-0.352 2.244,0 c -0.073,-0.477 -0.187,-0.807 -0.341,-0.99 -0.154,-0.184 -0.4,-0.275 -0.737,-0.275 -0.66,0 -1.049,0.421 -1.166,1.265 m 4.853,0.352 c 0.015,0.462 0.077,0.86 0.187,1.193 0.11,0.334 0.253,0.583 0.429,0.748 0.176,0.165 0.354,0.283 0.533,0.352 0.18,0.07 0.369,0.105 0.567,0.105 0.352,0 0.658,-0.088 0.918,-0.264 0.261,-0.176 0.523,-0.473 0.787,-0.891 l 0.176,0.077 c -0.227,0.594 -0.543,1.048 -0.946,1.364 -0.403,0.315 -0.865,0.473 -1.386,0.473 -0.631,0 -1.131,-0.222 -1.502,-0.666 -0.37,-0.443 -0.555,-1.043 -0.555,-1.798 0,-0.814 0.214,-1.469 0.643,-1.964 0.429,-0.495 0.981,-0.742 1.656,-0.742 0.557,0 0.99,0.167 1.298,0.5 0.308,0.334 0.502,0.838 0.583,1.513 l -3.388,0 m 0.022,-0.352 2.244,0 c -0.073,-0.477 -0.187,-0.807 -0.341,-0.99 -0.154,-0.184 -0.4,-0.275 -0.737,-0.275 -0.66,0 -1.049,0.421 -1.166,1.265 m 6.734,-1.441 c 0.007,0 0.066,-0.037 0.176,-0.11 l 0.121,0 0.044,1.496 -0.165,0 c -0.125,-0.492 -0.279,-0.84 -0.462,-1.045 -0.183,-0.206 -0.433,-0.308 -0.748,-0.308 -0.249,0 -0.453,0.069 -0.611,0.209 -0.157,0.139 -0.236,0.319 -0.236,0.539 0,0.315 0.158,0.564 0.473,0.748 l 1.188,0.704 c 0.33,0.198 0.566,0.398 0.709,0.599 0.143,0.202 0.215,0.438 0.215,0.71 0,0.381 -0.152,0.711 -0.457,0.99 -0.304,0.278 -0.669,0.418 -1.094,0.418 -0.183,0 -0.429,-0.033 -0.737,-0.099 -0.308,-0.066 -0.499,-0.099 -0.572,-0.099 -0.11,0 -0.194,0.044 -0.253,0.132 l -0.143,0 0,-1.716 0.176,0 c 0.117,0.513 0.257,0.876 0.418,1.089 0.235,0.3 0.561,0.451 0.979,0.451 0.279,0 0.5,-0.072 0.665,-0.215 0.165,-0.143 0.248,-0.335 0.248,-0.577 0,-0.33 -0.191,-0.605 -0.572,-0.825 l -0.638,-0.363 c -0.469,-0.264 -0.801,-0.517 -0.996,-0.759 -0.194,-0.242 -0.291,-0.517 -0.291,-0.825 0,-0.396 0.141,-0.721 0.423,-0.974 0.283,-0.253 0.64,-0.379 1.073,-0.379 0.242,0 0.469,0.035 0.682,0.104 0.213,0.07 0.341,0.105 0.385,0.105"
       id="path110"
       inkscape:connector-curvature="0" />
    <path
       style="display:inline;fill:#1f6268"
       class="Lyrics"
       d="m 324.704,104.364 0,3.366 c 0.11,-0.271 0.308,-0.495 0.594,-0.671 0.286,-0.176 0.598,-0.264 0.935,-0.264 0.55,0 1.01,0.229 1.38,0.688 0.371,0.458 0.556,1.024 0.556,1.699 0,0.785 -0.248,1.445 -0.743,1.98 -0.495,0.535 -1.105,0.803 -1.831,0.803 -0.44,0 -0.853,-0.075 -1.238,-0.225 -0.385,-0.151 -0.577,-0.31 -0.577,-0.479 l 0,-5.709 c 0,-0.227 -0.035,-0.378 -0.105,-0.451 -0.069,-0.073 -0.214,-0.11 -0.434,-0.11 -0.081,0 -0.143,0.004 -0.187,0.011 l 0,-0.176 c 0.565,-0.139 1.096,-0.301 1.595,-0.484 l 0.055,0.022 m 0,3.949 0,2.772 c 0,0.139 0.106,0.262 0.319,0.369 0.213,0.106 0.462,0.159 0.748,0.159 0.455,0 0.807,-0.169 1.056,-0.506 0.249,-0.337 0.374,-0.81 0.374,-1.419 0,-0.667 -0.127,-1.201 -0.38,-1.6 -0.253,-0.4 -0.595,-0.6 -1.028,-0.6 -0.286,0 -0.539,0.084 -0.759,0.253 -0.22,0.169 -0.33,0.359 -0.33,0.572 m 4.807,0.495 c 0.015,0.462 0.077,0.86 0.187,1.194 0.11,0.333 0.253,0.583 0.429,0.748 0.176,0.165 0.354,0.282 0.533,0.352 0.18,0.069 0.369,0.104 0.567,0.104 0.352,0 0.658,-0.088 0.918,-0.264 0.261,-0.176 0.523,-0.473 0.787,-0.891 l 0.176,0.077 c -0.227,0.594 -0.543,1.049 -0.946,1.364 -0.403,0.315 -0.865,0.473 -1.386,0.473 -0.631,0 -1.131,-0.222 -1.502,-0.665 -0.37,-0.444 -0.555,-1.044 -0.555,-1.799 0,-0.814 0.214,-1.468 0.643,-1.963 0.429,-0.495 0.981,-0.743 1.656,-0.743 0.557,0 0.99,0.167 1.298,0.501 0.308,0.333 0.502,0.837 0.583,1.512 l -3.388,0 m 0.022,-0.352 2.244,0 c -0.073,-0.477 -0.187,-0.807 -0.341,-0.99 -0.154,-0.183 -0.4,-0.275 -0.737,-0.275 -0.66,0 -1.049,0.422 -1.166,1.265 m 4.853,0.352 c 0.015,0.462 0.077,0.86 0.187,1.194 0.11,0.333 0.253,0.583 0.429,0.748 0.176,0.165 0.354,0.282 0.533,0.352 0.18,0.069 0.369,0.104 0.567,0.104 0.352,0 0.658,-0.088 0.918,-0.264 0.261,-0.176 0.523,-0.473 0.787,-0.891 l 0.176,0.077 c -0.227,0.594 -0.543,1.049 -0.946,1.364 -0.403,0.315 -0.865,0.473 -1.386,0.473 -0.631,0 -1.131,-0.222 -1.502,-0.665 -0.37,-0.444 -0.555,-1.044 -0.555,-1.799 0,-0.814 0.214,-1.468 0.643,-1.963 0.429,-0.495 0.981,-0.743 1.656,-0.743 0.557,0 0.99,0.167 1.298,0.501 0.308,0.333 0.502,0.837 0.583,1.512 l -3.388,0 m 0.022,-0.352 2.244,0 c -0.073,-0.477 -0.187,-0.807 -0.341,-0.99 -0.154,-0.183 -0.4,-0.275 -0.737,-0.275 -0.66,0 -1.049,0.422 -1.166,1.265 m 6.734,-1.441 c 0.007,0 0.066,-0.037 0.176,-0.11 l 0.121,0 0.044,1.496 -0.165,0 c -0.125,-0.491 -0.279,-0.84 -0.462,-1.045 -0.183,-0.205 -0.433,-0.308 -0.748,-0.308 -0.249,0 -0.453,0.07 -0.611,0.209 -0.157,0.139 -0.236,0.319 -0.236,0.539 0,0.315 0.158,0.565 0.473,0.748 l 1.188,0.704 c 0.33,0.198 0.566,0.398 0.709,0.6 0.143,0.201 0.215,0.438 0.215,0.709 0,0.381 -0.152,0.711 -0.457,0.99 -0.304,0.279 -0.669,0.418 -1.094,0.418 -0.183,0 -0.429,-0.033 -0.737,-0.099 -0.308,-0.066 -0.499,-0.099 -0.572,-0.099 -0.11,0 -0.194,0.044 -0.253,0.132 l -0.143,0 0,-1.716 0.176,0 c 0.117,0.513 0.257,0.876 0.418,1.089 0.235,0.301 0.561,0.451 0.979,0.451 0.279,0 0.5,-0.071 0.665,-0.214 0.165,-0.143 0.248,-0.336 0.248,-0.578 0,-0.33 -0.191,-0.605 -0.572,-0.825 l -0.638,-0.363 c -0.469,-0.264 -0.801,-0.517 -0.996,-0.759 -0.194,-0.242 -0.291,-0.517 -0.291,-0.825 0,-0.396 0.141,-0.72 0.423,-0.973 0.283,-0.253 0.64,-0.38 1.073,-0.38 0.242,0 0.469,0.035 0.682,0.105 0.213,0.069 0.341,0.104 0.385,0.104"
       id="path112"
       inkscape:connector-curvature="0" />
  </g>
  <g
     inkscape:groupmode="layer"
     id="layer11"
     inkscape:label="Layer 11"
     style="display:none">
    <polyline
       style="display:inline;fill:none;stroke:#1f6268;stroke-width:0.64999998;stroke-linecap:round;stroke-linejoin:bevel"
       class="Stem"
       points="366.68,150.919 366.68,129.981"
       id="polyline14" />
    <path
       style="display:inline;fill:#1f6268"
       class="Note"
       d="m 364.816,144.103 c 0.625,0 1.152,0.163 1.582,0.489 0.404,0.351 0.606,0.794 0.606,1.328 0,0.898 -0.463,1.738 -1.387,2.519 -0.938,0.782 -1.94,1.172 -3.008,1.172 -0.625,0 -1.152,-0.163 -1.582,-0.488 -0.404,-0.352 -0.606,-0.794 -0.606,-1.328 0,-0.899 0.469,-1.738 1.407,-2.52 0.911,-0.781 1.907,-1.172 2.988,-1.172"
       id="path48"
       inkscape:connector-curvature="0" />
    <path
       style="display:inline;fill:#1f6268"
       class="Note"
       d="m 364.816,149.104 c 0.625,0 1.152,0.162 1.582,0.488 0.404,0.352 0.606,0.794 0.606,1.328 0,0.899 -0.463,1.738 -1.387,2.52 -0.938,0.781 -1.94,1.172 -3.008,1.172 -0.625,0 -1.152,-0.163 -1.582,-0.489 -0.404,-0.351 -0.606,-0.794 -0.606,-1.328 0,-0.898 0.469,-1.738 1.407,-2.519 0.911,-0.782 1.907,-1.172 2.988,-1.172"
       id="path50"
       inkscape:connector-curvature="0" />
    <path
       style="display:inline;fill:#1f6268"
       class="Lyrics"
       d="m 355.832,164.368 0,3.366 c 0.11,-0.271 0.308,-0.495 0.594,-0.671 0.286,-0.176 0.598,-0.264 0.935,-0.264 0.55,0 1.011,0.229 1.381,0.687 0.37,0.459 0.555,1.025 0.555,1.7 0,0.785 -0.247,1.445 -0.742,1.98 -0.495,0.535 -1.106,0.803 -1.832,0.803 -0.44,0 -0.852,-0.075 -1.237,-0.226 -0.385,-0.15 -0.578,-0.309 -0.578,-0.478 l 0,-5.709 c 0,-0.227 -0.034,-0.378 -0.104,-0.451 -0.07,-0.073 -0.215,-0.11 -0.435,-0.11 -0.08,0 -0.143,0.004 -0.187,0.011 l 0,-0.176 c 0.565,-0.139 1.097,-0.301 1.595,-0.484 l 0.055,0.022 m 0,3.949 0,2.772 c 0,0.139 0.107,0.262 0.319,0.368 0.213,0.107 0.462,0.16 0.748,0.16 0.455,0 0.807,-0.169 1.056,-0.506 0.25,-0.337 0.374,-0.81 0.374,-1.419 0,-0.667 -0.126,-1.201 -0.379,-1.601 -0.253,-0.399 -0.596,-0.599 -1.029,-0.599 -0.286,0 -0.539,0.084 -0.759,0.253 -0.22,0.169 -0.33,0.359 -0.33,0.572 m 4.807,0.495 c 0.015,0.462 0.077,0.86 0.187,1.193 0.11,0.334 0.253,0.583 0.429,0.748 0.176,0.165 0.354,0.283 0.534,0.352 0.18,0.07 0.368,0.105 0.566,0.105 0.352,0 0.659,-0.088 0.919,-0.264 0.26,-0.176 0.522,-0.473 0.786,-0.891 l 0.176,0.077 c -0.227,0.594 -0.542,1.049 -0.946,1.364 -0.403,0.315 -0.865,0.473 -1.386,0.473 -0.63,0 -1.131,-0.222 -1.501,-0.666 -0.37,-0.443 -0.556,-1.043 -0.556,-1.798 0,-0.814 0.215,-1.469 0.644,-1.964 0.429,-0.495 0.981,-0.742 1.655,-0.742 0.558,0 0.99,0.167 1.298,0.5 0.308,0.334 0.503,0.838 0.583,1.513 l -3.388,0 m 0.022,-0.352 2.244,0 c -0.073,-0.477 -0.187,-0.807 -0.341,-0.99 -0.154,-0.183 -0.399,-0.275 -0.737,-0.275 -0.66,0 -1.048,0.422 -1.166,1.265 m 4.853,0.352 c 0.015,0.462 0.077,0.86 0.187,1.193 0.11,0.334 0.253,0.583 0.429,0.748 0.176,0.165 0.354,0.283 0.534,0.352 0.18,0.07 0.368,0.105 0.566,0.105 0.352,0 0.659,-0.088 0.919,-0.264 0.26,-0.176 0.522,-0.473 0.786,-0.891 l 0.176,0.077 c -0.227,0.594 -0.542,1.049 -0.946,1.364 -0.403,0.315 -0.865,0.473 -1.386,0.473 -0.63,0 -1.131,-0.222 -1.501,-0.666 -0.37,-0.443 -0.556,-1.043 -0.556,-1.798 0,-0.814 0.215,-1.469 0.644,-1.964 0.429,-0.495 0.981,-0.742 1.655,-0.742 0.558,0 0.99,0.167 1.298,0.5 0.308,0.334 0.503,0.838 0.583,1.513 l -3.388,0 m 0.022,-0.352 2.244,0 c -0.073,-0.477 -0.187,-0.807 -0.341,-0.99 -0.154,-0.183 -0.399,-0.275 -0.737,-0.275 -0.66,0 -1.048,0.422 -1.166,1.265 m 6.734,-1.441 c 0.008,0 0.066,-0.037 0.176,-0.11 l 0.121,0 0.044,1.496 -0.165,0 c -0.124,-0.491 -0.278,-0.84 -0.462,-1.045 -0.183,-0.205 -0.432,-0.308 -0.748,-0.308 -0.249,0 -0.452,0.07 -0.61,0.209 -0.158,0.139 -0.237,0.319 -0.237,0.539 0,0.315 0.158,0.565 0.473,0.748 l 1.188,0.704 c 0.33,0.198 0.567,0.398 0.71,0.599 0.143,0.202 0.214,0.439 0.214,0.71 0,0.381 -0.152,0.711 -0.456,0.99 -0.304,0.279 -0.669,0.418 -1.095,0.418 -0.183,0 -0.429,-0.033 -0.737,-0.099 -0.308,-0.066 -0.498,-0.099 -0.572,-0.099 -0.11,0 -0.194,0.044 -0.253,0.132 l -0.143,0 0,-1.716 0.176,0 c 0.118,0.513 0.257,0.876 0.418,1.089 0.235,0.301 0.561,0.451 0.979,0.451 0.279,0 0.501,-0.072 0.666,-0.215 0.165,-0.143 0.247,-0.335 0.247,-0.577 0,-0.33 -0.19,-0.605 -0.572,-0.825 l -0.638,-0.363 c -0.469,-0.264 -0.801,-0.517 -0.995,-0.759 -0.194,-0.242 -0.292,-0.517 -0.292,-0.825 0,-0.396 0.142,-0.721 0.424,-0.974 0.282,-0.253 0.64,-0.379 1.072,-0.379 0.242,0 0.47,0.035 0.682,0.104 0.213,0.07 0.341,0.105 0.385,0.105"
       id="path108"
       inkscape:connector-curvature="0" />
  </g>
</svg>
