<?xml version="1.0" encoding="UTF-8" standalone="no"?>
<svg
   xmlns:dc="http://purl.org/dc/elements/1.1/"
   xmlns:cc="http://creativecommons.org/ns#"
   xmlns:rdf="http://www.w3.org/1999/02/22-rdf-syntax-ns#"
   xmlns:svg="http://www.w3.org/2000/svg"
   xmlns="http://www.w3.org/2000/svg"
   xmlns:sodipodi="http://sodipodi.sourceforge.net/DTD/sodipodi-0.dtd"
   xmlns:inkscape="http://www.inkscape.org/namespaces/inkscape"
   width="425.197px"
   height="284.598px"
   viewBox="0 0 425.197 284.598"
   version="1.2"
   id="svg2"
   inkscape:version="0.91 r13725"
   sodipodi:docname="staff-1.svg"
   inkscape:export-filename="/Users/jacob/git/mrjacobbloom.github.io/after_effects_stuff/music/staff-1.png"
   inkscape:export-xdpi="190.37379"
   inkscape:export-ydpi="190.37379">
  <metadata
     id="metadata72">
    <rdf:RDF>
      <cc:Work
         rdf:about="">
        <dc:format>image/svg+xml</dc:format>
        <dc:type
           rdf:resource="http://purl.org/dc/dcmitype/StillImage" />
        <dc:title>MUSIC</dc:title>
      </cc:Work>
    </rdf:RDF>
  </metadata>
  <defs
     id="defs70" />
  <sodipodi:namedview
     pagecolor="#ffffff"
     bordercolor="#666666"
     borderopacity="1"
     objecttolerance="10"
     gridtolerance="10"
     guidetolerance="10"
     inkscape:pageopacity="0"
     inkscape:pageshadow="2"
     inkscape:window-width="1243"
     inkscape:window-height="689"
     id="namedview68"
     showgrid="false"
     inkscape:zoom="1.4581477"
     inkscape:cx="161.69777"
     inkscape:cy="163.36043"
     inkscape:window-x="0"
     inkscape:window-y="0"
     inkscape:window-maximized="0"
     inkscape:current-layer="svg2" />
  <title
     id="title4">MUSIC</title>
  <desc
     id="desc6">Generated by MuseScore 2.3.2</desc>
  <polyline
     class="StaffLines"
     fill="none"
     stroke="#1f6268"
     stroke-width="0.40"
     stroke-linejoin="bevel"
     points="28.3465,71.8526 396.85,71.8526"
     id="polyline8" />
  <polyline
     class="StaffLines"
     fill="none"
     stroke="#1f6268"
     stroke-width="0.40"
     stroke-linejoin="bevel"
     points="28.3465,76.8529 396.85,76.8529"
     id="polyline10" />
  <polyline
     class="StaffLines"
     fill="none"
     stroke="#1f6268"
     stroke-width="0.40"
     stroke-linejoin="bevel"
     points="28.3465,81.8532 396.85,81.8532"
     id="polyline12" />
  <polyline
     class="StaffLines"
     fill="none"
     stroke="#1f6268"
     stroke-width="0.40"
     stroke-linejoin="bevel"
     points="28.3465,86.8535 396.85,86.8535"
     id="polyline14" />
  <polyline
     class="StaffLines"
     fill="none"
     stroke="#1f6268"
     stroke-width="0.40"
     stroke-linejoin="bevel"
     points="28.3465,91.8539 396.85,91.8539"
     id="polyline16" />
  <polyline
     class="StaffLines"
     fill="none"
     stroke="#1f6268"
     stroke-width="0.40"
     stroke-linejoin="bevel"
     points="28.3465,131.856 396.85,131.856"
     id="polyline18" />
  <polyline
     class="StaffLines"
     fill="none"
     stroke="#1f6268"
     stroke-width="0.40"
     stroke-linejoin="bevel"
     points="28.3465,136.857 396.85,136.857"
     id="polyline20" />
  <polyline
     class="StaffLines"
     fill="none"
     stroke="#1f6268"
     stroke-width="0.40"
     stroke-linejoin="bevel"
     points="28.3465,141.857 396.85,141.857"
     id="polyline22" />
  <polyline
     class="StaffLines"
     fill="none"
     stroke="#1f6268"
     stroke-width="0.40"
     stroke-linejoin="bevel"
     points="28.3465,146.857 396.85,146.857"
     id="polyline24" />
  <polyline
     class="StaffLines"
     fill="none"
     stroke="#1f6268"
     stroke-width="0.40"
     stroke-linejoin="bevel"
     points="28.3465,151.858 396.85,151.858"
     id="polyline26" />
  <polyline
     class="StaffLines"
     fill="none"
     stroke="#1f6268"
     stroke-width="0.40"
     stroke-linejoin="bevel"
     points="28.3465,191.86 396.85,191.86"
     id="polyline28" />
  <polyline
     class="StaffLines"
     fill="none"
     stroke="#1f6268"
     stroke-width="0.40"
     stroke-linejoin="bevel"
     points="28.3465,196.86 396.85,196.86"
     id="polyline30" />
  <polyline
     class="StaffLines"
     fill="none"
     stroke="#1f6268"
     stroke-width="0.40"
     stroke-linejoin="bevel"
     points="28.3465,201.861 396.85,201.861"
     id="polyline32" />
  <polyline
     class="StaffLines"
     fill="none"
     stroke="#1f6268"
     stroke-width="0.40"
     stroke-linejoin="bevel"
     points="28.3465,206.861 396.85,206.861"
     id="polyline34" />
  <polyline
     class="StaffLines"
     fill="none"
     stroke="#1f6268"
     stroke-width="0.40"
     stroke-linejoin="bevel"
     points="28.3465,211.861 396.85,211.861"
     id="polyline36" />
  <path
     class="Text"
     fill="#1f6268"
     d="M245.152,56.036 C245.179,55.9133 245.206,55.8066 245.232,55.716 C245.259,55.6253 245.316,55.4933 245.404,55.32 C245.492,55.1466 245.591,55.0026 245.7,54.888 C245.81,54.7733 245.962,54.6706 246.156,54.58 C246.351,54.4893 246.571,54.444 246.816,54.444 C247.232,54.444 247.583,54.58 247.868,54.852 C248.154,55.124 248.296,55.46 248.296,55.86 C248.296,56.4626 247.955,57.1213 247.272,57.836 L245.928,59.244 L247.84,59.244 C248.022,59.244 248.156,59.2133 248.244,59.152 C248.332,59.0906 248.451,58.9453 248.6,58.716 L248.704,58.756 L248.264,59.852 L245.144,59.852 L245.144,59.756 L246.568,58.244 C247.262,57.508 247.608,56.8146 247.608,56.164 C247.608,55.828 247.504,55.556 247.296,55.348 C247.088,55.14 246.816,55.036 246.48,55.036 C246.203,55.036 245.98,55.112 245.812,55.264 C245.644,55.416 245.48,55.6866 245.32,56.076 L245.152,56.036 "
     id="path38" />
  <path
     class="Text"
     fill="#1f6268"
     d="M27.8105,55.108 C27.7145,55.108 27.5225,55.1666 27.2345,55.284 L27.2345,55.172 L28.6745,54.444 L28.7385,54.46 L28.7385,59.26 C28.7385,59.452 28.7865,59.5773 28.8825,59.636 C28.9785,59.6946 29.1838,59.7266 29.4985,59.732 L29.4985,59.852 L27.2905,59.852 L27.2905,59.732 C27.5891,59.7213 27.7905,59.6773 27.8945,59.6 C27.9985,59.5226 28.0505,59.3586 28.0505,59.108 L28.0505,55.484 C28.0505,55.2333 27.9705,55.108 27.8105,55.108"
     id="path40" />
  <polyline
     class="BarLine"
     fill="none"
     stroke="#000000"
     stroke-width="0.80"
     stroke-linejoin="bevel"
     points="28.7465,71.8526 28.7465,211.861"
     id="polyline42"
     style="fill:none;fill-opacity:1;stroke:#1f6268;stroke-opacity:1" />
  <polyline
     class="BarLine"
     fill="none"
     stroke="#1f6268"
     stroke-width="0.80"
     stroke-linejoin="bevel"
     points="391.95,191.86 391.95,211.861"
     id="polyline44" />
  <polyline
     class="BarLine"
     fill="none"
     stroke="#1f6268"
     stroke-width="2.50"
     stroke-linejoin="bevel"
     points="395.6,191.86 395.6,211.861"
     id="polyline46" />
  <polyline
     class="BarLine"
     fill="none"
     stroke="#1f6268"
     stroke-width="0.80"
     stroke-linejoin="bevel"
     points="391.95,131.856 391.95,151.858"
     id="polyline48" />
  <polyline
     class="BarLine"
     fill="none"
     stroke="#1f6268"
     stroke-width="2.50"
     stroke-linejoin="bevel"
     points="395.6,131.856 395.6,151.858"
     id="polyline50" />
  <polyline
     class="BarLine"
     fill="none"
     stroke="#1f6268"
     stroke-width="0.80"
     stroke-linejoin="bevel"
     points="391.95,71.8526 391.95,91.8539"
     id="polyline52" />
  <polyline
     class="BarLine"
     fill="none"
     stroke="#1f6268"
     stroke-width="2.50"
     stroke-linejoin="bevel"
     points="395.6,71.8526 395.6,91.8539"
     id="polyline54" />
  <polyline
     class="BarLine"
     fill="none"
     stroke="#1f6268"
     stroke-width="0.80"
     stroke-linejoin="bevel"
     points="246.504,191.86 246.504,211.861"
     id="polyline56" />
  <polyline
     class="BarLine"
     fill="none"
     stroke="#1f6268"
     stroke-width="0.80"
     stroke-linejoin="bevel"
     points="246.504,131.856 246.504,151.858"
     id="polyline58" />
  <polyline
     class="BarLine"
     fill="none"
     stroke="#1f6268"
     stroke-width="0.80"
     stroke-linejoin="bevel"
     points="246.504,71.8526 246.504,91.8539"
     id="polyline60" />
  <path
     class="Clef"
     fill="#1f6268"
     d="M43.7725,195.083 C43.5772,194.888 43.4795,194.647 43.4795,194.36 C43.4795,194.074 43.5772,193.833 43.7725,193.638 C43.9678,193.443 44.2087,193.345 44.4951,193.345 C44.7816,193.345 45.0225,193.443 45.2178,193.638 C45.4131,193.833 45.5108,194.074 45.5108,194.36 C45.5108,194.647 45.4131,194.888 45.2178,195.083 C45.0225,195.278 44.7816,195.376 44.4951,195.376 C44.2087,195.376 43.9678,195.278 43.7725,195.083 M43.7725,200.083 C43.5772,199.888 43.4795,199.647 43.4795,199.36 C43.4795,199.074 43.5772,198.833 43.7725,198.638 C43.9678,198.443 44.2087,198.345 44.4951,198.345 C44.7816,198.345 45.0225,198.443 45.2178,198.638 C45.4131,198.833 45.5108,199.074 45.5108,199.36 C45.5108,199.647 45.4131,199.888 45.2178,200.083 C45.0225,200.278 44.7816,200.376 44.4951,200.376 C44.2087,200.376 43.9678,200.278 43.7725,200.083 M36.9951,191.607 C38.7269,191.607 40.1462,192.043 41.253,192.915 C42.3207,193.827 42.8545,195.064 42.8545,196.626 C42.8545,197.681 42.6462,198.644 42.2295,199.517 C41.8389,200.428 41.3246,201.235 40.6866,201.939 C40.0355,202.655 39.2478,203.332 38.3233,203.97 C37.4248,204.595 36.5004,205.155 35.5498,205.65 C33.6228,206.626 32.555,207.114 32.3467,207.114 C32.1774,207.114 32.0928,207.03 32.0928,206.86 C32.0928,206.795 32.1188,206.737 32.1709,206.685 C32.835,206.294 33.6488,205.793 34.6123,205.181 C35.2373,204.777 35.9665,204.217 36.7998,203.501 C37.6071,202.824 38.2321,202.186 38.6748,201.587 C39.1306,201.001 39.5472,200.272 39.9248,199.4 C40.2504,198.527 40.4131,197.668 40.4131,196.821 C40.4131,195.558 40.1006,194.458 39.4756,193.521 C38.8506,192.583 38.0238,192.114 36.9951,192.114 C36.266,192.114 35.641,192.349 35.1201,192.818 C34.5603,193.299 34.1566,193.905 33.9092,194.634 C34.1566,194.53 34.3845,194.478 34.5928,194.478 C35.1397,194.478 35.6084,194.673 35.9991,195.064 C36.3897,195.48 36.585,195.956 36.585,196.489 C36.585,197.049 36.3962,197.551 36.0186,197.993 C35.6149,198.397 35.1397,198.599 34.5928,198.599 C34.0069,198.599 33.4795,198.397 33.0108,197.993 C32.5681,197.551 32.3467,197.049 32.3467,196.489 C32.3467,195.148 32.8024,194.002 33.7139,193.052 C34.6123,192.088 35.7061,191.607 36.9951,191.607"
     id="path62" />
  <path
     class="Clef"
     fill="#1f6268"
     d="M39.6905,141.74 C39.6905,141.74 39.7295,141.74 39.8076,141.74 C39.8597,141.727 39.9053,141.721 39.9444,141.721 C41.4027,141.721 42.6006,142.235 43.5381,143.264 C44.4756,144.279 44.9444,145.464 44.9444,146.818 C44.9444,148.498 44.2478,149.865 42.8545,150.92 C42.4899,151.206 42.0147,151.441 41.4287,151.623 C41.4938,152.469 41.5264,153.153 41.5264,153.674 C41.5264,153.778 41.5134,154.155 41.4873,154.807 C41.4353,156.017 41.0186,157.066 40.2373,157.951 C39.4821,158.823 38.5446,159.26 37.4248,159.26 C36.3701,159.26 35.4717,158.889 34.7295,158.146 C33.9873,157.391 33.6162,156.48 33.6162,155.412 C33.6162,154.852 33.8311,154.377 34.2608,153.986 C34.7035,153.596 35.2178,153.4 35.8037,153.4 C36.3246,153.4 36.7608,153.602 37.1123,154.006 C37.4769,154.383 37.6592,154.852 37.6592,155.412 C37.6592,155.92 37.4769,156.356 37.1123,156.721 C36.7478,157.085 36.3116,157.267 35.8037,157.267 C35.5954,157.267 35.3936,157.228 35.1983,157.15 C35.7712,157.997 36.5329,158.42 37.4834,158.42 C38.3819,158.42 39.1175,158.055 39.6905,157.326 C40.2894,156.571 40.6149,155.692 40.667,154.689 C40.6931,154.064 40.7061,153.706 40.7061,153.615 C40.7061,152.886 40.68,152.287 40.628,151.818 C39.9769,151.922 39.3975,151.975 38.8897,151.975 C37.0798,151.975 35.5368,151.258 34.2608,149.826 C33.0108,148.381 32.3858,146.662 32.3858,144.67 C32.3858,144.253 32.4248,143.83 32.503,143.4 C32.5811,143.049 32.6787,142.665 32.7959,142.248 C32.861,142.014 33.0368,141.636 33.3233,141.115 C33.4274,140.959 33.5446,140.764 33.6748,140.529 C33.805,140.295 33.8962,140.139 33.9483,140.06 C34.0785,139.8 34.3324,139.448 34.71,139.006 C34.8142,138.889 34.9216,138.758 35.0323,138.615 C35.1429,138.472 35.2373,138.355 35.3155,138.264 C35.3936,138.172 35.4522,138.101 35.4912,138.049 C35.5303,137.997 35.8233,137.652 36.3701,137.014 C36.5004,136.883 36.6273,136.743 36.751,136.594 C36.8747,136.444 36.9756,136.327 37.0537,136.242 C37.1319,136.157 37.1905,136.096 37.2295,136.057 C36.7608,134.507 36.4678,133.27 36.3506,132.346 C36.2595,131.603 36.2139,130.588 36.2139,129.299 C36.2139,128.166 36.4743,127.105 36.9951,126.115 C37.503,125.086 38.2126,124.247 39.1241,123.596 C39.1892,123.557 39.2543,123.537 39.3194,123.537 C39.4105,123.537 39.4756,123.557 39.5147,123.596 C40.2178,124.442 40.8233,125.542 41.3311,126.896 C41.8519,128.251 42.1123,129.481 42.1123,130.588 C42.1123,131.838 41.8129,133.01 41.2139,134.103 C40.5368,135.262 39.6644,136.46 38.5967,137.697 C38.8701,138.557 39.2347,139.904 39.6905,141.74 M41.3506,150.822 C42.0277,150.575 42.555,150.152 42.9326,149.553 C43.3493,148.98 43.5576,148.335 43.5576,147.619 C43.5576,146.695 43.2451,145.874 42.6201,145.158 C41.9821,144.416 41.1683,143.999 40.1787,143.908 C40.7386,146.655 41.1293,148.96 41.3506,150.822 M33.792,146.31 C33.792,147.6 34.3129,148.732 35.3545,149.709 C36.4222,150.659 37.6201,151.135 38.9483,151.135 C39.4951,151.135 40.029,151.096 40.5498,151.017 C40.3415,149.038 39.9313,146.669 39.3194,143.908 C38.5772,143.986 37.9847,144.247 37.542,144.689 C37.1123,145.145 36.8975,145.659 36.8975,146.232 C36.8975,147.222 37.4248,148.023 38.4795,148.635 C38.5707,148.726 38.6162,148.823 38.6162,148.928 C38.6162,149.032 38.5707,149.129 38.4795,149.221 C38.4014,149.312 38.3037,149.357 38.1866,149.357 C38.1735,149.357 38.1149,149.344 38.0108,149.318 C37.2686,148.915 36.6957,148.394 36.292,147.756 C35.9144,147.079 35.7256,146.395 35.7256,145.705 C35.7256,144.807 36.0056,143.993 36.5655,143.264 C37.1514,142.534 37.9131,142.066 38.8506,141.857 C38.486,140.399 38.1866,139.26 37.9522,138.439 C37.7438,138.674 37.4932,138.957 37.2002,139.289 C36.9073,139.621 36.7347,139.82 36.6826,139.885 C36.2139,140.497 35.8558,140.972 35.6084,141.31 C35.1657,141.922 34.8402,142.45 34.6319,142.892 C34.4105,143.387 34.2152,143.928 34.0459,144.514 C33.8767,145.073 33.792,145.672 33.792,146.31 M40.3155,126.447 C39.3389,126.929 38.5707,127.619 38.0108,128.517 C37.4379,129.442 37.1514,130.438 37.1514,131.506 C37.1514,132.443 37.3858,133.706 37.8545,135.295 C38.792,134.162 39.4951,133.114 39.9639,132.15 C40.4587,131.135 40.7061,130.073 40.7061,128.967 C40.7061,128.133 40.5759,127.294 40.3155,126.447"
     id="path64" />
  <path
     class="Clef"
     fill="#1f6268"
     d="M39.6905,81.7364 C39.6905,81.7364 39.7295,81.7364 39.8076,81.7364 C39.8597,81.7233 39.9053,81.7168 39.9444,81.7168 C41.4027,81.7168 42.6006,82.2311 43.5381,83.2598 C44.4756,84.2754 44.9444,85.4603 44.9444,86.8145 C44.9444,88.4942 44.2478,89.8614 42.8545,90.916 C42.4899,91.2025 42.0147,91.4369 41.4287,91.6192 C41.4938,92.4655 41.5264,93.1491 41.5264,93.6699 C41.5264,93.7741 41.5134,94.1517 41.4873,94.8028 C41.4353,96.0137 41.0186,97.0619 40.2373,97.9473 C39.4821,98.8197 38.5446,99.2559 37.4248,99.2559 C36.3701,99.2559 35.4717,98.8848 34.7295,98.1426 C33.9873,97.3874 33.6162,96.4759 33.6162,95.4082 C33.6162,94.8483 33.8311,94.3731 34.2608,93.9824 C34.7035,93.5918 35.2178,93.3965 35.8037,93.3965 C36.3246,93.3965 36.7608,93.5983 37.1123,94.002 C37.4769,94.3796 37.6592,94.8483 37.6592,95.4082 C37.6592,95.916 37.4769,96.3522 37.1123,96.7168 C36.7478,97.0814 36.3116,97.2637 35.8037,97.2637 C35.5954,97.2637 35.3936,97.2246 35.1983,97.1465 C35.7712,97.9929 36.5329,98.416 37.4834,98.416 C38.3819,98.416 39.1175,98.0515 39.6905,97.3223 C40.2894,96.5671 40.6149,95.6882 40.667,94.6856 C40.6931,94.0606 40.7061,93.7025 40.7061,93.6114 C40.7061,92.8822 40.68,92.2832 40.628,91.8145 C39.9769,91.9186 39.3975,91.9707 38.8897,91.9707 C37.0798,91.9707 35.5368,91.2546 34.2608,89.8223 C33.0108,88.377 32.3858,86.6582 32.3858,84.666 C32.3858,84.2494 32.4248,83.8262 32.503,83.3965 C32.5811,83.0449 32.6787,82.6608 32.7959,82.2442 C32.861,82.0098 33.0368,81.6322 33.3233,81.1114 C33.4274,80.9551 33.5446,80.7598 33.6748,80.5254 C33.805,80.291 33.8962,80.1348 33.9483,80.0567 C34.0785,79.7963 34.3324,79.4447 34.71,79.002 C34.8142,78.8848 34.9216,78.7546 35.0323,78.6114 C35.1429,78.4681 35.2373,78.3509 35.3155,78.2598 C35.3936,78.1686 35.4522,78.097 35.4912,78.0449 C35.5303,77.9929 35.8233,77.6478 36.3701,77.0098 C36.5004,76.8796 36.6273,76.7396 36.751,76.5899 C36.8747,76.4401 36.9756,76.3229 37.0537,76.2383 C37.1319,76.1537 37.1905,76.0918 37.2295,76.0528 C36.7608,74.5033 36.4678,73.2663 36.3506,72.3418 C36.2595,71.5996 36.2139,70.584 36.2139,69.2949 C36.2139,68.1621 36.4743,67.1009 36.9951,66.1114 C37.503,65.0827 38.2126,64.2429 39.1241,63.5918 C39.1892,63.5528 39.2543,63.5332 39.3194,63.5332 C39.4105,63.5332 39.4756,63.5528 39.5147,63.5918 C40.2178,64.4382 40.8233,65.5384 41.3311,66.8926 C41.8519,68.2468 42.1123,69.4772 42.1123,70.584 C42.1123,71.834 41.8129,73.0059 41.2139,74.0996 C40.5368,75.2585 39.6644,76.4564 38.5967,77.6934 C38.8701,78.5528 39.2347,79.9004 39.6905,81.7364 M41.3506,90.8184 C42.0277,90.571 42.555,90.1478 42.9326,89.5489 C43.3493,88.9759 43.5576,88.3314 43.5576,87.6153 C43.5576,86.6908 43.2451,85.8705 42.6201,85.1543 C41.9821,84.4121 41.1683,83.9955 40.1787,83.9043 C40.7386,86.6517 41.1293,88.9564 41.3506,90.8184 M33.792,86.3067 C33.792,87.5957 34.3129,88.7285 35.3545,89.7051 C36.4222,90.6556 37.6201,91.1309 38.9483,91.1309 C39.4951,91.1309 40.029,91.0918 40.5498,91.0137 C40.3415,89.0345 39.9313,86.6647 39.3194,83.9043 C38.5772,83.9824 37.9847,84.2429 37.542,84.6856 C37.1123,85.1413 36.8975,85.6556 36.8975,86.2285 C36.8975,87.2181 37.4248,88.0189 38.4795,88.6309 C38.5707,88.722 38.6162,88.8197 38.6162,88.9239 C38.6162,89.028 38.5707,89.1257 38.4795,89.2168 C38.4014,89.308 38.3037,89.3535 38.1866,89.3535 C38.1735,89.3535 38.1149,89.3405 38.0108,89.3145 C37.2686,88.9108 36.6957,88.39 36.292,87.752 C35.9144,87.0749 35.7256,86.3913 35.7256,85.7012 C35.7256,84.8028 36.0056,83.989 36.5655,83.2598 C37.1514,82.5306 37.9131,82.0619 38.8506,81.8535 C38.486,80.3952 38.1866,79.2559 37.9522,78.4356 C37.7438,78.6699 37.4932,78.9532 37.2002,79.2852 C36.9073,79.6172 36.7347,79.8158 36.6826,79.8809 C36.2139,80.4929 35.8558,80.9681 35.6084,81.3067 C35.1657,81.9186 34.8402,82.446 34.6319,82.8887 C34.4105,83.3835 34.2152,83.9239 34.0459,84.5098 C33.8767,85.0697 33.792,85.6686 33.792,86.3067 M40.3155,66.4434 C39.3389,66.9252 38.5707,67.6153 38.0108,68.5137 C37.4379,69.4382 37.1514,70.4343 37.1514,71.502 C37.1514,72.4395 37.3858,73.7025 37.8545,75.291 C38.792,74.1582 39.4951,73.1101 39.9639,72.1465 C40.4587,71.1309 40.7061,70.0697 40.7061,68.9629 C40.7061,68.1296 40.5759,67.2897 40.3155,66.4434"
     id="path66" />
</svg>
