<svg xmlns="http://www.w3.org/2000/svg" width="1440" height="900"><path d="M733,492L697,356L628,481Z" fill="#51838e" stroke="#51838e" stroke-width="1.51"/><path d="M697,356L565,418L628,481Z" fill="#4e828d" stroke="#4e828d" stroke-width="1.51"/><path d="M733,492L812,351L697,356Z" fill="#50838e" stroke="#50838e" stroke-width="1.51"/><path d="M812,351L741,259L697,356Z" fill="#4d838d" stroke="#4d838d" stroke-width="1.51"/><path d="M697,356L537,300L565,418Z" fill="#4a828c" stroke="#4a828c" stroke-width="1.51"/><path d="M628,481L616,603L733,492Z" fill="#538490" stroke="#538490" stroke-width="1.51"/><path d="M546,609L616,603L628,481Z" fill="#538690" stroke="#538690" stroke-width="1.51"/><path d="M700,223L537,300L697,356Z" fill="#48828c" stroke="#48828c" stroke-width="1.51"/><path d="M733,492L891,422L812,351Z" fill="#53858f" stroke="#53858f" stroke-width="1.51"/><path d="M744,645L807,591L733,492Z" fill="#588793" stroke="#588793" stroke-width="1.51"/><path d="M867,560L891,422L733,492Z" fill="#578692" stroke="#578692" stroke-width="1.51"/><path d="M812,351L885,215L741,259Z" fill="#4c848e" stroke="#4c848e" stroke-width="1.51"/><path d="M616,603L650,635L733,492Z" fill="#568691" stroke="#568691" stroke-width="1.51"/><path d="M741,259L700,223L697,356Z" fill="#4a828c" stroke="#4a828c" stroke-width="1.51"/><path d="M650,635L744,645L733,492Z" fill="#578792" stroke="#578792" stroke-width="1.51"/><path d="M807,591L867,560L733,492Z" fill="#588793" stroke="#588793" stroke-width="1.51"/><path d="M910,654L867,560L807,591Z" fill="#5c8a96" stroke="#5c8a96" stroke-width="1.51"/><path d="M565,418L546,609L628,481Z" fill="#50848e" stroke="#50848e" stroke-width="1.51"/><path d="M616,603L524,697L650,635Z" fill="#568893" stroke="#568893" stroke-width="1.51"/><path d="M394,431L546,609L565,418Z" fill="#4c838d" stroke="#4c838d" stroke-width="1.51"/><path d="M700,223L571,212L537,300Z" fill="#44818b" stroke="#44818b" stroke-width="1.51"/><path d="M891,422L937,350L812,351Z" fill="#538591" stroke="#538591" stroke-width="1.51"/><path d="M741,259L786,146L700,223Z" fill="#47828c" stroke="#47828c" stroke-width="1.51"/><path d="M970,426L937,350L891,422Z" fill="#558692" stroke="#558692" stroke-width="1.51"/><path d="M537,300L443,317L565,418Z" fill="#46818b" stroke="#46818b" stroke-width="1.51"/><path d="M420,256L443,317L537,300Z" fill="#42808b" stroke="#42808b" stroke-width="1.51"/><path d="M867,560L970,426L891,422Z" fill="#588792" stroke="#588792" stroke-width="1.51"/><path d="M443,317L394,431L565,418Z" fill="#47818c" stroke="#47818c" stroke-width="1.51"/><path d="M991,234L885,215L937,350Z" fill="#4f8691" stroke="#4f8691" stroke-width="1.51"/><path d="M937,350L885,215L812,351Z" fill="#4f8590" stroke="#4f8590" stroke-width="1.51"/><path d="M700,223L624,142L571,212Z" fill="#43818b" stroke="#43818b" stroke-width="1.51"/><path d="M571,212L420,256L537,300Z" fill="#42818a" stroke="#42818a" stroke-width="1.51"/><path d="M786,146L624,142L700,223Z" fill="#44818b" stroke="#44818b" stroke-width="1.51"/><path d="M885,215L786,146L741,259Z" fill="#48838d" stroke="#48838d" stroke-width="1.51"/><path d="M650,635L734,760L744,645Z" fill="#5a8995" stroke="#5a8995" stroke-width="1.51"/><path d="M546,609L524,697L616,603Z" fill="#548793" stroke="#548793" stroke-width="1.51"/><path d="M437,714L524,697L546,609Z" fill="#548893" stroke="#548893" stroke-width="1.51"/><path d="M867,560L963,595L970,426Z" fill="#5b8995" stroke="#5b8995" stroke-width="1.51"/><path d="M744,645L910,654L807,591Z" fill="#5c8a95" stroke="#5c8a95" stroke-width="1.51"/><path d="M734,760L910,654L744,645Z" fill="#5d8b97" stroke="#5d8b97" stroke-width="1.51"/><path d="M443,317L318,379L394,431Z" fill="#43818b" stroke="#43818b" stroke-width="1.51"/><path d="M390,110L420,256L571,212Z" fill="#3c808a" stroke="#3c808a" stroke-width="1.51"/><path d="M910,654L963,595L867,560Z" fill="#5d8c97" stroke="#5d8c97" stroke-width="1.51"/><path d="M624,142L590,115L571,212Z" fill="#3f808a" stroke="#3f808a" stroke-width="1.51"/><path d="M618,3L590,115L624,142Z" fill="#3d7e88" stroke="#3d7e88" stroke-width="1.51"/><path d="M628,812L734,760L650,635Z" fill="#5c8a96" stroke="#5c8a96" stroke-width="1.51"/><path d="M394,431L388,603L546,609Z" fill="#4d858f" stroke="#4d858f" stroke-width="1.51"/><path d="M394,431L341,474L388,603Z" fill="#49838d" stroke="#49838d" stroke-width="1.51"/><path d="M318,379L341,474L394,431Z" fill="#45818b" stroke="#45818b" stroke-width="1.51"/><path d="M970,426L1035,355L937,350Z" fill="#568793" stroke="#568793" stroke-width="1.51"/><path d="M1084,450L1035,355L970,426Z" fill="#588894" stroke="#588894" stroke-width="1.51"/><path d="M749,-32L618,3L624,142Z" fill="#3e7c85" stroke="#3e7c85" stroke-width="1.51"/><path d="M885,215L874,121L786,146Z" fill="#48838e" stroke="#48838e" stroke-width="1.51"/><path d="M963,93L874,121L885,215Z" fill="#48848f" stroke="#48848f" stroke-width="1.51"/><path d="M1035,355L991,234L937,350Z" fill="#538792" stroke="#538792" stroke-width="1.51"/><path d="M420,256L318,379L443,317Z" fill="#40808b" stroke="#40808b" stroke-width="1.51"/><path d="M388,603L437,714L546,609Z" fill="#518792" stroke="#518792" stroke-width="1.51"/><path d="M524,697L565,792L650,635Z" fill="#588a95" stroke="#588a95" stroke-width="1.51"/><path d="M437,714L565,792L524,697Z" fill="#578a95" stroke="#578a95" stroke-width="1.51"/><path d="M565,792L628,812L650,635Z" fill="#5a8b97" stroke="#5a8b97" stroke-width="1.51"/><path d="M963,595L1084,450L970,426Z" fill="#5b8995" stroke="#5b8995" stroke-width="1.51"/><path d="M1035,355L1102,256L991,234Z" fill="#538893" stroke="#538893" stroke-width="1.51"/><path d="M916,881L924,754L734,760Z" fill="#638f9b" stroke="#638f9b" stroke-width="1.51"/><path d="M734,760L924,754L910,654Z" fill="#608d99" stroke="#608d99" stroke-width="1.51"/><path d="M910,654L1033,695L963,595Z" fill="#608d99" stroke="#608d99" stroke-width="1.51"/><path d="M963,595L1146,599L1084,450Z" fill="#5f8c98" stroke="#5f8c98" stroke-width="1.51"/><path d="M1084,450L1091,364L1035,355Z" fill="#588995" stroke="#588995" stroke-width="1.51"/><path d="M341,474L301,585L388,603Z" fill="#4a848f" stroke="#4a848f" stroke-width="1.51"/><path d="M388,603L281,677L437,714Z" fill="#4f8792" stroke="#4f8792" stroke-width="1.51"/><path d="M191,404L301,585L341,474Z" fill="#45828c" stroke="#45828c" stroke-width="1.51"/><path d="M420,256L300,241L318,379Z" fill="#3e808a" stroke="#3e808a" stroke-width="1.51"/><path d="M318,379L191,404L341,474Z" fill="#42818a" stroke="#42818a" stroke-width="1.51"/><path d="M390,110L300,241L420,256Z" fill="#3a7f89" stroke="#3a7f89" stroke-width="1.51"/><path d="M749,-32L624,142L786,146Z" fill="#417f88" stroke="#417f88" stroke-width="1.51"/><path d="M590,115L390,110L571,212Z" fill="#3c8089" stroke="#3c8089" stroke-width="1.51"/><path d="M924,754L1033,695L910,654Z" fill="#628e9b" stroke="#628e9b" stroke-width="1.51"/><path d="M434,-26L390,110L590,115Z" fill="#377c86" stroke="#377c86" stroke-width="1.51"/><path d="M991,234L963,93L885,215Z" fill="#4b8690" stroke="#4b8690" stroke-width="1.51"/><path d="M850,-34L749,-32L786,146Z" fill="#427d87" stroke="#427d87" stroke-width="1.51"/><path d="M1168,94L963,93L991,234Z" fill="#4c8792" stroke="#4c8792" stroke-width="1.51"/><path d="M1193,234L1102,256L1229,353Z" fill="#578a96" stroke="#578a96" stroke-width="1.51"/><path d="M1091,364L1102,256L1035,355Z" fill="#568994" stroke="#568994" stroke-width="1.51"/><path d="M245,200L246,294L300,241Z" fill="#377f89" stroke="#377f89" stroke-width="1.51"/><path d="M300,241L246,294L318,379Z" fill="#3c8089" stroke="#3c8089" stroke-width="1.51"/><path d="M916,881L1020,755L924,754Z" fill="#66919d" stroke="#66919d" stroke-width="1.51"/><path d="M924,754L1020,755L1033,695Z" fill="#64909d" stroke="#64909d" stroke-width="1.51"/><path d="M628,812L682,897L734,760Z" fill="#608c98" stroke="#608c98" stroke-width="1.51"/><path d="M534,929L682,897L628,812Z" fill="#608d99" stroke="#608d99" stroke-width="1.51"/><path d="M534,929L628,812L565,792Z" fill="#5d8c98" stroke="#5d8c98" stroke-width="1.51"/><path d="M850,-34L786,146L874,121Z" fill="#44818a" stroke="#44818a" stroke-width="1.51"/><path d="M641,-141L587,-31L618,3Z" fill="#3a7781" stroke="#3a7781" stroke-width="1.51"/><path d="M618,3L587,-31L590,115Z" fill="#3b7b84" stroke="#3b7b84" stroke-width="1.51"/><path d="M437,714L392,821L565,792Z" fill="#578a96" stroke="#578a96" stroke-width="1.51"/><path d="M301,585L281,677L388,603Z" fill="#4c8691" stroke="#4c8691" stroke-width="1.51"/><path d="M169,655L281,677L301,585Z" fill="#4a8690" stroke="#4a8690" stroke-width="1.51"/><path d="M336,783L392,821L437,714Z" fill="#548a96" stroke="#548a96" stroke-width="1.51"/><path d="M1084,450L1204,470L1091,364Z" fill="#5c8b97" stroke="#5c8b97" stroke-width="1.51"/><path d="M1033,695L1146,599L963,595Z" fill="#618e9a" stroke="#618e9a" stroke-width="1.51"/><path d="M1155,644L1146,599L1033,695Z" fill="#63909c" stroke="#63909c" stroke-width="1.51"/><path d="M963,93L850,-34L874,121Z" fill="#45808b" stroke="#45808b" stroke-width="1.51"/><path d="M641,-141L580,-106L587,-31Z" fill="#38767e" stroke="#38767e" stroke-width="1.51"/><path d="M682,897L752,921L734,760Z" fill="#628d99" stroke="#628d99" stroke-width="1.51"/><path d="M790,1027L752,921L625,1062Z" fill="#688e9b" stroke="#688e9b" stroke-width="1.51"/><path d="M246,294L191,404L318,379Z" fill="#3d8089" stroke="#3d8089" stroke-width="1.51"/><path d="M281,677L336,783L437,714Z" fill="#518994" stroke="#518994" stroke-width="1.51"/><path d="M310,97L245,200L300,241Z" fill="#347f88" stroke="#347f88" stroke-width="1.51"/><path d="M84,373L88,454L191,404Z" fill="#3e7c85" stroke="#3e7c85" stroke-width="1.51"/><path d="M310,97L300,241L390,110Z" fill="#357f88" stroke="#357f88" stroke-width="1.51"/><path d="M321,10L310,97L390,110Z" fill="#327c85" stroke="#327c85" stroke-width="1.51"/><path d="M752,921L916,881L734,760Z" fill="#648e9b" stroke="#648e9b" stroke-width="1.51"/><path d="M1090,759L1155,644L1033,695Z" fill="#65919e" stroke="#65919e" stroke-width="1.51"/><path d="M1146,599L1204,470L1084,450Z" fill="#5f8d99" stroke="#5f8d99" stroke-width="1.51"/><path d="M1090,759L1033,695L1020,755Z" fill="#66919e" stroke="#66919e" stroke-width="1.51"/><path d="M1278,591L1204,470L1146,599Z" fill="#638f9b" stroke="#638f9b" stroke-width="1.51"/><path d="M1104,897L1090,759L1020,755Z" fill="#6993a0" stroke="#6993a0" stroke-width="1.51"/><path d="M439,908L565,792L392,821Z" fill="#598b97" stroke="#598b97" stroke-width="1.51"/><path d="M439,908L534,929L565,792Z" fill="#5d8c98" stroke="#5d8c98" stroke-width="1.51"/><path d="M587,-31L434,-26L590,115Z" fill="#397a84" stroke="#397a84" stroke-width="1.51"/><path d="M353,942L439,908L392,821Z" fill="#5a8b98" stroke="#5a8b98" stroke-width="1.51"/><path d="M850,-34L793,-101L749,-32Z" fill="#407983" stroke="#407983" stroke-width="1.51"/><path d="M587,-31L580,-106L434,-26Z" fill="#377780" stroke="#377780" stroke-width="1.51"/><path d="M904,-126L793,-101L850,-34Z" fill="#407983" stroke="#407983" stroke-width="1.51"/><path d="M1229,353L1102,256L1091,364Z" fill="#578a96" stroke="#578a96" stroke-width="1.51"/><path d="M1102,256L1168,94L991,234Z" fill="#508893" stroke="#508893" stroke-width="1.51"/><path d="M963,93L1031,-38L850,-34Z" fill="#467f89" stroke="#467f89" stroke-width="1.51"/><path d="M641,-141L618,3L749,-32Z" fill="#3c7781" stroke="#3c7781" stroke-width="1.51"/><path d="M1204,470L1229,353L1091,364Z" fill="#5c8b97" stroke="#5c8b97" stroke-width="1.51"/><path d="M191,404L161,604L301,585Z" fill="#45828c" stroke="#45828c" stroke-width="1.51"/><path d="M281,677L166,779L336,783Z" fill="#4e8994" stroke="#4e8994" stroke-width="1.51"/><path d="M336,783L353,942L392,821Z" fill="#578b97" stroke="#578b97" stroke-width="1.51"/><path d="M1090,759L1197,649L1155,644Z" fill="#66929f" stroke="#66929f" stroke-width="1.51"/><path d="M1155,644L1197,649L1146,599Z" fill="#65909d" stroke="#65909d" stroke-width="1.51"/><path d="M1204,470L1348,493L1229,353Z" fill="#608c99" stroke="#608c99" stroke-width="1.51"/><path d="M310,97L220,66L245,200Z" fill="#307d87" stroke="#307d87" stroke-width="1.51"/><path d="M434,-26L321,10L390,110Z" fill="#327a84" stroke="#327a84" stroke-width="1.51"/><path d="M409,-130L321,10L434,-26Z" fill="#31767f" stroke="#31767f" stroke-width="1.51"/><path d="M161,604L169,655L301,585Z" fill="#49848e" stroke="#49848e" stroke-width="1.51"/><path d="M793,-101L641,-141L749,-32Z" fill="#3d767f" stroke="#3d767f" stroke-width="1.51"/><path d="M580,-106L409,-130L434,-26Z" fill="#34757e" stroke="#34757e" stroke-width="1.51"/><path d="M439,908L541,990L534,929Z" fill="#608d99" stroke="#608d99" stroke-width="1.51"/><path d="M534,929L541,990L682,897Z" fill="#628d99" stroke="#628d99" stroke-width="1.51"/><path d="M876,1009L977,954L916,881Z" fill="#6c929f" stroke="#6c929f" stroke-width="1.51"/><path d="M161,604L92,684L169,655Z" fill="#49828d" stroke="#49828d" stroke-width="1.51"/><path d="M191,404L126,582L161,604Z" fill="#44808a" stroke="#44808a" stroke-width="1.51"/><path d="M88,454L126,582L191,404Z" fill="#417e87" stroke="#417e87" stroke-width="1.51"/><path d="M1168,94L1031,-38L963,93Z" fill="#49838d" stroke="#49838d" stroke-width="1.51"/><path d="M1193,234L1168,94L1102,256Z" fill="#528995" stroke="#528995" stroke-width="1.51"/><path d="M1211,100L1168,94L1193,234Z" fill="#508a95" stroke="#508a95" stroke-width="1.51"/><path d="M84,373L191,404L246,294Z" fill="#3c7e87" stroke="#3c7e87" stroke-width="1.51"/><path d="M321,10L220,66L310,97Z" fill="#2f7a84" stroke="#2f7a84" stroke-width="1.51"/><path d="M916,881L1104,897L1020,755Z" fill="#69929f" stroke="#69929f" stroke-width="1.51"/><path d="M1328,582L1278,591L1376,725Z" fill="#6a929f" stroke="#6a929f" stroke-width="1.51"/><path d="M876,1009L916,881L752,921Z" fill="#69909d" stroke="#69909d" stroke-width="1.51"/><path d="M1031,-38L904,-126L850,-34Z" fill="#437b85" stroke="#437b85" stroke-width="1.51"/><path d="M793,-101L904,-126L641,-141Z" fill="#3d767f" stroke="#3d767f" stroke-width="1.51"/><path d="M84,373L246,294L47,222Z" fill="#387b85" stroke="#387b85" stroke-width="1.51"/><path d="M625,1062L752,921L682,897Z" fill="#668e9b" stroke="#668e9b" stroke-width="1.51"/><path d="M47,222L246,294L245,200Z" fill="#357c86" stroke="#357c86" stroke-width="1.51"/><path d="M790,1027L876,1009L752,921Z" fill="#6a909d" stroke="#6a909d" stroke-width="1.51"/><path d="M209,937L353,942L336,783Z" fill="#578b97" stroke="#578b97" stroke-width="1.51"/><path d="M439,908L392,1015L541,990Z" fill="#608d99" stroke="#608d99" stroke-width="1.51"/><path d="M1262,833L1197,649L1090,759Z" fill="#6994a1" stroke="#6994a1" stroke-width="1.51"/><path d="M1197,649L1278,591L1146,599Z" fill="#65909d" stroke="#65909d" stroke-width="1.51"/><path d="M1168,94L1110,-35L1031,-38Z" fill="#4a828d" stroke="#4a828d" stroke-width="1.51"/><path d="M1311,202L1211,100L1193,234Z" fill="#548a96" stroke="#548a96" stroke-width="1.51"/><path d="M1311,202L1193,234L1229,353Z" fill="#588b96" stroke="#588b96" stroke-width="1.51"/><path d="M977,954L1104,897L916,881Z" fill="#6c93a0" stroke="#6c93a0" stroke-width="1.51"/><path d="M1135,1039L1104,897L977,954Z" fill="#7095a2" stroke="#7095a2" stroke-width="1.51"/><path d="M169,655L166,779L281,677Z" fill="#4c8691" stroke="#4c8691" stroke-width="1.51"/><path d="M92,684L166,779L169,655Z" fill="#4b848f" stroke="#4b848f" stroke-width="1.51"/><path d="M92,684L161,604L126,582Z" fill="#47818c" stroke="#47818c" stroke-width="1.51"/><path d="M641,-141L409,-130L580,-106Z" fill="#35747d" stroke="#35747d" stroke-width="1.51"/><path d="M321,10L216,17L220,66Z" fill="#2d7983" stroke="#2d7983" stroke-width="1.51"/><path d="M74,97L47,222L245,200Z" fill="#307a83" stroke="#307a83" stroke-width="1.51"/><path d="M282,-156L216,17L321,10Z" fill="#2b767f" stroke="#2b767f" stroke-width="1.51"/><path d="M1223,-27L1110,-35L1168,94Z" fill="#4b838e" stroke="#4b838e" stroke-width="1.51"/><path d="M1031,-38L999,-164L904,-126Z" fill="#437a84" stroke="#437a84" stroke-width="1.51"/><path d="M392,1015L625,1062L541,990Z" fill="#648e9a" stroke="#648e9a" stroke-width="1.51"/><path d="M541,990L625,1062L682,897Z" fill="#658e9b" stroke="#658e9b" stroke-width="1.51"/><path d="M790,1027L966,1053L876,1009Z" fill="#6e929f" stroke="#6e929f" stroke-width="1.51"/><path d="M5,533L126,582L88,454Z" fill="#427d87" stroke="#427d87" stroke-width="1.51"/><path d="M-22,667L92,684L126,582Z" fill="#47808a" stroke="#47808a" stroke-width="1.51"/><path d="M353,942L392,1015L439,908Z" fill="#5d8c99" stroke="#5d8c99" stroke-width="1.51"/><path d="M338,1056L392,1015L353,942Z" fill="#5e8d99" stroke="#5e8d99" stroke-width="1.51"/><path d="M1278,591L1348,493L1204,470Z" fill="#648e9b" stroke="#648e9b" stroke-width="1.51"/><path d="M1376,725L1278,591L1197,649Z" fill="#69939f" stroke="#69939f" stroke-width="1.51"/><path d="M1328,582L1348,493L1278,591Z" fill="#66909d" stroke="#66909d" stroke-width="1.51"/><path d="M1376,311L1311,202L1229,353Z" fill="#5b8b98" stroke="#5b8b98" stroke-width="1.51"/><path d="M1211,100L1223,-27L1168,94Z" fill="#4e8691" stroke="#4e8691" stroke-width="1.51"/><path d="M1143,-160L999,-164L1031,-38Z" fill="#457b85" stroke="#457b85" stroke-width="1.51"/><path d="M904,-126L999,-164L641,-141Z" fill="#3f7680" stroke="#3f7680" stroke-width="1.51"/><path d="M641,-141L282,-156L409,-130Z" fill="#30737b" stroke="#30737b" stroke-width="1.51"/><path d="M84,373L5,351L88,454Z" fill="#3c7a83" stroke="#3c7a83" stroke-width="1.51"/><path d="M74,97L245,200L220,66Z" fill="#2e7b84" stroke="#2e7b84" stroke-width="1.51"/><path d="M876,1009L966,1053L977,954Z" fill="#6e93a0" stroke="#6e93a0" stroke-width="1.51"/><path d="M625,1062L966,1053L790,1027Z" fill="#6c909e" stroke="#6c909e" stroke-width="1.51"/><path d="M47,222L5,351L84,373Z" fill="#377982" stroke="#377982" stroke-width="1.51"/><path d="M1104,897L1208,881L1090,759Z" fill="#6d95a2" stroke="#6d95a2" stroke-width="1.51"/><path d="M1135,1039L1208,881L1104,897Z" fill="#7197a4" stroke="#7197a4" stroke-width="1.51"/><path d="M-66,490L5,533L88,454Z" fill="#407a83" stroke="#407a83" stroke-width="1.51"/><path d="M166,779L209,937L336,783Z" fill="#528a95" stroke="#528a95" stroke-width="1.51"/><path d="M112,902L209,937L166,779Z" fill="#528793" stroke="#528793" stroke-width="1.51"/><path d="M49,786L166,779L92,684Z" fill="#4c848f" stroke="#4c848f" stroke-width="1.51"/><path d="M131,-16L74,97L220,66Z" fill="#2c767f" stroke="#2c767f" stroke-width="1.51"/><path d="M47,222L-10,189L5,351Z" fill="#337780" stroke="#337780" stroke-width="1.51"/><path d="M131,-16L220,66L216,17Z" fill="#2b7780" stroke="#2b7780" stroke-width="1.51"/><path d="M1348,493L1376,311L1229,353Z" fill="#5f8c99" stroke="#5f8c99" stroke-width="1.51"/><path d="M1208,881L1262,833L1090,759Z" fill="#6d96a3" stroke="#6d96a3" stroke-width="1.51"/><path d="M1110,-35L1143,-160L1031,-38Z" fill="#487e88" stroke="#487e88" stroke-width="1.51"/><path d="M1327,101L1223,-27L1211,100Z" fill="#508692" stroke="#508692" stroke-width="1.51"/><path d="M1327,101L1211,100L1311,202Z" fill="#538b96" stroke="#538b96" stroke-width="1.51"/><path d="M189,-132L131,-16L216,17Z" fill="#29737c" stroke="#29737c" stroke-width="1.51"/><path d="M409,-130L282,-156L321,10Z" fill="#2e747d" stroke="#2e747d" stroke-width="1.51"/><path d="M999,-164L282,-156L641,-141Z" fill="#38737c" stroke="#38737c" stroke-width="1.51"/><path d="M392,1015L338,1056L625,1062Z" fill="#638e9a" stroke="#638e9a" stroke-width="1.51"/><path d="M209,937L338,1056L353,942Z" fill="#5b8c99" stroke="#5b8c99" stroke-width="1.51"/><path d="M1448,124L1327,101L1311,202Z" fill="#568b97" stroke="#568b97" stroke-width="1.51"/><path d="M-22,667L49,786L92,684Z" fill="#49818c" stroke="#49818c" stroke-width="1.51"/><path d="M-113,668L-22,667L5,533Z" fill="#447c86" stroke="#447c86" stroke-width="1.51"/><path d="M74,97L-10,189L47,222Z" fill="#2f7780" stroke="#2f7780" stroke-width="1.51"/><path d="M-63,75L-10,189L74,97Z" fill="#2a757e" stroke="#2a757e" stroke-width="1.51"/><path d="M1376,311L1448,124L1311,202Z" fill="#5a8c97" stroke="#5a8c97" stroke-width="1.51"/><path d="M1348,493L1425,413L1376,311Z" fill="#628d99" stroke="#628d99" stroke-width="1.51"/><path d="M1471,548L1425,413L1348,493Z" fill="#678f9b" stroke="#678f9b" stroke-width="1.51"/><path d="M1471,548L1348,493L1328,582Z" fill="#68909d" stroke="#68909d" stroke-width="1.51"/><path d="M49,786L112,902L166,779Z" fill="#4f8590" stroke="#4f8590" stroke-width="1.51"/><path d="M209,937L163,995L338,1056Z" fill="#5a8c97" stroke="#5a8c97" stroke-width="1.51"/><path d="M5,533L-22,667L126,582Z" fill="#447d87" stroke="#447d87" stroke-width="1.51"/><path d="M49,786L-50,907L112,902Z" fill="#50838e" stroke="#50838e" stroke-width="1.51"/><path d="M-66,490L88,454L5,351Z" fill="#3d7982" stroke="#3d7982" stroke-width="1.51"/><path d="M1275,-164L1143,-160L1223,-27Z" fill="#4a7f89" stroke="#4a7f89" stroke-width="1.51"/><path d="M1223,-27L1143,-160L1110,-35Z" fill="#49808a" stroke="#49808a" stroke-width="1.51"/><path d="M1425,413L1427,326L1376,311Z" fill="#618d99" stroke="#618d99" stroke-width="1.51"/><path d="M1262,833L1376,725L1197,649Z" fill="#6c95a2" stroke="#6c95a2" stroke-width="1.51"/><path d="M-14,-49L-63,75L74,97Z" fill="#28727a" stroke="#28727a" stroke-width="1.51"/><path d="M282,-156L189,-132L216,17Z" fill="#29737b" stroke="#29737b" stroke-width="1.51"/><path d="M-143,494L-66,490L-183,310Z" fill="#3a747d" stroke="#3a747d" stroke-width="1.51"/><path d="M966,1053L1135,1039L977,954Z" fill="#7195a2" stroke="#7195a2" stroke-width="1.51"/><path d="M1398,940L1386,822L1262,833Z" fill="#7397a5" stroke="#7397a5" stroke-width="1.51"/><path d="M1262,833L1386,822L1376,725Z" fill="#7097a4" stroke="#7097a4" stroke-width="1.51"/><path d="M71,1043L163,995L112,902Z" fill="#578793" stroke="#578793" stroke-width="1.51"/><path d="M112,902L163,995L209,937Z" fill="#568894" stroke="#568894" stroke-width="1.51"/><path d="M-113,668L-6,786L-22,667Z" fill="#477e88" stroke="#477e88" stroke-width="1.51"/><path d="M-22,667L-6,786L49,786Z" fill="#4a818b" stroke="#4a818b" stroke-width="1.51"/><path d="M1327,101L1320,-29L1223,-27Z" fill="#508590" stroke="#508590" stroke-width="1.51"/><path d="M1425,22L1320,-29L1327,101Z" fill="#538692" stroke="#538692" stroke-width="1.51"/><path d="M1376,725L1471,548L1328,582Z" fill="#6b93a0" stroke="#6b93a0" stroke-width="1.51"/><path d="M1425,413L1538,442L1427,326Z" fill="#658d9a" stroke="#658d9a" stroke-width="1.51"/><path d="M1376,725L1514,699L1471,548Z" fill="#6e94a1" stroke="#6e94a1" stroke-width="1.51"/><path d="M1398,940L1262,833L1208,881Z" fill="#7398a5" stroke="#7398a5" stroke-width="1.51"/><path d="M1506,187L1376,311L1427,326Z" fill="#5e8c99" stroke="#5e8c99" stroke-width="1.51"/><path d="M1506,187L1448,124L1376,311Z" fill="#5c8c98" stroke="#5c8c98" stroke-width="1.51"/><path d="M189,-132L92,-136L131,-16Z" fill="#277078" stroke="#277078" stroke-width="1.51"/><path d="M282,-156L92,-136L189,-132Z" fill="#277077" stroke="#277077" stroke-width="1.51"/><path d="M-14,-49L74,97L131,-16Z" fill="#29727a" stroke="#29727a" stroke-width="1.51"/><path d="M-183,310L-66,490L5,351Z" fill="#39757e" stroke="#39757e" stroke-width="1.51"/><path d="M1488,1060L1241,1051L966,1053Z" fill="#7899a7" stroke="#7899a7" stroke-width="1.51"/><path d="M966,1053L1241,1051L1135,1039Z" fill="#7597a5" stroke="#7597a5" stroke-width="1.51"/><path d="M1135,1039L1241,1051L1208,881Z" fill="#7498a5" stroke="#7498a5" stroke-width="1.51"/><path d="M-66,490L-113,668L5,533Z" fill="#417a83" stroke="#417a83" stroke-width="1.51"/><path d="M-183,310L5,351L-10,189Z" fill="#34757e" stroke="#34757e" stroke-width="1.51"/><path d="M-165,534L-113,668L-66,490Z" fill="#407881" stroke="#407881" stroke-width="1.51"/><path d="M-50,907L71,1043L112,902Z" fill="#548590" stroke="#548590" stroke-width="1.51"/><path d="M1351,-108L1275,-164L1320,-29Z" fill="#4d808a" stroke="#4d808a" stroke-width="1.51"/><path d="M1320,-29L1275,-164L1223,-27Z" fill="#4d818b" stroke="#4d818b" stroke-width="1.51"/><path d="M1143,-160L1275,-164L999,-164Z" fill="#467b84" stroke="#467b84" stroke-width="1.51"/><path d="M1448,124L1425,22L1327,101Z" fill="#558895" stroke="#558895" stroke-width="1.51"/><path d="M1398,940L1439,818L1386,822Z" fill="#7598a6" stroke="#7598a6" stroke-width="1.51"/><path d="M1386,822L1439,818L1376,725Z" fill="#7297a5" stroke="#7297a5" stroke-width="1.51"/><path d="M92,-136L-14,-49L131,-16Z" fill="#276f77" stroke="#276f77" stroke-width="1.51"/><path d="M1471,548L1538,442L1425,413Z" fill="#688f9b" stroke="#688f9b" stroke-width="1.51"/><path d="M1448,124L1541,34L1425,22Z" fill="#578894" stroke="#578894" stroke-width="1.51"/><path d="M1540,602L1538,442L1471,548Z" fill="#6b919e" stroke="#6b919e" stroke-width="1.51"/><path d="M1560,224L1506,187L1427,326Z" fill="#5f8d99" stroke="#5f8d99" stroke-width="1.51"/><path d="M1425,22L1351,-108L1320,-29Z" fill="#51838e" stroke="#51838e" stroke-width="1.51"/><path d="M-143,494L-165,534L-66,490Z" fill="#3e767f" stroke="#3e767f" stroke-width="1.51"/><path d="M-183,310L-165,534L-143,494Z" fill="#3b737c" stroke="#3b737c" stroke-width="1.51"/><path d="M-50,907L49,786L-6,786Z" fill="#4d828d" stroke="#4d828d" stroke-width="1.51"/><path d="M163,995L71,1043L338,1056Z" fill="#5b8b96" stroke="#5b8b96" stroke-width="1.51"/><path d="M1439,818L1514,699L1376,725Z" fill="#7297a4" stroke="#7297a4" stroke-width="1.51"/><path d="M1514,699L1540,602L1471,548Z" fill="#6e93a0" stroke="#6e93a0" stroke-width="1.51"/><path d="M1439,818L1559,806L1514,699Z" fill="#7498a5" stroke="#7498a5" stroke-width="1.51"/><path d="M1241,1051L1398,940L1208,881Z" fill="#7598a6" stroke="#7598a6" stroke-width="1.51"/><path d="M-58,995L-50,907L-146,883Z" fill="#50818b" stroke="#50818b" stroke-width="1.51"/><path d="M-146,883L-50,907L-6,786Z" fill="#4e808b" stroke="#4e808b" stroke-width="1.51"/><path d="M-179,206L-183,310L-10,189Z" fill="#2f737b" stroke="#2f737b" stroke-width="1.51"/><path d="M-179,206L-10,189L-63,75Z" fill="#2b737c" stroke="#2b737c" stroke-width="1.51"/><path d="M-156,71L-179,206L-63,75Z" fill="#287179" stroke="#287179" stroke-width="1.51"/><path d="M1506,187L1541,34L1448,124Z" fill="#5a8b97" stroke="#5a8b97" stroke-width="1.51"/><path d="M1425,22L1482,-121L1351,-108Z" fill="#51828d" stroke="#51828d" stroke-width="1.51"/><path d="M1614,320L1560,224L1427,326Z" fill="#628e9a" stroke="#628e9a" stroke-width="1.51"/><path d="M1614,320L1427,326L1538,442Z" fill="#658e9a" stroke="#658e9a" stroke-width="1.51"/><path d="M-14,-49L-121,34L-63,75Z" fill="#276f76" stroke="#276f76" stroke-width="1.51"/><path d="M-159,-86L-121,34L-14,-49Z" fill="#256b73" stroke="#256b73" stroke-width="1.51"/><path d="M1241,1051L1388,1015L1398,940Z" fill="#7999a7" stroke="#7999a7" stroke-width="1.51"/><path d="M1398,940L1438,956L1439,818Z" fill="#7899a6" stroke="#7899a6" stroke-width="1.51"/><path d="M-121,34L-156,71L-63,75Z" fill="#276f77" stroke="#276f77" stroke-width="1.51"/><path d="M1388,1015L1438,956L1398,940Z" fill="#7a99a8" stroke="#7a99a8" stroke-width="1.51"/><path d="M-50,907L-58,995L71,1043Z" fill="#55838f" stroke="#55838f" stroke-width="1.51"/><path d="M-185,771L-6,786L-113,668Z" fill="#487e87" stroke="#487e87" stroke-width="1.51"/><path d="M1624,714L1614,320L1538,442Z" fill="#6c909e" stroke="#6c909e" stroke-width="1.51"/><path d="M-165,534L-185,771L-113,668Z" fill="#437a83" stroke="#437a83" stroke-width="1.51"/><path d="M-183,310L-185,771L-165,534Z" fill="#3e757f" stroke="#3e757f" stroke-width="1.51"/><path d="M1623,92L1506,187L1560,224Z" fill="#5e8d99" stroke="#5e8d99" stroke-width="1.51"/><path d="M1623,92L1541,34L1506,187Z" fill="#5b8b97" stroke="#5b8b97" stroke-width="1.51"/><path d="M-185,771L-146,883L-6,786Z" fill="#4a7e88" stroke="#4a7e88" stroke-width="1.51"/><path d="M-121,34L-159,-86L-156,71Z" fill="#256c73" stroke="#256c73" stroke-width="1.51"/><path d="M92,-136L-64,-148L-14,-49Z" fill="#256b72" stroke="#256b72" stroke-width="1.51"/><path d="M282,-156L-64,-148L92,-136Z" fill="#256c74" stroke="#256c74" stroke-width="1.51"/><path d="M1542,930L1559,806L1439,818Z" fill="#7899a7" stroke="#7899a7" stroke-width="1.51"/><path d="M1514,699L1624,714L1540,602Z" fill="#7296a3" stroke="#7296a3" stroke-width="1.51"/><path d="M1540,602L1624,714L1538,442Z" fill="#6f93a0" stroke="#6f93a0" stroke-width="1.51"/><path d="M1541,34L1482,-121L1425,22Z" fill="#558590" stroke="#558590" stroke-width="1.51"/><path d="M1351,-108L1482,-121L1275,-164Z" fill="#4e7f89" stroke="#4e7f89" stroke-width="1.51"/><path d="M1559,806L1624,714L1514,699Z" fill="#7597a5" stroke="#7597a5" stroke-width="1.51"/><path d="M1559,806L1605,1058L1624,714Z" fill="#7a99a8" stroke="#7a99a8" stroke-width="1.51"/><path d="M1438,956L1542,930L1439,818Z" fill="#7999a7" stroke="#7999a7" stroke-width="1.51"/><path d="M1488,1060L1542,930L1438,956Z" fill="#7d9aa9" stroke="#7d9aa9" stroke-width="1.51"/><path d="M-64,-148L-159,-86L-14,-49Z" fill="#246970" stroke="#246970" stroke-width="1.51"/><path d="M-156,71L-159,-86L-179,206Z" fill="#266e76" stroke="#266e76" stroke-width="1.51"/><path d="M1614,320L1623,92L1560,224Z" fill="#618d9a" stroke="#618d9a" stroke-width="1.51"/><path d="M1541,34L1598,-149L1482,-121Z" fill="#55828d" stroke="#55828d" stroke-width="1.51"/><path d="M1624,714L1623,92L1614,320Z" fill="#688f9c" stroke="#688f9c" stroke-width="1.51"/><path d="M-146,883L-147,1015L-58,995Z" fill="#52808a" stroke="#52808a" stroke-width="1.51"/><path d="M-58,995L-147,1015L71,1043Z" fill="#56838e" stroke="#56838e" stroke-width="1.51"/><path d="M-185,771L-147,1015L-146,883Z" fill="#4e7e88" stroke="#4e7e88" stroke-width="1.51"/><path d="M1388,1015L1488,1060L1438,956Z" fill="#7c9aa9" stroke="#7c9aa9" stroke-width="1.51"/><path d="M1241,1051L1488,1060L1388,1015Z" fill="#7c9aa8" stroke="#7c9aa8" stroke-width="1.51"/><path d="M625,1062L1488,1060L966,1053Z" fill="#7395a3" stroke="#7395a3" stroke-width="1.51"/><path d="M1623,92L1598,-149L1541,34Z" fill="#598692" stroke="#598692" stroke-width="1.51"/><path d="M1482,-121L1598,-149L1275,-164Z" fill="#507f89" stroke="#507f89" stroke-width="1.51"/><path d="M1488,1060L1605,1058L1542,930Z" fill="#809baa" stroke="#809baa" stroke-width="1.51"/><path d="M1542,930L1605,1058L1559,806Z" fill="#7d9aa8" stroke="#7d9aa8" stroke-width="1.51"/></svg>